<svg id="Layer_1" data-name="Layer 1" xmlns="http://www.w3.org/2000/svg" viewBox="0 0 1080 1080"><defs><style>.cls-1{fill:#e1e2e4;}.cls-2{fill:#383b36;}.cls-3{fill:#737470;}.cls-4{fill:#d8d8d8;}.cls-5{fill:#b0b0b0;}.cls-6{fill:#2e9ba4;}.cls-7{fill:#1c5c5d;}.cls-8{fill:#2a403e;}.cls-9{fill:#297f86;}.cls-10{fill:#cccecd;}.cls-11{fill:#ededec;}.cls-12{fill:#c2f9f6;}.cls-13{fill:#0c663f;}.cls-14{fill:#71ff00;}.cls-15{fill:#1fc11f;}.cls-16{fill:#067248;}.cls-17{fill:#86b247;}.cls-18{fill:#368240;}.cls-19{fill:#49a747;}.cls-20{fill:#8bc83f;}.cls-21{fill:#22c463;}.cls-22{fill:#cdf1fc;}.cls-23{fill:#53ff40;}.cls-24{fill:#1db721;}.cls-25{fill:#6e8c3b;}.cls-26{fill:#d3f3fc;}.cls-27{fill:#e3fbfd;}.cls-28{fill:#dbf7fd;}.cls-29{fill:#bababa;}.cls-30{fill:#eaea0a;}.cls-31{fill:#f1f1f1;}.cls-32{fill:#8c8c8c;}.cls-33{fill:#3c7c7a;}</style></defs><title>imagesForKYoungPage_ProjectIllustrations</title><path class="cls-1" d="M1080.68,724.58v74.15c-4.88.6-7.19,5.72-11.86,6.69-2.56-2.53-5.82-1.6-8.8-1.6q-173.25-.07-346.49,0c-3,0-6.24-.87-8.77,1.71a7,7,0,0,1-1.34-.08H381a6.7,6.7,0,0,1-1.32.08c-2.53-2.57-5.78-1.71-8.77-1.71q-172.44-.06-344.88,0c-3,0-6.24-.91-8.78,1.65-7.17,1-9.8-6.17-15.16-8.43q0-35.39,0-70.78l1.75-1.44a0.68,0.68,0,0,0-.08-0.94c3.36,0.12,6.72.35,10.07,0.35l1050.88,0C1070,724.28,1075.36,724.48,1080.68,724.58Z"/><path class="cls-2" d="M1080.68,724.58c-5.33-.11-10.65-0.31-16-0.31l-1050.88,0c-3.36,0-6.72-.23-10.07-0.35q0-230.31,0-460.63,0-75.36-.21-150.72c0.61-7.23,5.83-9.84,11.75-11.75,2.52,0.07,5,.22,7.57.22q451.52,0,903,0,70.76,0,141.51-.15c6.61,1.56,9.31,7.47,13.28,12V724.58ZM29.07,126.31c-2.79,2.81-1.68,6.38-1.68,9.62q-0.08,275.11,0,550.21c0,3.28-1,6.78,1.39,9.76l2,1.6-0.12.28c2.61,2.43,5.86,1.54,8.85,1.54q503.47,0.06,1006.94,0c3,0,6.22.81,8.95-1.34l1.94-2.13c2.23-2.7,1.38-5.92,1.38-8.92q0.06-275.51,0-551c0-3.24,1.12-6.81-1.69-9.61-3.65-.1-7.29-0.29-10.94-0.29q-494.21,0-988.42,0c-9,0-18,.21-26.95.33A6.14,6.14,0,0,0,29.07,126.31Z"/><path class="cls-1" d="M770.61,992.5a74.11,74.11,0,0,1,8.39.16c10.25,1.32,15.72,12,11.27,21.36-1.43,3-4.36,5.23-4.52,8.86H298.69c-0.15-4.74-5.32-6.31-6.53-10.45-3-10.37,3.36-19.45,14.11-19.87,2.52-.1,5,0,7.56-0.07H770.61Z"/><path class="cls-3" d="M1067.4,100.85q-70.76.08-141.51,0.15-451.52,0-903,0c-2.52,0-5-.14-7.57-0.22q0.1-.74.27-1.46H1067.2A4.64,4.64,0,0,0,1067.4,100.85Z"/><path class="cls-3" d="M3.54,112.54q0.11,75.36.21,150.72,0,230.31,0,460.63a0.68,0.68,0,0,1,.08.94l-1.75-.25q0-305.89,0-611.77l0.71-.28H3.54Z"/><path class="cls-4" d="M2.08,724.58l1.75,0.25-1.75,1.44Q2.08,725.42,2.08,724.58Z"/><path class="cls-5" d="M703.42,805.45q-0.18,13.46-.37,26.91H381.38q-0.19-13.46-.38-26.92H703.42Z"/><path class="cls-4" d="M1068.82,805.43l-364.06.1c2.53-2.57,5.78-1.7,8.77-1.71q173.25-.06,346.49,0C1063,803.83,1066.26,802.9,1068.82,805.43Z"/><path class="cls-4" d="M379.68,805.53l-362.44-.05c2.54-2.56,5.8-1.65,8.78-1.65q172.44-.06,344.88,0C373.89,803.83,377.15,803,379.68,805.53Z"/><path class="cls-6" d="M30.74,126.34c9-.11,18-0.33,26.95-0.33q494.21,0,988.42,0c3.65,0,7.29.19,10.94,0.29q0,176.09.08,352.18,0.05,108.68.24,217.36l-1.94,2.13c-4.2-.13-8.4-0.36-12.61-0.36q-478.7,0-957.4,0c-18.24,0-36.48.11-54.73,0.17l0.12-.28,0.13-1.7c3.09,0,6.18.09,9.26,0.09H1043.58c11.81,0,11.82,0,11.82-11.88q0-272.11,0-544.23c0-11.8,0-11.81-11.89-11.81Q764.23,128,485,128q-227,0-454.08.11Z"/><path class="cls-7" d="M30.7,697.78c18.24-.06,36.48-0.17,54.73-0.17q478.7,0,957.4,0c4.2,0,8.4.23,12.61,0.36-2.72,2.15-5.93,1.34-8.95,1.34q-503.47.05-1006.94,0C36.56,699.31,33.31,700.2,30.7,697.78Z"/><path class="cls-8" d="M28.78,695.9c-2.37-3-1.39-6.49-1.39-9.76Q27.32,411,27.4,135.93c0-3.24-1.11-6.81,1.68-9.62l0.57,2c-0.09,2.52-.27,5-0.27,7.56q0,275.8,0,551.59c0,2.8.28,5.59,0.43,8.39A3.75,3.75,0,0,0,28.78,695.9Z"/><path class="cls-8" d="M1057.37,695.85q-0.13-108.68-.24-217.36Q1057,302.39,1057,126.3c2.81,2.8,1.69,6.37,1.69,9.61q0.08,275.51,0,551C1058.75,689.93,1059.6,693.15,1057.37,695.85Z"/><path class="cls-9" d="M29.64,128.27l-0.57-2a6.13,6.13,0,0,1,1.67,0q0.07,0.88.13,1.75Q30.26,128.19,29.64,128.27Z"/><path class="cls-9" d="M30.95,695.8l-0.13,1.7-2-1.6a3.69,3.69,0,0,1,1-.08l0.57-.06Z"/><path class="cls-10" d="M381.38,832.37H703.06c-2.11,44.18,9.67,84.49,33.74,121.39l-389.22,0c15.21-23.78,26.28-49.19,31.08-77.19C381.18,861.92,381.4,847.16,381.38,832.37Z"/><path class="cls-11" d="M347.58,953.78l389.22,0c10.11,13.93,24.27,24.32,33.81,38.75H313.83c0.5-1.28.66-2.92,1.56-3.77C326.95,977.83,337.12,965.67,347.58,953.78Z"/><path class="cls-12" d="M30.95,695.8l-0.57,0-0.57.06c-0.15-2.8-.42-5.59-0.42-8.39q0-275.8,0-551.59c0-2.52.17-5,.27-7.56,0.41,0,.82-0.11,1.23-0.18Q257.92,128,485,128q279.28,0,558.55,0c11.89,0,11.89,0,11.89,11.81q0,272.11,0,544.23c0,11.87,0,11.88-11.82,11.88H40.21C37.13,695.89,34,695.83,30.95,695.8Z"/><path class="cls-13" d="M786.34,511c4.9-1.09,8.68-3,9-9,0-.91,3.57-3,5.4-4.58a13.93,13.93,0,0,0,2.61-2.42c1.94-3,3.78-3.57,5.93-.23,0.79,1.23,1.91,2.36,3.47,2.06,2.13-.41,1.37-2.15,1.16-3.46-0.4-2.45.92-3.42,3-3.56,2.49-.16,4.47-0.15,3.18-3.81-0.65-1.85,2.12-1.29,2.31-.94,2.34,4.25,8.67-.43,10.37,4.77,0.06,0.19-1.57.68-1.77,1.26-0.77,2.17-4.3,4.74.76,6.37,1.27,0.41,2.3,1.64,3.35,2.6,1.92,1.74,3.73,4.72,6.61,3s2.29-5,1.37-7.8c-1.33-4.09-.19-7.55,2.4-10.75a2.62,2.62,0,0,1,3.23-.85c-0.23,5.63-.15,11.11,5,15.05,1.12,0.86,1,2.6.63,4.06-0.93,3.49-1.07,6.09,3.69,7.19,3.33,0.77,2.9,5.42,4.81,8.09,3,4.23,10.65,9.19,4,16.41,2.31,9.71-4.65,15-10,21.08-1.79,2-.54,5.4-3.18,7-6.15,2.64-12.2,5.22-19.21,2.88-3.33-1.11-6.64-1.54-4.65-6.28,0.41-1,.72-2.68,0-2.76-6.15-.68-2.82-4.66-2.27-7.28-1.82-.71-2.31.28-2.81,1.12-1,1.72-1.65,4.43-3.87,4.26-3.22-.25-0.9-3.28-1.63-4.94-1.26-2.88-9.07-5.23-12.71-3.05a8.93,8.93,0,0,1-7.44,1.27c-1.43-.38-3.3-0.26-3.7,1.26-1.42,5.37-5.46,4.48-9.29,4.27-2.84-.16-5.33-0.32-7.61,2.43-1.84,2.21-4,.07-5.48-1.66-1.7-1.94-2.38-4.52,0-5.76,8.44-4.36,1.81-5.34-1.4-7.15,0.57-3.5,3.11-6.87-1.52-10.13-3.66-2.58,4.21-3.8,1.87-6.33s-3.47-5.62-.36-6.85C776.63,515.8,780.44,511.07,786.34,511Z"/><path class="cls-14" d="M375.85,458.09c5.7,0.15,11.7-1.33,16.87,2.09,3.91,2.59,8.73,2,12.74,4.88,12,8.58,12.83,14.9,2,25-2,1.89-3.44,3.71-2.61,6.23,2.68,8.16-2.23,14.91-3.81,22.27-0.47,2.21-2.05,2.72-4,3.05-12.69,2.2-12.68,2.23-14.12,15.2a11.35,11.35,0,0,1-.48,1.76l-2,2.3-0.78,1.52c-0.61,3.71-5.22,4.87-5.57,8.74-3.56-2.85-6-7.08-10.57-8.67a9.46,9.46,0,0,1,5.51-6.59c5-2,1.06-3-.34-4.36,1.21-6.6-.51-11.55-7.29-14.2-1.79-.7-4.18-1.84-3.81-4.72,3.39-.5,3.39-3,2.13-5-2.89-4.47-7.87-7.21-10.22-12.37a6.94,6.94,0,0,0-5.55-3.05c-1.28.06-2.71-.65-2.75-1.94-0.46-13-4.8-4.84-8.29-1.58a3,3,0,0,1-1.15.37c-1.52-3.44-5.13-3.5-7.88-5s-7.28-3.27-4.73-7.39c1.7-2.75,2.22-6.81,6.64-8,2.77-.74,2.55-3.7,1-6.06a9.51,9.51,0,0,0,.92-6.33c-0.68-3.46,1-5.09,4-5.93,2.24,0.18,3.29,2.32,5,3.13,2.36,1.09,6.51,1.94,5.53-2-1.65-6.74,2-5.91,6-5.79a3.24,3.24,0,0,0,3.09-1.53,3.67,3.67,0,0,1,1.19,1.27c1.62,9,1.61,9,10,4.51l3.43-.32c4.8,4.06,5.73-3.37,9.25-3.11,4,3.6,3.21,7.23.06,10.87l-1.22,1.3-0.43,1.24,1.09-.56Z"/><path class="cls-15" d="M368.69,531.51c1.4,1.34,5.37,2.33.34,4.36a9.46,9.46,0,0,0-5.51,6.59c-6.41,4.71-6,9.24,1.24,14.82,2.25,9.49,2.25,9.48-8.14,12.18-1,.27-2.07,1-2,2,0.94,8.28-2.85,6-7,2.63-0.19,1.08-.55,2-0.35,2.13,6.27,4.79,1.71,10.05-1.08,12.8-5.35,5.28-1,5.44,2.37,6.72-1.55,5.66-7,9.75-6.14,16.23-2.71,1.17-6.32,2.35-7.66-.52-1.49-3.19-6.8-5.48-4-9.95,3.19-5,1.8-10.07,1.33-15.18-0.82-9-2.1-18.1-.4-27.14,0.79-4.19,2.81-8.17-1-12.13-1.31-1.37,0-3.71.9-5.15,3.83-6.25,4.91-13.17,5.55-20.25l10.16-1.5c4,1.76,6.78,5.75,11.51,6.41a2,2,0,0,1,1.46,3.21c-1.51,1.78-3.5,3.49-1.11,5.45s4.48-.32,6.48-1.57C366.77,533,367.71,532.22,368.69,531.51Z"/><path class="cls-16" d="M250.7,405c-3.81-3.14-8.09-5.76-6.67-12.11,0.48-2.18-2.42-4-4.06-5.77-5-5.38-9.48-11-10.23-18.7,0.42-1,1.18-.74,1.93-0.49l1.83-.23c1.8-.33,4.19,0,5.32-1.1,6.27-5.86,7.81-1.16,9.55,3.86,0.71,2.06,2.27,4.11,4.47,2,4.1-3.91,4.17.2,4.77,2.31,1,3.61,1.76,7.24,6.16,8.25,0.52,1.67-.33,3.12-0.64,4.68-1.34,6.84,2.14,14.78,6.88,15.81,5,1.1,8.79-.44,10.59-5.56,0.93-2.65,2.48-4.28,5.45-3s3.38,3.73,2.09,6.51c-0.59,1.27-1.36,2.46-2.05,3.69a3.35,3.35,0,0,0-4,2.6c-4.93-.85-4.56,5.36-8.23,6.19-2.49-1.56-4-4.94-8.28-2-2.28,1.58-5.65-1.2-8.27-2.69C255.07,408,252.91,406.46,250.7,405Z"/><path class="cls-13" d="M337.25,521.63c-0.65,7.08-1.73,14-5.56,20.25-0.88,1.44-2.21,3.78-.9,5.15,3.77,4,1.75,7.94,1,12.13-1.7,9-.42,18.1.4,27.14,0.46,5.11,1.85,10.18-1.33,15.18-2.85,4.47,2.47,6.76,4,9.95,1.34,2.87,5,1.69,7.66.52,1.35,1.45,2,3.58,4.3,4.11,1.22,0.28,2.43.93,1.86,2.49s-2,1.18-3.15,1.21c-10.9.34-19.84-9.67-18.61-20.56,1.16-10.35-.44-20.5-2.83-30.54-0.19-.78-0.8-1.82-0.5-2.3,6.77-11.14.09-24.08,5.2-35.83,3.13-7.19-1.28-15.55-2.07-23.41l3.56-1.48c2,3.48,5.05,6.43,4.09,11.16C333.9,518.7,335.33,520.58,337.25,521.63Z"/><path class="cls-17" d="M330.19,505.64l-3.56,1.48c-2.5-2.06-4.79-4.49-7.56-6.1-5.3-3.08-7.58-7.66-9.69-13.3-1.91-5.13-2.58-11.73-9-14.51-1.69-.74-1.33-2.8-1.1-4.42,0.33-2.27,2-2.18,3.71-2,0.87,2.3,2.71,4.61,4.67,2.23,3.3-4,8.44-4.27,12.1-7.24,2.28,0.43,4.49,1.41,6.9.88,1.6,2.36,1.82,5.32-1,6.06-4.42,1.18-4.94,5.24-6.64,8-2.54,4.12,1.89,5.83,4.73,7.39s6.36,1.56,7.88,5C331.78,494.64,328.37,499.89,330.19,505.64Z"/><path class="cls-13" d="M326.72,462.61c-2.4.53-4.62-.45-6.9-0.88-3-5.62-9-7.14-14.07-9.82,6.47-3.38,6-8.82,4.38-14.62q0.37-2,.74-4c3.35-5.38,8.25-9,13.71-11.92-4.63,12.89-4.64,12.93,7.81,18.28,2.82,1.21,2.91,3.12,1.84,5.41-0.83,1.78-3,2.9-2.62,5.27-3,.85-4.65,2.48-4,5.94A9.51,9.51,0,0,1,326.72,462.61Z"/><path class="cls-13" d="M726.11,401.52c-0.14-3.28-5.59-3.44-4.41-7.5a3,3,0,0,0,.14-3.72c3.12-4.56,3.11-11,8.45-14.23,3.64,1,9.08,1,3.74,6.88a1.63,1.63,0,0,0,.07,1.56c3.7,2.39,3.61,7.55,7.32,9.9L740.77,396c-2.72,2.37-8.23,3.72-4.65,8.8,1.91,2.72,2.55,4.6,1,7.49a3.13,3.13,0,0,0,.81,3.94c5.16,3.29,1.9,5.78-.62,8.39-2.48-5.41-3.12-11.2-3.52-17-0.37-1-1.28-1.7-2.1-1.17-0.56.36-.54,1.63-0.78,2.5-2.7,2-3.58.16-4.08-2A52.91,52.91,0,0,1,726.11,401.52Z"/><path class="cls-18" d="M775.23,472.34c2.21,1.54,4.33,3.16,4.47,6.19a35.12,35.12,0,0,1-24.78-6.17c-5.08-3.65-8.94-9.19-12.79-14.3-2.19-2.91.1-8.16-4.66-10.11l-5-2.81-1.26-.8c-0.61-1.7-2.65-2.66-2.46-4.77,5.79-1.61,8.25,3.89,12.33,5.9,1.88,0.93,3,3.43,5.69,2.69l0.35,1.18a2.54,2.54,0,0,0,3.61,1.25l-0.12-.05a3.08,3.08,0,0,0-.43,1.09c0.25,6.56.25,6.53,6.76,6.56a3.6,3.6,0,0,1,3.2,2.47c0.74,1.88-.59,1.64-2,1.62-2.13,0-1.45,1.88-1,2.52,1.19,1.55-.6,5,2.18,4.93C764.92,469.62,769.76,472.8,775.23,472.34Z"/><path class="cls-14" d="M737.28,424.61c2.52-2.61,5.78-5.1.62-8.39a3.13,3.13,0,0,1-.81-3.94c1.58-2.89.95-4.77-1-7.49-3.58-5.08,1.93-6.44,4.65-8.8,0.39,7.22,6.88,6,11.07,8-1.35,3.3,5.25,5.27,1.51,9-3.94-.12-7.32.54-7.65,5.47-5,1.61-1.62,5-1.58,7.63l-4.05,2.39C738.66,427.55,737.23,426.61,737.28,424.61Z"/><path class="cls-19" d="M740.07,428.5l4.05-2.39a13.27,13.27,0,0,0,4.95,8.09c3.6,3.11,5,7.18,5.22,11.9,0.1,2.82-1,4.18-3.67,4.44l0.12,0.05c-0.77-1.67-2.3-1.14-3.61-1.25l-0.35-1.18C742.73,442.22,739.59,436,740.07,428.5Z"/><path class="cls-16" d="M305.76,451.91c5.1,2.69,11,4.2,14.07,9.82-3.66,3-8.8,3.22-12.1,7.24-2,2.39-3.8.08-4.67-2.23Q298.9,456.23,305.76,451.91Z"/><path class="cls-20" d="M364.75,557.28c-7.27-5.58-7.65-10.12-1.24-14.82,4.59,1.59,7,5.82,10.57,8.67C372.36,555.29,370,558.41,364.75,557.28Z"/><path class="cls-17" d="M289.06,426c-0.92-2.1-1-4.56-2.81-6.27l1.34-2.23c3.43-.32,5.11-5,9.22-3.65,0.31,4.41-3.12,9,.57,13.25Z"/><path class="cls-18" d="M310.87,433.31q-0.37,2-.74,4c-2.08-1.49-3.83-6.38-6.6-.63-2.53-2.46-7.94-.33-8.75-5.51a7.73,7.73,0,0,1,4.65-1.51C303.51,430.05,308.65,427.12,310.87,433.31Z"/><path class="cls-16" d="M691.25,429c3.4-3,4.69.05,5.77,2.31,0.62,1.3.24,3.09,0.31,4.66q0,0.63,0,1.27c-3.74,1.91-5.7.83-5.82-3.44C691.49,432.24,691.35,430.65,691.25,429Z"/><path class="cls-13" d="M273.89,414c3.67-.83,3.3-7,8.23-6.18,0.27,1.75.07,3.66,1.71,4.93l-1.33,2.24a2.62,2.62,0,0,0-2.59,2.62C277.13,417.65,275,416.63,273.89,414Z"/><path class="cls-15" d="M363.33,613.43c-1.72-.62-4.27,1-3.7-2,0.73-3.84,4-1.1,6-2.07,1.4-.7,3.55.36,3.1,1.52C367.81,613.22,365.16,613.32,363.33,613.43Z"/><path class="cls-21" d="M299.44,429.63a7.73,7.73,0,0,0-4.65,1.51c-3-.51-5.65-1.36-5.73-5.12l8.32,1.1Z"/><path class="cls-20" d="M279.91,417.57a2.62,2.62,0,0,1,2.59-2.62c1.81,0.63,3.89.74,5.08,2.58l-1.34,2.22Z"/><path class="cls-22" d="M728.76,439.57c-0.19,2.11,1.85,3.07,2.46,4.77-2.5,1.4-3.9,0-4.69-2.1C725.84,440.4,727,439.66,728.76,439.57Z"/><path class="cls-22" d="M732.47,445.14l5,2.81C734.36,449.59,731.92,450,732.47,445.14Z"/><path class="cls-22" d="M414.44,587.74l1,1.41a3.07,3.07,0,0,1-1.33.81,2.92,2.92,0,0,1-1.11-1Z"/><path class="cls-22" d="M730.88,408.9c0.24-.86.21-2.13,0.78-2.5,0.82-.53,1.72.16,2.1,1.17Z"/><path class="cls-22" d="M379.66,542.38l0.78-1.52Z"/><path class="cls-15" d="M830.36,274.1c-2.79-.49-5.58-1.05-8.38-1.44-4.53-.62-8.48-0.58-9.33,5.57-0.27,1.94-2.47,3.61-3.81,5.4s-3.13,3.7-.6,5.74c1.62,1.31,2.36,4.8,6,1.35,2.22-2.08,5.92,1.46,6.18,3.94,1.07,10.35,3.49,21-5.39,29.84-3.08,3.05-6.12,4.34-10.21,3.66-2.28-5.34,3.75-7.54,4.58-12,0.75-4,.4-5.58-3.54-4.69-3,.69-5.18.14-6.86-2.35a3.85,3.85,0,0,0-3.46-2.08c-3.5.14-4.68-2.07-5.93-5-2-4.76-5.2-8.9-10.87-9.6-3.51-.43-6.92-1-5.59,5.18,1.51,7-1.05,9.58-6.8,8.92-0.84-3.32-2.43-3-5.41-2.07-3.45,1.08-6.92,5.43-10.42,2.73a17.71,17.71,0,0,0-12.41-3.76,4.81,4.81,0,0,1-4.6-2.44c-2.28-3.68-6.62-3.5-9.7-3.21-2.91.27-.38,4.69-1.81,7-0.77,1.23.25,2.25,0.82,3.33,1.33,2.56-.58,3-2.25,2.61-2.14-.51-4.06-1.89-6.19-2.51-4.32-1.26-8.47-1.57-10.59,3.68h-1.72c-1.34-4.65-3.11-8.82-8.63-10-1.7-.35-2.48-2-2.68-3.75-0.5-4.36-3.58-4.16-6.3-3-3.13,1.36-5.84,3.91-6.65-2.1-0.25-1.83-2.64-2.07-4.14-1.48-4.28,1.7-8.32,3-12.81.32-1.64-1-2.37.93-3.34,2.41-1.81,2.76-4.4,5-5.74,8.15-3.79-2.32-9.26-.18-12.26-4.76-3.65-5.6-9-7-15.37-4-1.36.63-2.22,1.28-3.78,0.23-4.25-2.85-5.45,1.91-7.59,3.62-2.34,1.88-1.45,4.87.67,6.35,4,2.78,3.86,5.23.48,8.24-1,.91-0.69,2.26-0.41,3.48-2.61,3.48-8.53,5-6.72,11.12l-2.75.63A9.43,9.43,0,0,1,600,325c-4.54-4.25-9.27-5.17-14.12-.43-4.32-2.3-4.73-4.71-.37-7.51,0.75-.48,1.05-1.64,1.57-2.48,1.34-10.21-6.53-19.64-16.38-19.61,4-12.68,4-12.68-5.23-15.92-1.14-1.8-2.44-3.39-4.79-3.57l-2.74-6a16.07,16.07,0,0,1,6.65-7.73c2.71-1.57,3.15-3.92,1.21-6.11-4.74-5.36-4.24-12-5-18.37,1.61-2.88,4.5-4.22,7.12-5.88,5.87,1,10.45,4.92,15.65,7.4,3,1.46,1.79,4.26-.93,5.51-1.38.63-3.18,0.32-4.79,0.49s-4.37-1.3-4.23,1.61c0.13,2.6.31,5.92,3.81,7a1.92,1.92,0,0,0,1.65-.46c1.88-2.21,2.95-2.5,5.83-1-1.94-8.17,3.31-7.19,8.05-6.29,0.66-2.07-.89-3-1.22-4.26-0.42-1.66-3.22-3.7.11-5,2.22-.84,4.84-0.21,5.32,2.57,0.9,5.29,2.84,3.48,5.39,1.23,3.06-2.7,6.14-4.61,10.89-4.1,3.86,0.42,8-1.44,12-2.28,0.46,1,.89,2.74,2.24,1.73s0.4-2.5-.52-3.63a0.49,0.49,0,0,0-.12-0.68c5.14-3.48,8.51.43,12.15,3,1.39,1,2.31,3.91,4.2,2.45,2.08-1.61.82-4.13-.63-6-0.87-1.09-2.08-1.91-3.06-2.93-1.23-1.28-2.09-2.94-.3-4.15,2-1.34,2.23-3.11,2.54-5.16,0.35-2.3,1.35-4.32,4.21-4.37,2.65,0,3.34,2,4,3.9s1.06,3.92,1.57,5.88c0.74,3.79,1.36,7.61,2.25,11.36,0.71,3,.47,5.24-2.91,6.25-1.07.32-2.85,0.44-2.44,2.05s2.15,1.67,3.59,1.45a6.35,6.35,0,0,0,4.75-3.48c3.54-6.46,3.54-6.44,8.85-1.84,0.62,0.54,1.34,1,2.35-.21-1.89-2.71-3.73-7.07-6.94-6.76-5.36.51-6.51-1.34-6.43-5.92,0-1-1.3-2-2-2.93,0.3-1.91-.57-4.07,1.34-6.06,2.83,2.21,3.15,6.83,7.31,7.31,1.83-1.46-1.7-3.64.57-4.77,2.05-1,3.24,1.07,4.8,1.87,1.15,0.59,2.48,2.48,3.66,1.08,1.6-1.88-.37-2.68-1.84-3.48a3.63,3.63,0,0,1-2-4.13c0.62-2.54,2.87-1.76,4.59-1.69,3.6,0.15,6.72.55,5.12-5.1-0.81-2.86,2.5-3.44,4.68-3.19,7.36,0.84,13.84-4.5,21.36-2.8,1.89,0.43,3.56-1.41,3.74-3.35,0.21-2.28,1.67-3.57,2.88-5.14a4.22,4.22,0,0,1,.54.29c4.66,3.4,8.46,8,15.75,5.13,3.2-1.26,7.15,2.14,7.64,6.3,0.46,3.93-3,4.76-6,5.56a8.15,8.15,0,0,0-2.29.82c-1.57,1-4.74,1.63-3.16,4.08,1.35,2.09,3-.69,4.52-1.32,6.93-2.86,14-1.54,20.86.06,4.1,1,7.32,3.8,11.85-.67,3.77-3.72,8.53-.35,8.93,5.1,0.27,3.6,4.43,4.26,6.1,3.52,5.79-2.58,11.36-.07,17-0.33,1.84-.08,3.68.3,2.5-2.31-0.84-1.85-.78-3,1-4s3.62-1.24,5.07.2c3.65,3.62,7.8,4.59,12.74,3.35,1.25-.31,3.31-0.15,4,0.66,4.69,5.25,10.59,5.34,16.8,4.48,2.44-.34,4.34.7,6.14,2.12,2,3.9,4.8,5.46,8.92,2.89a3,3,0,0,0,.55-0.25c4.85-5,9.93,4.51,15.1-.43,5.51-5.27,10.21.67,15.37,1.52,5.45,0.89,9.49,4.95,15,5.13a2.92,2.92,0,0,1,2.09.92c3.29,4.88,8.06,5.69,13.43,5.23,1.83-.16,3.82,0,4.63,2.16,0.91,2.39-.49,3.24-2.58,3.78-1.73.45-1.25,1.75-.7,2.92,0.69,1.44.83,2.78-.88,3.61s-2.7-.39-3.68-1.39c-2.06-2.11-4.35-3.81-7.42-3.74-2.79.07-3.28-1.74-3.75-3.87a1.73,1.73,0,0,0-2.41-1.21c-1.24.43-.47,1.77-0.75,2.37-2.31,4.84-.8,8,3.25,11.2,1.56,1.24-.7,3.08-2.94,2.95-5.59-.33-10.3.64-11.67,7.25-0.64,3.11-2.71,1.93-4.09.74-4.76-4.12-8.61-.74-11.7,2-3.54,3.14-.85,6.56,1.85,8.81,3.55,2.94-1.33,5.67.27,8.38-4,1.89-4.12,6.28-6.12,9.46s-3.37,2.07-4.91-.26c-6.87-10.4-6.14-19,2.41-28.18,0.56-.59,1.21-1.09,1.79-1.66,1.33-1.31,2.58-2.69,2.09-4.78a1.59,1.59,0,0,0-1.83-1.24c-2.27.26-1.43,2.66-2.48,3.78-0.28.29-.58,0.56-1,0.93a3.49,3.49,0,0,1-1.38-.92c-1.13-2.54-3-3.81-5.79-3.53-3.3.32-3.4,3.21-4.07,5.41-2.17,7.13-2.11,7.18-8,3.53C833.51,268.27,832.89,273.27,830.36,274.1Z"/><path class="cls-13" d="M910.65,570.3c-0.45-1.84-.79-3.26.34-4,3.76-2.57,2.21-5.53.89-8.57-0.59-1.36-2-3.16.41-3.9,1.52-.46,2.73.94,2.69,2.56-0.08,3.44,2.43,5.22,4.76,6.37,4.79,2.35,3.25,4.63.11,6.39-2.57,1.44-5.24,2.24-5,5.92a1.69,1.69,0,0,1-1.08,1.25c-8.9.35-11.51,8.29-16.35,13.51-1.8,1.94-3.34,4.34-6.48,3.39-2-.62-3.87-2.26-3.85-4.31a6.22,6.22,0,0,1,4.65-5.83c5.65-1.58,11.08-3,12.09-10.13,0.21-1.49,2-1.32,3-.55C911.25,575.64,910.8,572.59,910.65,570.3Z"/><path class="cls-18" d="M847.65,478.72c-4.53,3.29-8.32-3-12.87-1-0.6.26-1.27-1.42-.36-2.32,4.91-4.86,1.18-6.55-2.95-8a19.43,19.43,0,0,0-3.55-.77c-1.25-.2-2.64-0.43-2.56-2s1.59-1.44,2.79-1.6c1-.13,2.47-0.18,2.82-0.79,3.91-6.92,8.41-3.43,12.89-.9l2.89,1.5q1.29,5.86,2.59,11.72Z"/><path class="cls-15" d="M849.34,474.54q-1.3-5.86-2.59-11.72c4.35-.2,12.72,5.62,13.13,10.55,0.34,4,2.27,5.11,5.19,6.2,1.17,0.44,2.43,1.21,1.7,2.64-0.56,1.1-1.23,2.27-3.21,1.9-3-.56-5.17-1.81-6.56-4.59C855.45,476.43,853.06,474.41,849.34,474.54Z"/><path class="cls-17" d="M835.29,331.65c-0.8.48-2.2-.35-2.52,1.16l0.09,0.09c1.22-3.15-.73-3-2.62-2.29-1.38.49-2.6,1.31-3.64-.37a3,3,0,0,1,.56-3.88,5.09,5.09,0,0,0,1.37-6c-0.44-1.09-1.22-2.47.28-3.13s2,0.73,2.32,1.93c0.4,1.52,1.61,2.24,2.84,2.93,1.12,2.36,7.93.84,4.36,6.4v0.13C836.62,328.92,835.4,329.74,835.29,331.65Z"/><path class="cls-23" d="M831.58,309.65c-3,.17-5.28,0-5.87-4.14-0.56-3.9-2.22-7.67-2.39-11.72,0-1.16-2.4-2.41-.09-3.44,1.22-.55,2.18.72,3.19,1.34-0.53,5.24,4.46,8.54,4.78,13.55C831.29,306.69,832.89,308,831.58,309.65Z"/><path class="cls-23" d="M881.82,227.31c-1.36-.21-3.73.1-3.37-1.51,0.44-2,2.12-4.12,4.61-4.11A3.13,3.13,0,0,1,886,225C885.85,227.65,883.48,227.07,881.82,227.31Z"/><path class="cls-23" d="M903.87,516.39c-0.05,1.83-1.11,2.28-2.43,2-2.53-.53-4.37-2.05-4.76-4.67-0.3-2,1.27-2.18,2.77-2C902.35,512,903.26,514.18,903.87,516.39Z"/><path class="cls-23" d="M866.5,458.72c4.53-1.68,6.19.57,7.62,3,0.54,0.94.1,2.58-.64,2.59C870,464.39,869.47,460.85,866.5,458.72Z"/><path class="cls-15" d="M869.81,467.93c-0.53,2.45-2.54,2.87-4.54,3.17-0.81.12-2-.71-1.61-1.15a20.05,20.05,0,0,1,5-3.68C869.4,465.86,869.74,467.09,869.81,467.93Z"/><path class="cls-24" d="M318,232.31c6.15,1.36,8.22,4.85,5.48,11.31-1.38,3.25-4.62,5.2-8.45,2-0.92-.77-7.92,4.91-7.83,6.32s0.22,3.62-1.34,3.56c-6.63-.27-8.63,6.33-13.5,8.58-4.12,1.9-5.3,6.31-3.65,9.25s0.87,8.3,7.39,8.63c5.86,0.3,10,6.32,15.92,8.16,2.25,0.7,1,4.37.24,6.71-0.8,2.63-.93,5.24,2.61,5.41,2.78,0.14,6.78,1,6.6-3.88-0.16-4.32-1.63-8.79,3.27-11.67a1.8,1.8,0,0,0,.39-1.71c-3.55-6.48,1.93-12.19,1.52-18.44-0.37-5.76,1.28-6.63,6.85-4.55,1.3,0.49,2.89.3,4.12,0.89,3.59,1.7,7.71,3,6,8.67-0.63,2.06-.6,4.8,2.18,5.66,2.59,0.8,5.27,1,6.65-2.36,0.51-1.25,1-3,2.68-3,2.51-.06,1.44,2.49,2.32,3.65,1.65,2.19,2.12,4.75,2.72,7.36s1.24,5.59,4.43,6c7.09,0.82,2.72,3.13.75,5.26,1.71,1.7,4.36-1.93,5.77,1a7.41,7.41,0,0,1,0,6.48c-1.23,2.83-.23,5.75,2.23,6.52,6.31,2,1.49,7,3.14,10.15,0.35,0.68-1.91.9-3.12,0.79-2.88-.28-4.58-3.7-7.62-3.1-1.55.31-3,1.71-4-.58a4.57,4.57,0,0,1,1.17-5.51c1.41-1.43,3.83-1.64,4.54-3.86,1.46-2.11,1.89-4-1.63-3.26-1.58.33-2.89,1.93-4.32,2.95l-3,.29-4.9,0c-5.49-.72-10.26.22-13.54,6.32,6.06-3.74,9.91-2.28,12,3.83a1.66,1.66,0,0,0,.77.91c6.36,2.84,4.15,5.16-.36,7.51-1.42.74-2.58,2-3.95,2.8-2.1,1.28-3.44.71-3.79-1.81l1-.66a12.76,12.76,0,0,0,2-1.35c1.33-1.3,6.19-1.85,2.13-4.55-2.47-1.64-4.76,1.91-6.57,4a4.25,4.25,0,0,1-.45.4c-0.19-.58-0.38-1.15-0.58-1.73-0.69-2,1.76-5.34-2.13-6-3.45-.59-4.63,2.08-5.21,4.76-0.64,3-2.52,3.26-5,3-3.94-.38-8.44-1.88-9.18,4.49-0.14,1.18-1.45,1.43-2.47,1.18-3.4-.83-5.31,1-7.07,3.51-1.18,1.65-2.67,3.7-5,2.24-3.07-2-.28-3.78.61-5.59,4.3-4.36,6.15-8.33-1.2-11.65-1.51-.68-2.71-2.48-3.59-4-2.44-4.33-5.24-4.66-8.69-1.25-25.53-2.4-51.13-1.17-76.7-1.24-0.71-.92-1.24-2.19-2.81-1.44l0.05,0.06c0.29-1.16-.13-1.6-1.3-1.29l0.07,0.08c0.71-2.28-1.16-2.66-2.51-3.42-3.05-5.78-7.93-10.8-7.55-18,1.51-.36,4.17-1,2.05-2.69-3.51-2.79-4.74-6.62-6.46-10.26-0.89-1.9-2.1-2.16-3.86-1.94-5.48.68-8.39-2.5-6.86-7.63,3.07-10.29,6.25-20.55,9.39-30.83l5.44,0.3c5.11,3.71,9.44,4.93,14.21-1.32,3.18-4.17,8.45-3.78,13-.79,0.49,0.32,1,1.22,1.31,1.12,6.85-2.41,12.42,2.31,18.64,3.36,2.62,0.44,6.63-1.54,7,4,0.13,1.72,2.58-.38,3.9-1l2.44,0.47,1,1.27c0.79,2,1.8,3.21,3.79,1.1l0.06-.09,0.48-.31-0.07-.53,2.17-3,4.9,1.34,0.17,0.14,0.86,0.75c3.41,1,6.82,1.74,10.15-.25,1.44-.95,2.63-2.84,4.74-1.15,1.91,1.53,4.08,1.42,5.38-.44a4.65,4.65,0,0,0-.51-6.19c-1.86-1.71-2.49-2.65-.21-4.62,1.9-1.64,3.36-3.87,6.16-2.29,2.22,1.25,2,3.21.94,5.29-1.56,3.11.93,6.8,2.58,6,6.91-3.34,4.35,3,5.76,5.38C316,240.3,314.9,234.83,318,232.31Zm-37.08,72.58c-1.36-3.62-2.55-7.31-4.14-10.83-0.69-1.52-1.82-1-2.66.36-1.89,2.95,1.82,11.42,5.26,11.87C280.76,306.47,281.85,306.23,280.95,304.89Z"/><path class="cls-14" d="M196.88,233.62c-3.14,10.27-6.32,20.54-9.39,30.83-1.53,5.13,1.38,8.3,6.86,7.63,1.76-.22,3,0,3.86,1.94,1.72,3.65,2.94,7.47,6.46,10.26,2.12,1.68-.55,2.34-2.05,2.69-4.31-7.26-14.1-7.51-18.61-14.54-0.75-1.17-2.1-1.06-3.33-1-1,.08-2.53.62-3,0.15-6.55-7-9.35.2-13.14,3.41-1.28,1.09-2.57,2.61-4,.79-1.09-1.34.17-2.66,1.26-3.62s2.26-1.74,3.37-2.63c0.85-.68,1.52-1.68,1-2.64a2,2,0,0,0-3.18-.37c-2.88,3.45-7.15,5.8-8.56,10.43-0.41,1.35-1.74,2.69,1,3.64,2,0.7,1.12,2.71-.09,4s-3.09,2.16-4,.08c-1.51-3.59-3-1.44-4.4-.27-5.27,4.26-10.75,8.09-17.5,9.65-1.81.42-4,1.06-4.73-1.23-0.87-2.74,1.71-2.58,3.38-3.07a42.6,42.6,0,0,0,14.14-7c1.42-1.09,3.13-2.7,2.37-4.59-0.94-2.32-3.49-2.06-5.37-1.41-2.48.86-4.48,1.84-3.79-2.27a1.45,1.45,0,0,0-1.26-1.74c-2.73-.72-5.19-1.43-1.21-4.21,2-1.39-3.54-2.12-.22-5.16,2.93-2.68,4.64-5.17,9.11-4.66,3,0.34,4.37-2.07,4.4-5.68-4,1.51-7.92,6-10.82-.27-0.6-1.31-2.51-3.59-.75-4.17,2.58-.85,4.4-3.93,7.6-2.85,1,0.32,1.79,1.2,2.73,1.28,2.08,0.17,5.41,1.36,5.8-1.24,0.45-3-2.85-1.64-4.62-1.86-2.56-.33-4.83-1.18-5.83-3.75-0.51-1.32-.19-4,0.82-3.67,6.21,1.83,8.81-5.17,13.93-5.31,2.79-.07,3.29-2.89,5.84-3.64,4.22-1.24,7,1.79,10.7,1.84,7.75,0.1,15.27,2.79,23.12,2.25C195.41,231.57,196.17,232.92,196.88,233.62Z"/><path class="cls-25" d="M208.15,313a0.43,0.43,0,0,0,.6-0.41c1.21-1.93-4-5.22,1.35-6.27a3.66,3.66,0,0,0,2.56,2.12l-0.07-.08a1.18,1.18,0,0,0,1.3,1.29l-0.05-.06c-0.43,2-1.69,2.61-3.59,2.21C209.1,311.37,208.35,311.68,208.15,313Z"/><path class="cls-14" d="M306.83,329.18c-0.9,1.81-3.68,3.64-.61,5.59,2.28,1.45,3.77-.6,5-2.24,1.77-2.47,3.68-4.34,7.07-3.51,1,0.25,2.33,0,2.47-1.18,0.74-6.37,5.25-4.87,9.18-4.49,2.47,0.24,4.35-.06,5-3,0.58-2.68,1.76-5.35,5.21-4.76,3.89,0.67,1.44,4,2.13,6,0.2,0.58.39,1.15,0.58,1.73a1.52,1.52,0,0,0,0,1.05,7.32,7.32,0,0,1-3.91,2.57c-3.25.84-7.94,1.15-4.06,6.81,1,1.52-1,2.87-2.84,2.79-7.9-.34-7,9.33-12.84,11.29a2.62,2.62,0,0,0,.31,1.61c5.22,5.71-.91,7-3.81,8.33-11.4,5.2-12.44,7.33-9,19.46,0.77,2.71,2.77,5.64.88,8.7a1.87,1.87,0,0,1-1.69.08c-3.27-1.72-4.07-4.84-4.45-8.17-0.6-5.31-9.14-10.64-14.1-8.75a3.12,3.12,0,0,0-1.81,1.41c-0.58,1.82,0,4.14-3.23,4.12-3.48,0-1.51-3.82-3.41-4.68-1.82.17-1.24,4.25-3.2,2.51-4.09-3.63-5.26.34-7.09,2.22a20.51,20.51,0,0,0-4.78,8.41c-4.4-1-5.13-4.64-6.16-8.25-0.6-2.1-.67-6.22-4.77-2.31-2.21,2.1-3.76.05-4.47-2-1.73-5-3.27-9.72-9.55-3.86-1.13,1.05-3.51.77-5.32,1.1l-1.83.23c-0.75-.25-1.51-0.55-1.93.49h0c-1.08-6-4.81-8.22-10.66-7.32C205,350.59,202,336.56,211,321c1.93-3.33-.26-5.16-0.7-7.68v0c2.47-1.16,3.91,1,6,2.32l0.39-4.65c25.57,0.07,51.17-1.16,76.7,1.24a4.69,4.69,0,0,1-3.19,2.56c-1.23.44-3,.65-2.73,2.64a2.09,2.09,0,0,0,1,1.41c1.66,0.74,2.77-.52,3.61-1.53,4.42-5.32,6.62-1.66,8.85,2.07-1.85.51-5.39-.27-5.17,1.87,0.44,4.31-3.62,8-1.31,12.25a2.19,2.19,0,0,0,3,1.16c1.22-.52,2.41-1.66,1.63-2.77-3-4.31-2-7.52,2.06-10.35,0.27-.19-0.22-1.49-0.36-2.28,2.66,0.33,5,1.49,3.76,4.47S306,327.45,306.83,329.18Z"/><path class="cls-19" d="M219.09,361.13c5.85-.9,9.58,1.28,10.66,7.32-2.07.76-3.18-3.64-5.1-1.31-1.72,2.09.09,4.43,1.6,5.94,3.84,3.84,5.06,9.22,8.32,13.37a5.81,5.81,0,0,1,1.26,5.7c-0.4,1.16-1.59,1.24-2.56.73-2.24-1.18-4.94-3.24-4.25-5.42,1.52-4.84-1.49-6.07-4.55-7.75-1.78-1-3.7-1.79-1.12-4.28,1.19-1.15-.41-2.65-1.4-3.6C218.8,368.81,218.37,365.14,219.09,361.13Z"/><path class="cls-26" d="M260.12,505l1,0.42a0.75,0.75,0,0,1-1.4.55Z"/><path class="cls-16" d="M453.5,223.79l0.28,1.5c-1.17,1.26-2.38,2.34-4.25,1.32-0.83-.86-1.63-1.77-2.51-2.58-1.48-1.36-3.15-1.86-4.87-.52a2.9,2.9,0,0,0-1.22,1.92c0.15,2.37,2.31,1.58,3.67,2.12s2.92,1.35,4.6,1c1.32,1.39.12,2.48-.44,3.65-5.82,3.34-11,9-18.82,5.41-0.81-.37-1.59.59-1.71,1.37-1.3,8.3-8.25,8-14,8.79-3.46.5-3.57,1.92-4.39,4.86-1.56,5.6-4.4,10.9-7.22,16.05-1.13,2.06-3,1.62-5.55.23-9.87-5.31-10.15-15.62-13.61-24.22-1.23-3.06-1.17-6.6,3.2-7.89,2.43-.72,3.92-2.18,3.6-4.88-0.36-3-3-2.81-5.25-3.36,0.83-1.64,4.24-1.84,2.72-4.42-1.72-2.91-2.35.47-3.53,0.82-1.69.5-2.15-.57-2.18-1.95a23.6,23.6,0,0,0,0-4.26c-2.8-13.13-3.62-15.33-16.11-14.74-2.82.13-5.71,0.6-8.47-.52-1.34-.55-2.85-1.23-2.71-2.9,0.18-2.16,2-1.38,3.33-1.43,1.6-.07,4.21,1.16,3.94-1.88-0.2-2.22-2.56-1.41-4.06-1.4s-3.23.37-4.85,0.46a1.6,1.6,0,0,1-1.9-1.14,1.51,1.51,0,0,1,1.6-2c5.06,0.33,7.67-5.36,12.7-5.07a1.89,1.89,0,0,0,1.51-.86c0.64-7.19,9.58-6.4,11.64-12.17,3.86,0.56,7.63-3.62,11.54-.2l0.72,0.79,0.42-.88c0.93-1.9,2.61-1.28,4.13-1.25,0.4,1.69-.69,4.63,2.31,4.34,2.44-.24,1.09-2.77,1.27-4.32a0.48,0.48,0,0,0,.29-0.58c3.4-1.15,6.35-.66,8.49,2.76,0.8-3.41,2.58-3.4,8.09-4.72,10.29-2.47,20.58.26,30.8-1.08a36.12,36.12,0,0,1,5.56.24c-2.29,1.1-4.31.7-5.49,2.17-5.11-.59-9.7,1.21-15.81,2.27,4.17,2.36,6.49.28,9,0,2-.2,3.94-2.61,5.85.15,0,1,.07,1.73,1.2.69h0.13c2.46-.2,5-1.94,7.21,1,1.07,1.4,3,.8,4.57.46,3.36-.72,6.71-1.46,10.1-2,1.86-.31,4-0.19,4.34,2.14,0.34,2.11-1.75,2.67-3.21,3-3.55.7-6.37,3.65-10.29,3.18-1-.12-2.64.9-1.84,1.55,5.63,4.51-.6,4.17-2.21,5.52-1,.82-2.09,1.46-1.65,2.87s1.2,2.53,3.1,1.87,3.33-.09,3.95,1.75c0.52,1.55-.5,2.85-1.66,3.66-3,2.09-4.32,3.46.39,5.33,3.89,1.54,1.42,4.54-.44,5.34-3.69,1.58-5.64,5.07-8.94,6.93-1.29-.56-2.63-2.77-4-0.75-1.46,2.23,1.08,2.27,2.3,3s2.7,1.59,4,2.38Z"/><path class="cls-19" d="M547,193.26c0.54,2.07,1,4.28-1.92,4.73-2.11.33-4.5,0.85-6.12-1.38-0.72-1,.21-3.44-2-3-1.8.37-2.91,2-3.27,4-0.27,1.46.73,3.58-1.49,4.11s-2.48-1.78-3.29-3c-2.41-3.57-6.86-4.72-9.29-8.19-1.72-1.91-2.13-3.74-.17-5.87s2.87-.66,4.37.58,12.41-1.51,13.75-3.09c0.91-1.07,2.25-1.66,3.22-1.13,3.82,2.06,8.29,1.24,12.47,2.65-6.2,6.82-8.75,7.14-15.91,2.3-1.36-.67-1.07.26-1,1l0.52,1.45a0.53,0.53,0,0,0,.51.71C539.73,192.63,543.95,191.6,547,193.26Z"/><path class="cls-23" d="M618.32,227.48c-4.32,2.22-7.15.85-10-3s-1.65-6.48.64-9.25c2.08-2.51,2.24-5.6,3.33-8.4,6.81-3.82,15.5-2.58,21.74-8.28,1.43-1.31,4.89-1,5.7,1.53s-1.68,3.31-3.74,3.77A36.73,36.73,0,0,0,618.38,213c-3.94,3.71-6.2,7.78-.68,12.21C618.19,225.64,618.13,226.72,618.32,227.48Z"/><path class="cls-23" d="M680.42,182.13c6.41-6,7.5-5.41,12.92.17,2.59,2.67,6.4,4.07,7.08,8.37C692.18,191.5,686.05,187.39,680.42,182.13Z"/><path class="cls-23" d="M701.07,191.93c1.82-1.64,1.17-6,6.21-4.06,4.71,1.82,4.64,3.42,1.76,6.55C706.2,194.19,702.68,196.12,701.07,191.93Z"/><path class="cls-22" d="M445.75,174.78c-1.91-2.76-3.86-.35-5.85-0.15-2.48.25-4.81,2.33-9,0,6.11-1.06,10.71-2.86,15.81-2.27l0.34,3.15h-0.13Z"/><path class="cls-22" d="M452.87,222.56c-1.35-.8-2.68-1.62-4-2.38s-3.76-.74-2.3-3c1.33-2,2.66.18,4,.75C452,219.1,453.25,220.42,452.87,222.56Z"/><path class="cls-22" d="M537.45,189.15a0.53,0.53,0,0,1-.51-0.71A2,2,0,0,1,537.45,189.15Z"/><path class="cls-22" d="M536.43,187c-0.1-.74-0.39-1.67,1-1Z"/><path class="cls-23" d="M798,207.43a3,3,0,0,1-3,2.65,78.29,78.29,0,0,1-11.68-1.21c-2.26-.44-4.23-2.17-3.21-4.86s3.36-1.76,5.17-.95c2,0.92,3.64,1.54,6.11.45C794.81,202,795.66,206.35,798,207.43Z"/><path class="cls-23" d="M801.12,204.31c2.75,0.22,5,1.67,7.67,1.32a2.17,2.17,0,0,1,2.58,2.54,2.3,2.3,0,0,1-2.79,1.75C805.54,209.12,801.63,209.29,801.12,204.31Z"/><path class="cls-13" d="M842.94,573.2c1.68,0.28,4.87-.1,4.26,3.14-0.5,2.63-.86,6.44-5.22,6.28-2.52-.09-4.34-1-4.34-3.93C837.63,575.36,838.68,573.07,842.94,573.2Z"/><path class="cls-25" d="M330.25,183.32c-4.64-.79-10.12-0.3-10.79-7.11h-0.05c1.82-.56,4.77,1.1,5-2.56,1-.23,2.24-1,2.91-0.59,4.33,2.3,7.64,3.37,11.16-2.06,1.36-2.09,5.74,2.13,9.29,1.81,1.43-.13,2.7.74,4.33-0.5,4.82-3.67,18.58-2.79,23.8,1.24-2.31,3.88-6.12,2.13-9.37,2.53-2,.25-4.65-0.65-3,3.63,1.29,3.32-7,8.91-10.78,7.35-1.92-.8-3.49-1.54-4.72.42-2.38,3.77-4.2,8-9.58,8.36a1.1,1.1,0,0,0-.61.88c2.18,10.6-6,6.67-10.65,7.53a34,34,0,0,1-5.46.15c-1.62-.79-3.3-1.49-4.85-2.41a2.34,2.34,0,0,1-1.21-2.58c0.36-1.41,1.55-.85,2.49-0.89,3.86-.13,5.77-3.48,8.6-5.31,1.73-1.12.88-2.34-.58-3.25-1.3-.81-2.41-1.94-1.11-3.42s2.56-.32,3.66.6c1.33,1.11,3.12,2.14,4.36.9s-1.72-1.85-1.5-3.36c3.29-.82,7.89,1.37,10.48-5C337.55,182.63,333.36,180.84,330.25,183.32Z"/><path class="cls-25" d="M273.92,217c3.24,3.59,4,8.94,8.24,11.81-3.34,1.09.49,5.61-3.13,6.57l-2.62.15a4.77,4.77,0,0,0-3.67-.34l-8.61-.38-3.68,0c-0.4,0-.81-0.11-1.21-0.15-3.27-.28-7.92,1.44-9.1-2.54-1.1-3.7,5.18-.86,5.8-4.27-1.9-1.36-5.55,1.22-6.29-1.7-0.94-3.72,4.57-.41,4.91-3.53l3.83-3.56a20.55,20.55,0,0,1,10.67-.18c0.13,1.35.21,3.41,1.82,3s0.53-2.7.93-4.11Z"/><path class="cls-25" d="M251.86,220.39c-3.76-.77-5.93,1.83-8.51,3.81-3.24,2.5-6.63,3.2-9.37-.88-0.43-.64-1-2-0.82-2.11,3.08-2.54,4.41-6.57,7.08-9.07,2.34-2.19,6.28-2.85,9.87.2,2.3,2,7.72.54,6.12,6.32Z"/><path class="cls-25" d="M311.92,178.37c3.09,0.15,5.1,2.19,7.2,4.1a6.89,6.89,0,0,1,1.86,8.28c-1.05,2.61-3.15,4.58-6,4.33-3.13-.27-6.06-1.34-4.81-5.8,0.37-1.33-1.38-.94-2.22-1.23-3.22-1.13-1.5-2.9-.59-4.57C309.88,182.68,309.61,179.38,311.92,178.37Z"/><path class="cls-25" d="M281.26,211.35l-2.35-1.27c-0.61-1-1.55-1-2.53-.81l-2.46,0c-2.44-.24-4.23,1.25-6.14,2.37a8,8,0,0,1-5.92.73c-1.6-.34-2.23-1.65-2.35-3.19-0.16-2,1.15-2.31,2.74-2.32,3.75,0,6.35-1.92,8.12-5.11l2.36-.53c2.58,1.89,5.2,3.72,7.71,5.7C281.89,208.1,283.43,209.43,281.26,211.35Z"/><path class="cls-25" d="M300.9,190.76c3.25,0.25,5.21,2,4,5.16-1,2.55-3.29,2.46-5.52.77-3.28-2.48-5.29,2.18-8.28,1.64l-2.47-1.49c0-.92.06-1.83-1.23-1.88-1.86-.54-4.69-0.42-4.24-3.23,0.5-3.13,3.48-1.94,5.54-2.12a4,4,0,0,1,3.72,1.74C295.64,196.21,298.32,194.64,300.9,190.76Z"/><path class="cls-25" d="M261.61,198.86a6.85,6.85,0,0,1-.15,1.24c-0.57,1.83-10.91,8-12.72,7.73a3.4,3.4,0,0,1-2.91-2.67c-0.52-1.66.37-2.63,1.85-3.26,3.51-1.5,7-3,10.49-4.59C260.09,196.41,261.25,196.68,261.61,198.86Z"/><path class="cls-25" d="M292.31,212.26c2.89,2.88-.39,6.77,1.71,10.17,0.73,1.18-2.93,3-5.13,1.65-1.66-1-2.85-2.73-4.86-3.39a2.29,2.29,0,0,1-.86-2c0.15-.83.95-0.85,1.88-0.58,6,1.76,2.11-2.42,2.42-4.1C288.68,212.32,290.59,212.55,292.31,212.26Z"/><path class="cls-25" d="M291.23,202.13c2.12-.51,4.52-0.29,5.15,1.78,1,3.23-2,4.71-4.07,6.47a6.33,6.33,0,0,1-5.7-2.9c-1-1.56-4.13-2.55-2.58-4.84,1.72-2.53,2.82.76,4.29,1.18S290.48,203.08,291.23,202.13Z"/><path class="cls-25" d="M266.55,194.47c-0.24-3.4,1.86-4.81,4.75-4.95,2.28-.11,4.45.62,3.86,3.78Z"/><path class="cls-25" d="M275,196.09a3.06,3.06,0,0,1-2.25,2.15c-1.74-.18-3.12.28-3.77,2.07-3.21.86-3.41-.5-2.16-2.93C269.38,196.09,271.94,194.59,275,196.09Z"/><path class="cls-26" d="M275,196.09c-3-1.49-5.59,0-8.18,1.29l-0.23-2.91,8.61-1.17Z"/><path class="cls-26" d="M399,173.54c-0.18,1.56,1.18,4.09-1.27,4.32-3,.29-1.91-2.65-2.31-4.34A3,3,0,0,0,399,173.54Z"/><path class="cls-26" d="M268.94,200.31c0.65-1.79,2-2.25,3.77-2.07l0,3-2.36.53Z"/><path class="cls-26" d="M324.4,173.64c-0.22,3.66-3.18,2-5,2.56C319.65,172.59,322.39,173.82,324.4,173.64Z"/><path class="cls-26" d="M271.81,217.79c-0.4,1.4.79,3.67-.93,4.11s-1.69-1.65-1.82-3Z"/><path class="cls-26" d="M273.92,209.32l2.46,0c-0.13.77-.23,1.69-1.21,1.72S274.06,210.09,273.92,209.32Z"/><path class="cls-26" d="M287.38,195c1.29,0.05,1.26,1,1.23,1.88Z"/><path class="cls-26" d="M391.3,174.78l-0.42.88-0.72-.79Q390.73,174.79,391.3,174.78Z"/><path class="cls-18" d="M711.27,391.43c-0.89.45-2.48,0.79-2.57,1.36-1.4,9.23-10.42,11.57-15.65,17.29-1.74,1.9-2.83,3.47-2,5.72,1.66,4.32.64,8.33-.85,12.36-1.51,1.17-1.7,4.25-4.27,3.69-2.73-.6-1.2-3.45-2-5.16-3.26-7.21-5.92-14.76-9.88-21.55-2.67-4.58,1-8.75-.81-12.89-6.22,4.69-7,4.34-11.71-5.24,0.37-.18.73-0.37,1.1-0.53,2.23-.93,5.7,1.92,6.86-1.88,1-3.28-2.23-3.84-4.15-5.11-0.93-.61-1.65-1.4-1.25-2.48a2.89,2.89,0,0,1,1.62-1.54c5.6-1.79,11.65-8.65,12.61-14.45,3.43-2.09,5.9-1.15,7,2.57,0.69,2.25,1.92,3.48,4.18,3.79,0.47,7.69,12,14.43,20.62,12l0,0c-0.75,2.75-2,5.42,1.36,7.66C713.16,388.15,711.82,390,711.27,391.43Z"/><path class="cls-18" d="M493.12,353.56c1.22-3.6,5.2-3.78,7.55-4.28,5.46-1.17,11.14-3.16,16.94-1.37,0,3.23,1.39,6.56-1.79,9.4-1.2,1.07-.34,3,1.34,3.92a7.61,7.61,0,0,1,3.38,4c0.68,7.53-3.95,16.31,5.17,21.83-6.31,4.67-10.72,11.89-18.87,14.09-6.76-7.59-15.15-13.19-23.3-19.1a12.83,12.83,0,0,0-5.22-6.1c4-4.16,9.62-5.72,13.58-11C495.53,360.06,497,358,493.12,353.56Z"/><path class="cls-15" d="M583.12,391.65c4.83,1,3.72,5.24,4.52,8.42-2.79,2.57-2.66,5.4-1.6,8.89,1,3.13,3.07,6.69.52,9.93-7.53,9.59-7.79,10.54-3.75,20.75a6.64,6.64,0,0,1,.24,1.2L580.71,444l-8.62.85c-1.75-4.62-6.48-4.08-9.94-5.76,0.26-6.82-8.44-7.95-9.08-14.22a5.23,5.23,0,0,0-1.16-.12c-1.19-5.58-2.19-10.75,4.37-14.42,1.92-1.08,2-5.34-1.85-6.79-0.46-3.78,4.71-5.23,3.79-9.2,5.3-4.84,11.12-4.29,17-1.35C578.34,394.58,581,395,583.12,391.65Z"/><path class="cls-25" d="M562.16,439.12c3.45,1.68,8.19,1.14,9.93,5.75,1,3.47.63,4.56-2.52,8a6.55,6.55,0,0,0-1.47,5c-2.35,4.19-1.74,7.1,3.49,8L571.35,477c-5.67,2.88-6.2,6.64-1.73,11.46,1,1.06,2.92,2.17,1.15,3.93-1.4,1.4-4.3,1.85-4.77.35-1.49-4.64-6.43-3.63-8.92-6.33-3.3-.67-5.06-2-5.13-6-0.1-5.42-3.13-6.41-7.55-3-2,1.5-4.6,1.66-4.83-.81-0.64-7.09-3.77-7.26-9-4.35-0.8.45-2.33-.39-3.51-0.64q-0.09-1.67-.19-3.35c8,1.06,11.61-4.39,13.7-10.49,1.24-3.61.34-8,.4-12,2.16-1.85,3.38-7.33,7.48-1.91a2.28,2.28,0,0,0,2.17.11C553.57,440,558.57,441.26,562.16,439.12Z"/><path class="cls-19" d="M600.41,408c-2.23-6.32-8.57-10.44-9.4-17.52a3.69,3.69,0,0,0-1-2.17c-4.94-4.49-6.38-11.58-11.74-15.75a2.68,2.68,0,0,1,1-.48c4.65,0.55,8-.6,8.57-6,0.14-1.27,1.37-2.42,2.11-3.63,5.77-.66,9,3.09,11.83,7.14,2.63,3.77,5.56,5.1,9.67,2.45,3,4.5,7.73,7.63,10.26,12.53-1.19,6.63,3.21,6,7.38,5.67,1.06,2.16,4.5,3.2,2.82,6.67-1.5,3.1-4,3.71-7.05,3.66a4.88,4.88,0,0,0-1.68.67,9,9,0,0,0-2.91-.58c-4.66.68-5.81,5.83-8.78,7.5C609.32,409.37,604.47,404.13,600.41,408Z"/><path class="cls-17" d="M558.22,394.36c0.93,4-4.25,5.42-3.79,9.2-1.1.23-1.74-.44-2.61-1-6.07-3.91-10-10.91-17.87-12.23-2.95-.58-6.55.53-8.24-3.25-9.12-5.52-4.5-14.3-5.18-21.83,2.37-.72,4.38-1.87,5.27-4.38,5.44-1.45,9.61.93,13.38,4.45,1.63,1.52,3.81,2.92,4.74,0,2.25-7,5.71-8.38,11.43-3.63a6.17,6.17,0,0,0,1.66.69C556.85,373.08,554.66,383.82,558.22,394.36Z"/><path class="cls-15" d="M646.35,381.78a46.13,46.13,0,0,1-6,.82c-5.41.06-6.13-.62-7.61-6.31-5,4.13-9.79,3.12-13.83-3.34-1.34-2.14-2.22-4.28-5.18-4.15-0.8-3.84-2-7.36-5.7-9.56-1.11-.67-2.73-1.82-1.92-3.36,2.73-5.2-2.67-8.11-3.22-12.34-0.51-1.9-2.21-3.5-1.51-5.72,2.14,1.51,3.68,4.22,6.94,3.49,1.29-.51,2.53-1.24,4-0.81-0.82,3.53,1.07,5.66,3.81,7.36,3.17,2,5.7.62,8.09-1.51,10.29-2.61,14.44-1.14,17.78,6.31-3.16,7.34,3.73,12.85,3.59,19.64a1.41,1.41,0,0,0,.52.25C649.09,375.56,649.88,378.62,646.35,381.78Z"/><path class="cls-25" d="M317.95,230.81c-2.4.12-6.05,1.74-4.06-3.39,0.49-1.27-.13-1.9-1.25-2.21-3.31-.92-2.18-3.53-1.87-5.52a6.83,6.83,0,0,1,4.61-5.29c1.87-.69,3.36,0,2.33,2.48-0.42,1-2,1.72-.12,3.65,3.34-2.8,5.57-8.37,11.47-6.44,1.31,2.78-2.63,3.94-2.05,6.71,2.13,1,2.67-1.08,3.71-2,3.24-2.78,7.08-2.64,9,.57,2.64,4.37,6.65,5.59,10.7,7.45,3,1.38,7.6,2.18,2.87,7.54-2.35,2.67.93,4.54,4.05,5.49,3.57,1.09,9.35,1,6.37,7.75-0.55,1.26-.52,2.93-2.44,3.06-1.67.11-2.58-.92-3.32-2.24-1.17-2.07-1.79-4.76-4.92-4.77-1.21,0-1.71.9-1.92,2-0.62,3.19,1,4.78,3.79,6,2.39,1.08,2.68,3.52,2.2,5.82-0.57,2.75-2.81,1.56-4.5,1.6l-1.12-1.32c-0.27-.64-0.49-1.68-1.39-1-0.69.56-.12,1.33,0.53,1.81l1.25,1.21c0.71,2.61.25,4.41-2.82,2.81a17.81,17.81,0,0,1-5.08-4.31c-3-3.48-5.77-6.29-10.8-3.32-2.2,1.3-4.79.62-5.16-2.24-0.34-2.63,2.1-3.1,4.22-3.23,1.22-.08,2.51.25,3.66,0,4.58-1.12,7-4.13,6.56-8.87-0.37-4.15-10.51-11-14.63-9.89a6.08,6.08,0,0,1-4.62-.82C321.26,229,319.33,228.32,317.95,230.81Z"/><path class="cls-21" d="M577.69,533.84c-3.21,5.46-7.3,10.23-11.39,15-2.85,3.34-7.88,1.67-10.63,5-3.35-3.16-6.08-.33-9.21.67-2.92.93-7-.48-6.21-3.61,1.14-4.78-.95-7.73-3.1-11.09a6.11,6.11,0,0,1-.56-4.71c0.78,0.18,1.78.11,2.29,0.58,4.11,3.72,5.85,2,6.51-2.65a7.29,7.29,0,0,1,1.11-2.13c2.12,0.5,4.47,1.54,5.6-1.4a2.41,2.41,0,0,1,3.27-1.69c4,1.14,5.87-1.47,7.65-4.12,1.33-2,2.6-3.88,5-4.68l4.78,0.08c0.24,2.75,1.75,6.5.51,8.09C567.43,534.74,573.19,533.69,577.69,533.84Zm-14,8.84c2.43-.17,4.3-1.11,4.59-3.76,0.14-1.25-.53-2.8-1.88-2.42-2.22.63-4.54,1.79-5.13,4.29C560.95,542.21,562.38,542.69,563.7,542.68Z"/><path class="cls-18" d="M583.06,440.83a6.79,6.79,0,0,0-.24-1.2c-4-10.22-3.78-11.16,3.75-20.75,2.54-3.24.43-6.79-.52-9.93-1.06-3.48-1.19-6.32,1.6-8.89A148.72,148.72,0,0,1,599,418.36c-0.61,3.24-4.14,7.88,3.45,7.2,0.56,3.92,2.89,5.49,6.75,5.28,1.94-.11,4.64.94,3.61,2.73-2,3.39-1.11,9.92-8.29,8.7-1.84-.31-3.9.74-5.86,1.17-0.78-.16-1.92-0.74-2.27-0.43-3.49,3.07-6.46,3.62-9.32-.91C586.48,441.2,584.43,441.23,583.06,440.83Z"/><path class="cls-18" d="M527.06,471.47c1.19,0.24,2.71,1.08,3.51.64,5.23-2.91,8.35-2.74,9,4.35,0.22,2.47,2.85,2.32,4.83.81,4.43-3.36,7.46-2.37,7.55,3,0.07,4,1.83,5.37,5.13,6-0.26,2.6,0,5.16-4.12,5.23-4.59.08-4.87,3.53-3.63,7,0.74,2.05,2.15,3.86,3.26,5.78a6.3,6.3,0,0,1-4.05,1.61,21.44,21.44,0,0,0-16.05-3.69c-2.37.37-4.87,0.31-6.92-1.42a6.21,6.21,0,0,1,1.61-5.07c5.78-6.83,4.69-13.46-.13-20.2C526.17,474.37,526.55,472.84,527.06,471.47Z"/><path class="cls-13" d="M558.22,394.36c-3.56-10.53-1.37-21.28-1.19-32,7.12,2.21,14.61,1.8,21.85,3.13l0.45,6.5a2.69,2.69,0,0,0-1,.48c-1.21-.23-3.5-2.45-2.65,1.21a11,11,0,0,0,2.56,4.11c3.35,4,6.64,8,4.9,13.81-2.16,3.31-4.78,2.94-7.92,1.36C569.34,390.07,563.53,389.51,558.22,394.36Z"/><path class="cls-18" d="M544.73,255.54c-9.8,2.29-10,2.38-5.69,11.8,1.17,2.55-.52,4.57-1,5.91-1.45,4.52-3.58,9.16-7.54,12.36-1.79,1.45-3.1.33-3.81-1.35-1.34-3.13-2.49-6.34-3.72-9.52,0.47-2.92,5.27-4.81,4-6.86-3.56-5.92-1.34-10.57.73-16.13,3.47-9.29,9.33-14.62,19.23-15.44a12.06,12.06,0,0,1,2.8,10.31c-4.92,1.17-5.29,4.93-5.11,9Z"/><path class="cls-15" d="M547,236.32c-9.89.82-15.76,6.15-19.23,15.44-2.08,5.57-4.3,10.21-.73,16.13,1.23,2-3.57,3.94-4,6.86a7.53,7.53,0,0,0-6.86,1.27c-3.26,2.46-5.55,2-5.81-2.69-0.15-2.66-.12-4.72-2.86-7.19s1.6-5.91,4.5-6.89a21.41,21.41,0,0,0,14-13.59c1.83-4.91,6.86-6.32,10.21-9.55l-0.09.09c6,0.64,7.12-.92,6.28-7-0.34-2.43,2.63-2.78,3.95-2.27,2.53,1,4.11,1.3,5-1.82a1.69,1.69,0,0,1,2.56-.79c4.4,2.93,11.06,1.33,14.06,7-2.62,1.67-5.51,3-7.12,5.88-1.71-.76-1.38-2.29-1.36-3.68s-0.16-2.53-1.61-2.91-3.35.28-3.5,1.64C553.78,237.33,549.85,235.72,547,236.32Z"/><path class="cls-16" d="M478.32,376a12.83,12.83,0,0,1,5.22,6.09c-0.34,2.68-6.72,4-2.78,7,3.52,2.72,2.27,4.87,1.73,7.78-0.72,3.84-2.73,7.83.38,11.56,1,1.26,2.44,2.53,1,4.18s-3,.42-4.56.24c-3.57-.41-7.11-3.94-10.72-0.1-4.3.59-5.49-4.74-9.39-4.92,0.28-4.2-3-8-1.28-12.4,2.3-.15,5.78,1.12,6.32-1.86,0.76-4.21,8.38-5.42,4.65-11.43-0.49-.79,1.38-2.62,3-2.19,3.7,1,4.35-1.93,5.72-4l0.35,0Z"/><path class="cls-14" d="M601.39,337.82c-0.7,2.22,1,3.82,1.51,5.72-1.34,3.63-4.53,4.5-7.81,5.25-4.86-1.61-9.67-2.7-13.95,1.42-5,1.21-9.66-1.51-14.89-.58-3.47.62-5.33-4.18-5.48-7.57-0.17-3.94,1.32-7.85,5.87-8.77,3-.6,5.94-1,8.74-2.29,2.45-1.15,4.5-.21,6.71,1.31a11.77,11.77,0,0,0,13,.71l3.06,0.12C598.3,335.35,600.86,335.89,601.39,337.82Z"/><path class="cls-20" d="M570.74,294.93c9.85,0,17.72,9.39,16.38,19.61-2.13.46-4.29,0.82-6.38,1.41-2.49.7-4.14,2-2.07,4.72,0.73,1,2.08,1.65.44,2.78a7.4,7.4,0,0,1-5.83.86c-2.35-.5-1-2-0.57-3.23,0.85-2.3.64-4.91-1.66-5.78-3.11-1.18-2.57,2.07-3.26,3.71-2.49-3.14-3.14-9.35-9.65-5.78l-8.08-.89L549.41,309,549,306.18c3.17-.83,3.17-3.74,4-6.11a39.16,39.16,0,0,0,6.54.25C563.86,299.79,569.25,301.29,570.74,294.93Z"/><path class="cls-23" d="M324.58,421.38a7.88,7.88,0,0,1,8.12,2.37c2,4.75,6.28,5.2,9.62,3,5.38-3.51,7.66-2.14,8.92,3.5a8.57,8.57,0,0,0,1.18,2.12c0.24,1.24.31,2.69-.67,3.42-3.56,2.65-2.51,5.4-.48,8.29a3.24,3.24,0,0,1-3.09,1.53c-3.95-.13-7.63-0.95-6,5.79,1,4-3.17,3.13-5.53,2-1.76-.81-2.8-3-5-3.13-0.35-2.38,1.79-3.5,2.62-5.27,1.07-2.29,1-4.2-1.84-5.41C319.94,434.31,320,434.27,324.58,421.38Z"/><path class="cls-16" d="M525.56,500.85c2,1.73,4.54,1.79,6.92,1.42a21.44,21.44,0,0,1,16,3.68c-1,4.72,1.28,10-3.35,14.17-1.24,1.1-1,4.4.56,6.3a4.12,4.12,0,0,1,.77,4.5A7.35,7.35,0,0,0,545.4,533c-0.66,4.7-2.4,6.38-6.51,2.65-0.52-.47-1.52-0.4-2.29-0.58-3.57-2.53-5.1-5.87-4.28-10.26a13.12,13.12,0,0,0-3.6-11.68A12.77,12.77,0,0,1,525.56,500.85Z"/><path class="cls-23" d="M492.06,327.47c1.1-5.31,3.57-10.86-3.79-14.06-1.8-.78-1.64-2.79.33-3.73,5.39-2.58,10.81-5.1,15.76-8.48,2.62,1.75,2.75,8.51,8.39,4.17,3.66,1.06,2.22,4.23,2.72,6.6-3.36,1.61-4.2,3.94-2,7.13-3.87,3.67,2.12,4.37,2.07,6.89-0.66,1-1.84,2.82-1.89,2.79-5.19-3.13-7.73.82-10.61,3.85C500.76,328,495,330.75,492.06,327.47Z"/><path class="cls-18" d="M577.69,533.84c-4.5-.15-10.25.9-4.39-6.63,1.24-1.6-.27-5.34-0.51-8.09,1.67-1.32,1.28-3.63,2-4.94,3.19-5.81,3.74-10.82-1.7-15.45,2.54-.68,2-4.3,4.6-4.89,2.18,1.32,3.92,2.93,3.91,5.77,0,0.75.09,1.74,1.21,1.75a2.3,2.3,0,0,0,2.17-1.83c0.75-2.22-.59-3.93-1.6-5.68-1.64-2.83-2.72-5.59.54-8.08,0.76,1.88,2.61,3.63,4,2.24,2.29-2.29,5.65-1.93,7.77-4.09,3.66,5.43,1.8,13.75-2.91,17.31-3.87,2.92-7,6.9-10.17,10.64-1.37,1.6,0,3.17.82,4.89,2,4.2,2.4,8.27-3.49,9.93C575.61,527.89,579.13,531.66,577.69,533.84Z"/><path class="cls-13" d="M595.7,483.91c-2.13,2.16-5.48,1.8-7.77,4.09-1.4,1.39-3.25-.36-4-2.24-1.24-1.72-2.63-3.26-4.82-3.77a23.15,23.15,0,0,0-7.74-5q0.12-5.55.23-11.1c3-1.68,1.37-4.16,1.09-6.4,1.34-3.1,6-1.16,7.07-4.61,0.35,1.44,1,2.82,2.46,3.24,4.92,1.38,7.92,5.4,11.7,8.33C593.21,472.38,594.8,478.11,595.7,483.91Z"/><path class="cls-23" d="M547,236.32c2.84-.6,6.76,1,7.33-4.06,0.15-1.36,1.94-2,3.5-1.64s1.63,1.61,1.61,2.91-0.35,2.92,1.36,3.68c0.77,6.36.28,13,5,18.36,1.94,2.2,1.5,4.54-1.21,6.11a16.05,16.05,0,0,0-6.65,7.73c-2.05-.23-4-0.16-5.72,1.29-7-1.68-8.72-5.06-7.54-15.16l0,0.08c2.54,0.26,3.93-1.86,5.81-2.92,4.31-2.44,3.25-4.48-.7-6.08A12.06,12.06,0,0,0,547,236.32Z"/><path class="cls-23" d="M646.35,381.78c3.53-3.16,2.74-6.22-.22-9.22,1.28-1,2.69-2.06,4.34-1.86,3.67,0.44,6.24-.53,7.24-4.43a2.39,2.39,0,0,1,1.73-1.43c5.33-.07,6.48-5,6.55-7.92,0.16-6.48,3.25-6.3,7.71-5.2-0.4,4.08-1.05,8.28,4.65,9.31-1,5.8-7,12.67-12.61,14.45a2.89,2.89,0,0,0-1.62,1.54c-0.4,1.08.32,1.86,1.25,2.48,1.93,1.27,5.15,1.84,4.15,5.11-1.16,3.8-4.63,1-6.86,1.88-0.38.16-.74,0.35-1.1,0.53C657.79,381.51,651.17,384.27,646.35,381.78Z"/><path class="cls-13" d="M515.45,443.12c-3.32.64-6.05,0.27-6.2-4-0.14-4-3.58-2.82-5.68-3.76-0.07-1.73-1.08-3.88.46-5.08,3.74-2.89,3-6.47,2.19-10.19,0.45-3.21,2.26-4.25,5.48-4.12,5.69,0.22,11.4,0,17.1,0l2.41,1.42a40,40,0,0,1-9.1,18C519.89,437.95,516.83,439.8,515.45,443.12Z"/><path class="cls-15" d="M621.29,496.06c1.77,3.1-2.76,3.25-2.73,6.37,0.06,5.3-5.16,9.66-4.09,15.53,0.54,3-1.48,5.09-3,6.92-1.25,1.51-4.21,2.95-5.81,2.46s-2.49-3-3.08-5.6c-1-4.25-1.16-7,2.67-9.45,1.15-.74.73-2,0.09-3.22-3-5.92-1.47-8.28,5.22-10.46,3.09-1,4.08-4.64,5.08-7.71,0.39-1.2-.5-3.26,1.66-3.39s1.86,1.77,2.16,3.08C619.9,492.48,622.56,493.59,621.29,496.06Z"/><path class="cls-19" d="M492.06,327.47c2.92,3.28,8.69.49,11,5.16-2,3.33-8.61,4.38-5.1,10.4-2.62,1.42-3.36,5.39-6.72,5.54-3.56.16-8,3.39-10.35-2.25,0.16-3.38-.36-7,0.64-10.09,1.52-4.7-1-4.66-4.11-4.6-1.06-1.59-3.08-3.1-1.07-5.18,1.65-1.7,4.46-2.55,6-1.38C485.44,327.33,488.9,326.48,492.06,327.47Z"/><path class="cls-23" d="M598.64,443.44c2-.43,4-1.48,5.86-1.17,7.18,1.22,6.34-5.3,8.29-8.7,1-1.78-1.68-2.83-3.61-2.73-3.86.21-6.19-1.36-6.75-5.28l1-2c5.14,4,10.06,1.55,14.49-1.11,2-1.2,3.08-1.39,4.68-.06s1,2.65.39,4.31c-4.94,13.14-13.55,23.45-24.33,32.15C594.32,453.77,597.27,448.6,598.64,443.44Z"/><path class="cls-21" d="M478.32,376l-0.35-.07-0.35,0c-1.21-2.83-3.86-2.23-6.11-2.56a71.73,71.73,0,0,0,1.47-7.12c0.41-3.81.72-7.52,5.73-7.94a0.82,0.82,0,0,0,.56-0.2c2.27-8.72,8.67-4.8,13.86-4.55,3.9,4.41,2.41,6.51-1.22,11.38C487.94,370.24,482.34,371.8,478.32,376Z"/><path class="cls-23" d="M488,300.08c-1.86-3.1-1.86-5.68,2-7.79,1.46-.8.94-2.3-0.5-2.66-6.13-1.55-4.77-9.05-9.44-11.75-0.22-.13.05-1.11,0.1-1.69,3.45,2.17,5.59-2,8.63-1.79-0.58,3.47,6,1.73,4.57,7.33-0.86,3.39,3.36,8.51,6.12,12.24,2.95,4,2.55,7.5-2.12,9.18-2.85,1-6,.85-8.77,2.46-1.33.78-3.33,2.85-4.55,0.09-0.93-2.09,1.24-3.12,2.61-4.29C487.22,300.9,488.5,301.44,488,300.08Z"/><path class="cls-23" d="M515.45,443.12c1.38-3.32,4.44-5.17,6.67-7.74a40,40,0,0,0,9.1-18,7.38,7.38,0,0,1,2.21,8.69c-1.84,4.56.34,6.72,3.78,8.64-4.75,3.78-1.86,7.37.25,11-1.55,3.43-4.75,2.07-7.33,2.51-2.75-.36-5,0.73-5.76,3.26s-2.42,2.82-4.57,2.55c-0.14-.57-0.6-1.36-0.38-1.67C523.28,447,520.08,444.78,515.45,443.12Z"/><path class="cls-13" d="M595.09,348.78c3.28-.75,6.47-1.62,7.81-5.25,0.56,4.23,6,7.14,3.23,12.34-0.81,1.55.81,2.7,1.92,3.36,3.66,2.2,4.9,5.72,5.7,9.56-1.08.83-2.4,1.49-2.25,3.19-4.1,2.65-7,1.32-9.67-2.45-2.83-4.05-6.06-7.8-11.83-7.14l-1.27-1.66C593.27,358,596.85,354.83,595.09,348.78Z"/><path class="cls-21" d="M553,300.08c-0.84,2.36-.84,5.27-4,6.1l-9-.54c-2.07-3-6.29-2.41-8.61-5-1.15-3.37-2.58-6.68-2.44-10.35,4.39-4.06,9.76-.85,14.54-2l5.93,4.46C549,296,552,297.54,553,300.08Z"/><path class="cls-14" d="M528.95,290.27c-0.14,3.68,1.29,7,2.44,10.35-2.71-.16-6-0.09-7.16,2.24-1.33,2.64,2.31,3.73,3.63,5.61,0.23,0.33.42,0.69,0.63,1-2.45,1.89-4.34,4.85-8.09,4.3-1.09-2.06-3.22-1.36-4.9-1.83-0.5-2.37.94-5.53-2.73-6.59,0.37-2.18-2.69-3-2.09-5.29,3-1.23,4.89-3.29,5.08-6.66l2.42-4.76,2.48-.38C523.12,290.2,525.53,292.36,528.95,290.27Z"/><path class="cls-14" d="M598.64,443.44c-1.37,5.16-4.32,10.33.09,15.46-1.4,2.64-4,4.51-4.82,7.53-3.79-2.93-6.78-7-11.7-8.33-1.49-.42-2.1-1.8-2.46-3.24,3.5-3.33,4.25-6.9,1-10.83l2.34-3.19c1.37,0.4,3.42.37,4,1.27,2.86,4.52,5.83,4,9.32.91C596.72,442.7,597.86,443.27,598.64,443.44Z"/><path class="cls-25" d="M515.52,326c0.06-2.52-5.94-3.23-2.07-6.89,1.89-2.15,6.13.89,7.13-3.22,2.78,0.09,5.83-1.54,8.17,1.3L528.49,319c-2.32,3.88.37,10,5.74,12.93,1.05,0.58,2.5.79,3.19,1.64,1.28,1.57,4.67,4.26,3,4.94-4.22,1.69-2.33,12.31-10.6,7.36-0.25-1.58.77-1.69,1.76-2,3.87-1.16,4.33-3,1.47-6-3.85-4.12-9.1-6.66-12.37-11.45C519.48,324.66,517.29,325.57,515.52,326Z"/><path class="cls-16" d="M600.41,408c4.06-3.82,8.91,1.42,11.14.16,3-1.68,4.12-6.82,8.78-7.5a8.94,8.94,0,0,1,2.91.58l2.46,7.17c-1.94,5.88-7.59,5.24-12,6.42-2.36.64-4.68,0.59-6.25,2.89-1.07,1.57-2.48,2.66-4.63,1.53-1.93-1-2.26-2.66-2.26-4.59C600.59,412.4,600.47,410.17,600.41,408Z"/><path class="cls-21" d="M625.69,408.36l-2.46-7.17a4.86,4.86,0,0,1,1.68-.67c3,0,5.55-.57,7.05-3.66,1.68-3.47-1.76-4.51-2.82-6.66l4.36-5.25c1,0.31,1.89.68,2.85,0.93,5.58,1.49,5.39,4.77,3.9,9.86-1.63,5.56-6.81,6.62-9.12,10.71C629.9,408.63,627.53,407.78,625.69,408.36Z"/><path class="cls-13" d="M448.16,255.41c-1.06-2.5,2.11-3.36,1.12-5.47-1.39-1.1-4.57,2.43-4.7-1.12a4.35,4.35,0,0,1,4.92-4.15c4.8,0.3,9.57,2.62,14.44-.22,1.11-.64,2.92.24,3.32,1.91,0.57,2.34.21,5.17-1.85,6-3.65,1.5-6.73,6.65-11.75,2.44C452,253.46,449.91,255.29,448.16,255.41Z"/><path class="cls-25" d="M471.51,373.36c2.26,0.33,4.9-.26,6.11,2.56-1.37,2.09-2,5-5.72,4-1.58-.43-3.45,1.4-3,2.19,3.72,6-3.9,7.22-4.65,11.43-0.54,3-4,1.71-6.32,1.86A34.87,34.87,0,0,1,465.59,376C466.75,374.46,469.49,374.19,471.51,373.36Z"/><path class="cls-21" d="M530.13,448.25c2.58-.45,5.78.92,7.33-2.51l3.51-.08c-0.06,4,.85,8.37-0.4,12-2.09,6.09-5.68,11.54-13.7,10.49l-0.62-1.64c0.27-2.39,2.2-4.12,5.58-5.55,2.36-1,2.53-2.9,1.35-5C531.82,453.51,529.79,451.35,530.13,448.25Z"/><path class="cls-15" d="M550.07,312.32l8.08,0.89c3.66,2,4.62,5.92,6.32,9.29l-2.36,5.37c-4.3-.42-6.94-4.61-11.28-4.93-1.64-2-4.08-2.07-6.32-2.65l-1.28-3.12C546.79,317.37,547.75,313.88,550.07,312.32Z"/><path class="cls-20" d="M463.51,428.7c-3.19-2-3.38-5.15-3.46-8.39,4-1.88,8.24,2.37,12.15-.62,5.7-.54,6.1,4.28,7.85,7.74,0.84,3.74-3.38,4.6-4.22,7.38l-3.27-1.58C472,426.59,471.31,426.26,463.51,428.7Z"/><path class="cls-14" d="M530.13,448.25c-0.34,3.1,1.69,5.26,3,7.69,1.18,2.11,1,4-1.35,5-3.38,1.42-5.31,3.16-5.58,5.55-6.82-2.54-9.62-7.91-6.45-12.43,2.15,0.27,3.76.11,4.57-2.55S527.39,447.89,530.13,448.25Z"/><path class="cls-13" d="M475.82,434.82c0.84-2.78,5.06-3.64,4.22-7.38l6.31-1.78,3.69,0.59c1.15,2.06,3.56,4.51.94,6.41-2.9,2.1-2.05,4.48-2,7L482.11,442Z"/><path class="cls-21" d="M351.27,444.11c-2-2.88-3.07-5.63.48-8.29,1-.73.91-2.18,0.67-3.42,7-1.06,5.78,6,8.8,8.94-3.71,2.78-3.57,5.29.51,7.57a3,3,0,0,1,.71,1c-8.36,4.53-8.35,4.53-10-4.51A3.67,3.67,0,0,0,351.27,444.11Z"/><path class="cls-21" d="M595.09,348.78c1.76,6-1.82,9.25-6.36,12a11.7,11.7,0,0,1-7.73.07c0.72-3.52,1.31-7.05.13-10.6C585.42,346.09,590.23,347.17,595.09,348.78Z"/><path class="cls-21" d="M489,439.65c-0.05-2.52-.9-4.9,2-7,2.62-1.9.21-4.35-.95-6.41,2.46-2.4,5-.9,7.46-0.06L499.35,437C496.18,442.57,494.27,443.05,489,439.65Z"/><path class="cls-25" d="M329.29,212.19c-2.6-2.81-5.84-2.16-9.13-1.84-5.35.52-9.78-.34-12.79-5.93-1.58-2.93-.75-4,1.16-5.3,2.48-1.66,3.77-.22,4.26,2.2,1,5.13,4.85,5.33,8.93,5.11,2.56,0.18,5.14.2,7.66,0.6a3.37,3.37,0,0,1,3,3.26C332.37,212.21,330.68,212.13,329.29,212.19Z"/><path class="cls-14" d="M549.42,292.77l-5.93-4.47,2.53-5.79a7.76,7.76,0,0,0,6.2-1.79c3.06-2.71,5.78-2.12,8.33.73-0.77.89-2.31,1.92-2.18,2.65,0.93,5.38-1.71,6.7-6.39,6.34C550.64,290.34,550,291.68,549.42,292.77Z"/><path class="cls-18" d="M472.19,419.69c-3.91,3-8.18-1.26-12.15.62l-3.79.55c-0.41-2.1,4.91-2.75,1.6-4.81-6.75-4.21-.91-5.82,1.38-8.23,3.89,0.19,5.09,5.51,9.39,4.92C468.35,415.81,470.92,417.42,472.19,419.69Z"/><path class="cls-18" d="M554.16,336.36c-0.38,1.9-3.35,3.4.15,5.82,2.44,1.69-1.54,2.21-2.2,3.61a2.37,2.37,0,0,1-4.32-.31c-1.57-5.2-7.18-8.9-5.66-15.19l2.58-1.48c3.56,0,1.2,6.08,5.49,5.3l2.94,0.1Z"/><path class="cls-19" d="M525.81,360.86c-0.88,2.51-2.89,3.66-5.27,4.38a7.61,7.61,0,0,0-3.38-4c-1.68-.91-2.54-2.85-1.34-3.92,3.18-2.84,1.83-6.17,1.79-9.4,1.61-1.67,3.5-2.35,5.22-.46s3.26,4.58,1.67,6.53C521.83,357.28,523.53,358.93,525.81,360.86Z"/><path class="cls-20" d="M598.19,333.14l-3.06-.13c-1-5.11-6.57-5.18-9.21-8.47,4.85-4.74,9.58-3.82,14.12.43a9.4,9.4,0,0,0,4.05,2.44l-1.76,3A8.38,8.38,0,0,0,598.19,333.14Z"/><path class="cls-18" d="M484.68,295.44c-1.4,4.62-6.69,2.68-9.4,5.31-0.88.86-1.92-.94-2-2.23-0.25-3.1,3.83-11.15,5.63-10.91C483.27,288.21,482.64,292.73,484.68,295.44Z"/><path class="cls-23" d="M477.39,331.63c3.13-.06,5.62-0.1,4.11,4.6-1,3.11-.48,6.71-0.64,10.09-1.73,1.26-3.88,2.53-5.36.39s-3.61-5.3-2.06-7.11C475.56,337.12,475.24,333.82,477.39,331.63Z"/><path class="cls-13" d="M560.54,281.45c-2.55-2.85-5.26-3.45-8.33-.73a7.76,7.76,0,0,1-6.2,1.79c1-1.62-2.84-8,4-4.06a1.8,1.8,0,0,0,1.6-.13c0.8-.58.59-1.37,0-2-1.14-1.16-3.73-2.27,0-3.5,3,1.17,5.5,4.07,9.24,2.63,2.35,0.18,3.65,1.77,4.79,3.57A8,8,0,0,1,560.54,281.45Z"/><path class="cls-16" d="M553.14,334.2l-2.94-.1c1-3.68-4.22-7.71.62-11.17,4.34,0.32,7,4.52,11.28,4.93l-1.34,4.66C558.31,333.46,555.24,331.63,553.14,334.2Z"/><path class="cls-13" d="M581,360.81a11.7,11.7,0,0,0,7.73-.07l1.27,1.66c-0.73,1.21-2,2.36-2.11,3.63-0.6,5.41-3.92,6.57-8.57,6l-0.45-6.5A7.18,7.18,0,0,1,581,360.81Z"/><path class="cls-23" d="M499.35,437q-0.93-5.42-1.85-10.83c1.07-2.66,5.23-2.51,5.41-6l3.32-.08c0.83,3.72,1.54,7.3-2.19,10.19-1.54,1.19-.53,3.34-0.46,5.08A6.37,6.37,0,0,1,499.35,437Z"/><path class="cls-13" d="M475.82,434.82l6.28,7.21c-4.11,4.62-8.21,2.86-11.18-4.82l1.62-4Z"/><path class="cls-18" d="M543.23,317.17l1.28,3.12-2,.72c-5.46-1.73-7.45.88-7.46,6-2.9-2.07-3.32-6.18-6.54-8,0.08-.6.17-1.21,0.26-1.81,1.84-1.31,4-1.26,6.1-1.44C537.24,318.54,540.05,318.9,543.23,317.17Z"/><path class="cls-25" d="M362.43,449.89a3,3,0,0,0-.71-1c-4.08-2.28-4.22-4.79-.51-7.57,1.68-.86,2.63-3,5-2.72-1.3,3.62,3.23,7.4-.32,11Z"/><path class="cls-23" d="M535,327c0-5.08,2-7.69,7.46-6l2.23,7.81-2.58,1.48A8.7,8.7,0,0,1,535,327Z"/><path class="cls-23" d="M365.86,449.57c3.54-3.55-1-7.33.32-11,5.51-.26,6.06,5.13,8.94,7.84C371.59,446.2,370.66,453.63,365.86,449.57Z"/><path class="cls-25" d="M520.65,288.29l-2.48.38c-2.5-2.31-6.53-4.68-.28-7.17,2.45-1-.54-3.61,1.94-4.44C524.89,280.43,520.63,284.56,520.65,288.29Z"/><path class="cls-14" d="M472.55,433.23l-1.62,4c-4.06-1.46-6.66-4.19-7.43-8.51C471.31,426.26,472,426.59,472.55,433.23Z"/><path class="cls-25" d="M319.5,253.92c-2.3,1.72-4.4,3.84-6.94,5-1.45.65-2.91-1.09-3-3-0.22-3.37,1.75-4.76,4.78-5.06C316.55,250.62,318.24,251.5,319.5,253.92Z"/><path class="cls-13" d="M633.5,384.94l-4.36,5.25c-4.17.33-8.57,1-7.38-5.68,3,1.29,5.68,2.77,8.35-1.17C632.3,380.1,633,382.87,633.5,384.94Z"/><path class="cls-13" d="M510.67,300.09c-0.61,2.28,2.46,3.11,2.09,5.29-5.64,4.34-5.77-2.43-8.39-4.17,2.63-.42,1.84-3.38,3.42-4.59A5.69,5.69,0,0,0,510.67,300.09Z"/><path class="cls-18" d="M326.49,406c-2.79.22-5.61,0.62-8.78-2.48,5.5,1.08,5-3.91,7.7-5.6l1.39,1Q326.64,402.52,326.49,406Z"/><path class="cls-18" d="M564.47,322.5c-1.7-3.37-2.65-7.25-6.32-9.29,6.51-3.57,7.16,2.64,9.65,5.78C568.78,322.15,566.57,322.28,564.47,322.5Z"/><path class="cls-19" d="M326.49,406q0.15-3.53.31-7.05c2.75,0.47,4.53,2.62,6.8,3.9C333.76,409.66,329,405.31,326.49,406Z"/><path class="cls-18" d="M560.72,275.44c-3.74,1.44-6.24-1.46-9.24-2.63l0.79-2.11c1.68-1.45,3.67-1.51,5.72-1.29Z"/><path class="cls-26" d="M448.76,232.18c0.56-1.17,1.76-2.25.44-3.65l0.33-1.93c1.87,1,3.09-.06,4.25-1.32,2.52,1.18,2.82,2.81,1.31,5.14C453.43,233,451.54,234,448.76,232.18Z"/><path class="cls-16" d="M510.67,300.09a5.69,5.69,0,0,1-2.89-3.48c2.29-2,4.52-4.11,8-3.17C515.56,296.8,513.66,298.86,510.67,300.09Z"/><path class="cls-14" d="M603.48,423.6l-1,2c-7.59.68-4.05-4-3.45-7.2A16.65,16.65,0,0,0,603.48,423.6Z"/><path class="cls-15" d="M536.19,236.12c-1.67-1.1-3.66-2.35-3.1-4.52,0.37-1.44,2.5-1.43,3.76-.78,4.58,2.36-2.88,3.24-.75,5.39Z"/><path class="cls-13" d="M479.14,224.51c1.35,0.18,2.47.86,2.43,2.25-0.06,2-1.81,2.56-3.34,3-1.28.35-1.77-.65-1.89-1.75C476.11,225.92,477.67,225.25,479.14,224.51Z"/><path class="cls-14" d="M553.14,334.2c2.1-2.58,5.16-.74,7.62-1.67,0.21,5.43-3.88,3.46-6.61,3.83Z"/><path class="cls-21" d="M678.36,361c-5.71-1-5.06-5.23-4.65-9.31l1.07-2.94a3.24,3.24,0,0,0,.06-1.57c-1.21-1.92-4.64-2.95-3.36-5.81s4.39-2.3,7-2.4c6-.72,10-4.6,7.5-7.28-4.65-5,.16-4.65,2.59-5.87,1.94-1.72,1.64-6.56,6.34-4.59a3,3,0,0,0,1.14-1.79c-0.85-4.9,2.86-6,6.07-7.54h1.72c2.69,1.59,3.57,4.23,4.27,7.06,0.75,3,2.85,4.67,5.89,3.72,3.88-1.22,5.88.57,7.05,3.76,1.46,4,4.28,4.48,7.81,3.54,4.6-1.23,8.8-.95,12.46,2.56,1.65,1.58,3.62,1.62,5.56.27a7.17,7.17,0,0,1,5.2-1.27c3.87,0.51,6.39-.93,6.79-5,0.18-1.82.66-3.38,2.7-3.35,4.82,0.07,7.2-4.26,11-5.93,1.24-.54,2.68-1.55,2.13-3.26-0.61-1.9-2.31-2.18-4-1.74-6,1.57-6.45-1-4.33-5.66,5.75,0.66,8.31-1.91,6.8-8.92-1.33-6.18,2.08-5.61,5.59-5.18,5.67,0.7,8.82,4.84,10.87,9.6,1.25,2.9,2.43,5.1,5.93,5a3.85,3.85,0,0,1,3.46,2.08c1.68,2.49,3.82,3,6.86,2.35,3.94-.89,4.29.65,3.54,4.69-0.83,4.44-6.86,6.64-4.58,12a2.48,2.48,0,0,1-.58.89c-0.64.23-1.22,0.51-1,1.37l0-.07c-3.14,3.26-9.54,1.62-11,7.36-1.53,1-3,2-4.59,2.95-1.09.64-2.56,1.16-2.73-.72-0.68-7.34-3.23-2.2-5.72-1.18-3.17,1.3-3.43,3.15-2.16,5.68,1.64,3.27,3.71,2.08,5.9.43,2.48-1.87,4.52-1.22,6,1.44l-0.54,1.77c-7.88,2.69-8.05,3.77-1.54,9.53,1.92,2,1.63,4.8,2.68,7.12-0.22,1.25.66,1.7,1.56,2.15l1.1,2.77-1.15,4.88,0,0c-3,4.44-6.45,8.64-9.64,12.94-2.35,3.16-3.9,4.19-7.74,3.49-6.56-1.2-9,2.09-7.15,8.37,0.47,1.57,1.19,3.79-1.57,4.39-1.27.28-2.57,2-3.85,0.4-1.61-2,.23-3.12,1.3-4.61,2.71-3.81-.17-5.2-3.13-6.42a12.57,12.57,0,0,1-2.77-2.29c-3.59-5.37-7.16-5-10.85-.17-2.56,0-1.56,4-4.29,3.82-3.71-2.34-3.62-7.51-7.32-9.9A1.63,1.63,0,0,1,734,383c5.34-5.91-.1-5.9-3.74-6.88-2.32-7.1-7.31-4-11.72-3.07l-8.66,2.16A20.24,20.24,0,0,1,695.48,370c-1.57-1.42-3.38-3-5.9-2.61-2.26-.31-3.49-1.54-4.18-3.79C684.26,359.88,681.79,358.94,678.36,361Z"/><path class="cls-18" d="M777.73,465.09c-0.54-.55-1.35-1.67-1.57-1.56-8.24,4.07-8.81-4-11.25-7.72-4.4-6.62,1.87-5.19,5.21-5.71,4.37,0.87,9.35,3.6,10.39-4.21,0.35-2.63,2.66-3.31,5.18-2.76,0.54,2.26-.84,5.47,3,6.13l0.11,2.55L787.45,453c-0.71.06-1.14,0.34-.88,1.15,0.08,1.44-.94,3.54,1.32,3.87,1.59,0.23,2.85-1.26,3.32-2.77a11.74,11.74,0,0,0,0-3.5l1.56-2.26c3.38-.48,7,4.23,10.26-0.5,0.27-.39,1.38.49,1.54,1.37,0.24,1.31-.26,2-1.48,2.78-2.67,1.75-5.45.38-8.11,0.87-0.19-.45-0.33-1.17-1-0.71-0.23.16,0,1,0,1.48-0.4,5.34,4.22.49,5.62,3-1.66,2.31-4.15,4.79-.53,7.93,1.13,1,2.72,3.66-.48,4.76-2.51.86-2.64-1.57-3.34-3-0.4-.83-0.12-2.07-1.74-2.33-2.1.87,1.17,5.74-1.93,4.46a7.5,7.5,0,0,1-4.28-8.28c0.32-1.41,2.94-3.43-.35-4.07-2-.38-3.89,1-4,3.6C783,464.42,781.61,466.37,777.73,465.09Z"/><path class="cls-17" d="M832.77,332.81c0,1-.36,2.32.14,2.91,3.78,4.49-.37,9.41.91,14.18,0.78,2.9-2.83,4.7-5.35,4.55-4.25-.25-7.31,2-10.74,3.59A6.79,6.79,0,0,0,812,355a5.83,5.83,0,0,1,5.1-4.57c2.66-.33,5.48.08,5.16-4a1.7,1.7,0,0,1,1.15-1.13c7.53,1.65,5.28-6.44,5-7.28-1.76-5.18,1.49-4.79,4.49-5.09Z"/><path class="cls-19" d="M785.7,443.12c-2.52-.54-4.83.13-5.18,2.76-1,7.81-6,5.08-10.39,4.21,0.19-1.34-.4-3,1.23-3.79,4.58-2.35,8.89-4.89,9.94-10.6,0.2-1.09,1.47-1.25,2.51-1.34,0.78,0.9,1.39,2.12,2.37,2.63,1.61,0.83,4.78-.47,4.65,2.53C790.71,442.18,787.51,442,785.7,443.12Z"/><path class="cls-25" d="M794.35,433.44c1.62-5.45,7-5.37,10.75-5.82s4.16,3.81,3.24,6.85a7.75,7.75,0,0,1-4.18,4.93c-0.64-6.65-5.21-5.8-9.68-5.17A1.14,1.14,0,0,0,794.35,433.44Z"/><path class="cls-25" d="M787.58,411.21l1-3.57,1.43-4,0.85-.84,0.67-2.3c3.25-.93,4.1,2,5.73,3.61,0,2.82-.9,5.66.16,8.47L797.23,415l0.09-.09C793.35,415.58,790.63,413,787.58,411.21Z"/><path class="cls-18" d="M798.48,350.42c-2.4-1-2-3.14-2-5.09,1.93-.38,3.13-1.86,4.51-3,5,2.17,6.24,6,4.75,10.95-0.56,1.85-1.82,3.38-3.9,3.28-2.55-.11-2.33-2.32-2.51-4.1C799.65,351.49,799.83,350.61,798.48,350.42Z"/><path class="cls-13" d="M801,342.29c-1.39,1.19-2.58,2.66-4.51,3l-1.4-.36c-0.69-1.33-3.18-2-1.37-4.27,1.22-1.55-.07-2.41-1.44-3,1.48-5.74,7.88-4.1,11-7.36,0.38,2.81.8,5.65-2.37,7.28S800,340.75,801,342.29Z"/><path class="cls-17" d="M813.59,362.29c0.05,1.67-.19,4-1.85,3.9-2.81-.2-2.46-4.23-5.11-5.45-1.14-.53.28-2.1,1.21-2.77,1.26-.91,2.33-2.29,4.18-2C813.47,357.83,811.17,360.64,813.59,362.29Z"/><path class="cls-25" d="M784.34,432.41c-0.94-4.91,3.33-7,5.57-10.11C790.84,427.2,789.34,430.77,784.34,432.41Z"/><path class="cls-18" d="M812.76,446c3.49,3-.83,5.95.66,9.48C808.66,452,808.66,452,812.76,446Z"/><path class="cls-13" d="M788.74,391.67c-0.35-3.41-3.17-7.42,2.26-9.46a10.43,10.43,0,0,1,0,9.27l-2.33.17Z"/><path class="cls-25" d="M797.51,418.58l-0.2-3.63-0.09.09,3.69-.14c1.2,1,2.53,2.17,1.17,3.84S799,419.64,797.51,418.58Z"/><path class="cls-26" d="M788.8,451.79l-0.11-2.55c1.49-1.84,2.75-.06,4.09.27l-1.56,2.26Z"/><path class="cls-27" d="M835.29,331.65c0.11-1.92,1.33-2.74,3-3.07C839.29,331.56,837.26,331.58,835.29,331.65Z"/><path class="cls-26" d="M788.71,391.65l2.33-.17c-0.12.91,0,2.16-1.35,2C789.3,393.43,789,392.29,788.71,391.65Z"/><path class="cls-26" d="M800.91,414.9l-3.69.14,0.14-2.48Z"/><path class="cls-26" d="M791.13,366.88c-0.89-.44-1.78-0.9-1.56-2.15A2,2,0,0,1,791.13,366.88Z"/><path class="cls-26" d="M798.48,350.42c1.36,0.2,1.17,1.08.89,2Z"/><path class="cls-13" d="M803.3,330.42c-0.25-.86.33-1.13,1-1.37Z"/><path class="cls-26" d="M790.81,402.79l-0.85.84A1.69,1.69,0,0,1,790.81,402.79Z"/><path class="cls-26" d="M794.35,433.44a1.14,1.14,0,0,1,.13.78l-1-.42Z"/><path class="cls-18" d="M330.19,505.64c-1.82-5.75,1.59-11,1.55-16.59a3,3,0,0,0,1.15-.37c3.49-3.26,7.83-11.44,8.29,1.58,0,1.29,1.47,2,2.75,1.94a6.94,6.94,0,0,1,5.55,3.05c2.36,5.15,7.33,7.9,10.22,12.37,1.27,2,1.26,4.46-2.13,5-3.72-3.53-8.36-2.9-9.76,1.52-0.59,1.86-.3,4-0.41,6l-10.16,1.5c-1.92-1-3.36-2.93-3-4.83C335.24,512.07,332.17,509.12,330.19,505.64Z"/><path class="cls-25" d="M347.41,520.13c0.11-2-.18-4.16.41-6,1.4-4.42,6-5,9.76-1.52-0.37,2.88,2,4,3.81,4.72,6.78,2.65,8.5,7.6,7.29,14.2-1,.71-1.92,1.48-2.94,2.13-2,1.25-4.15,3.48-6.48,1.57s-0.39-3.67,1.11-5.45a2,2,0,0,0-1.46-3.21C354.19,525.88,351.44,521.89,347.41,520.13Z"/><path class="cls-22" d="M373.94,458.64l1.23-1.3,0.68,0.76-1.24,1.22Z"/><path class="cls-22" d="M374.61,459.32l-1.09.56,0.43-1.24Z"/><path class="cls-13" d="M286.1,405.17L286,411.77l-2.2.93c-1.64-1.27-1.44-3.18-1.71-4.93A3.35,3.35,0,0,1,286.1,405.17Z"/><path class="cls-19" d="M231.68,368l1.83-.23Z"/><path class="cls-23" d="M711.27,391.43c0.55-1.43,1.89-3.28.34-4.3-3.4-2.24-2.11-4.91-1.36-7.66q9.29,1.68,11.58,10.83a3,3,0,0,1-.14,3.72C718.29,392.86,715.73,388.31,711.27,391.43Z"/><path class="cls-18" d="M721.83,390.3q-2.28-9.17-11.58-10.83l0,0-0.25-4c1.3,0.43,2.65.75,3.9,1.29,4,1.73,5.06-.11,4.7-3.77,4.42-.92,9.4-4,11.72,3.07C724.94,379.31,724.95,385.74,721.83,390.3Z"/><path class="cls-26" d="M747.13,449.34c1.31,0.11,2.84-.42,3.61,1.25A2.54,2.54,0,0,1,747.13,449.34Z"/><path class="cls-17" d="M753.44,424.76c-4.47.23-6.53-2.5-7.73-6.29,0.33-4.92,3.71-5.59,7.65-5.47,1.12,3.63,3.94,3.22,6.75,2.83C761.39,421.43,757.8,423.38,753.44,424.76Z"/><path class="cls-15" d="M283.83,412.7l2.2-.93a3,3,0,0,0,3.32-.36c3.77-3.1,5.95-1.32,7.46,2.46-4.11-1.4-5.79,3.33-9.22,3.65-1.19-1.84-3.27-1.95-5.08-2.58Z"/><path class="cls-25" d="M702.11,311.94c-3.21,1.55-6.92,2.64-6.07,7.54a3,3,0,0,1-1.14,1.79c-4.69-2-4.4,2.86-6.34,4.58-1.17-2.34-3-2.77-5.54-2.56a66,66,0,0,1-11.6.06c-2.07-.19-3.68-0.49-4.11,2-0.34,2-.83,4.13,1.92,5,4.83,1.51,2,2.93-.11,4.18a45.33,45.33,0,0,1-4.34,2l-2.54.3c-2.58-.28-5.27-1-4.26-4.25,1.41-4.47-2-5.48-4.26-5-3.67.71-4.9-1.68-6.87-3.39-0.4-1.51-1.74-2.81-1.16-4.54,0.5-1.49.57-2.86-1.12-3.51-2.07-.8-2.75.73-3.53,2.24a11.43,11.43,0,0,1-2,2.2c-5.95,1.24-8.14,4.26-7.08,10,0.36,1.93,1.39,3.75.73,5.8-3.08,0-3.67-4.36-7-4-1.44-2.88-4.29-2.58-6.82-3a4.78,4.78,0,0,1-4-3.24c-0.81-2.5,1.72-2.8,2.81-4.06,1.4-1.61,5.56-1.15,4.15-4.74-1.23-3.13-4.32-.67-6.46-1.36a7.33,7.33,0,0,0-1.81-.12c-0.28-1.21-.61-2.57.41-3.48,3.38-3,3.49-5.46-.48-8.24-2.12-1.48-3-4.48-.67-6.35,2.13-1.71,3.34-6.47,7.59-3.62,1.56,1,2.43.4,3.78-.23,6.38-3,11.72-1.57,15.37,4,3,4.58,8.46,2.44,12.26,4.76,1.34-3.14,3.93-5.39,5.74-8.15,1-1.48,1.7-3.38,3.34-2.41,4.49,2.66,8.53,1.38,12.81-.32,1.5-.6,3.89-0.35,4.14,1.48,0.81,6,3.52,3.45,6.65,2.1,2.72-1.18,5.81-1.37,6.3,3,0.2,1.75,1,3.4,2.68,3.75C699,303.11,700.78,307.29,702.11,311.94Z"/><path class="cls-19" d="M766.39,306.61c-2.13,4.61-1.7,7.23,4.33,5.66,1.7-.44,3.41-0.17,4,1.74,0.55,1.71-.89,2.71-2.13,3.26-3.84,1.68-6.22,6-11,5.93-2,0-2.52,1.53-2.7,3.35-0.4,4.09-2.92,5.54-6.79,5a7.17,7.17,0,0,0-5.2,1.27c-1.95,1.36-3.92,1.31-5.56-.27-3.66-3.51-7.86-3.79-12.46-2.56-3.52.94-6.35,0.42-7.81-3.54-1.17-3.18-3.17-5-7.05-3.76-3,1-5.14-.68-5.89-3.72-0.7-2.83-1.58-5.47-4.27-7.06,2.12-5.25,6.27-4.94,10.59-3.68,2.13,0.62,4,2,6.19,2.51,1.67,0.4,3.58-.06,2.25-2.61-0.56-1.09-1.59-2.1-.82-3.33,1.43-2.27-1.1-6.69,1.81-7,3.07-.28,7.41-0.47,9.7,3.21a4.81,4.81,0,0,0,4.6,2.44,17.71,17.71,0,0,1,12.41,3.76c3.5,2.7,7-1.65,10.42-2.73C764,303.61,765.55,303.29,766.39,306.61Z"/><path class="cls-18" d="M560.54,281.45a8,8,0,0,0,5-2.44c9.26,3.24,9.26,3.24,5.23,15.92-1.49,6.36-6.88,4.86-11.15,5.39a39.16,39.16,0,0,1-6.54-.25c-1-2.54-4-4.08-3.63-7.31,0.57-1.09,1.22-2.43,2.55-2.33,4.69,0.36,7.32-1,6.39-6.34C558.23,283.37,559.77,282.34,560.54,281.45Z"/><path class="cls-13" d="M606.84,326.79c2,2.38,3.29,5.2,6.35,6.9,4.29,2.38,1.14,4.72-.85,6.81-1.48-.43-2.72.3-4,0.81-2.35-3.44-2.61-8-6-10.89l1.76-3Z"/><path class="cls-22" d="M344.68,325.43l-1.91-1.07a1.52,1.52,0,0,1,0-1.05,4.07,4.07,0,0,0,.45-0.4c1.8-2.12,4.1-5.67,6.57-4,4.06,2.7-.8,3.24-2.13,4.55a12.76,12.76,0,0,1-2,1.35Z"/><path class="cls-22" d="M367.47,305.9c-2,.16-4,1.09-5.95-0.31,1.43-1,2.74-2.62,4.32-2.95C369.36,301.9,368.93,303.79,367.47,305.9Z"/><path class="cls-22" d="M358.49,305.88c-0.13,1.35.31,3.17-1.62,3.41-2.34.29-3.08-1.42-3.28-3.43Z"/><path class="cls-26" d="M263.9,241l3.79,1.1C265.71,244.24,264.69,243,263.9,241Z"/><path class="cls-26" d="M267.75,242a2.9,2.9,0,0,1,.42-0.84l0.06,0.53Z"/><path class="cls-26" d="M275.42,239.68a2.13,2.13,0,0,1,.86.76Z"/><path class="cls-26" d="M213.9,309.63a1.18,1.18,0,0,1-1.3-1.29C213.77,308,214.19,308.47,213.9,309.63Z"/><path class="cls-22" d="M449.53,226.61l-0.33,1.93c-1.69.35-3.11-.39-4.6-1s-3.51.25-3.67-2.12a2.9,2.9,0,0,1,1.22-1.92c1.72-1.34,3.4-.84,4.87.52C447.9,224.84,448.69,225.75,449.53,226.61Z"/><path class="cls-26" d="M445.75,174.78l1.2,0.69C445.81,176.51,445.72,175.75,445.75,174.78Z"/><path class="cls-25" d="M309.29,214.57c-2.3,3.6-6.64,3.52-8.77,6.78-1.07,1.63-2.24,0-2.35-1.71C297.79,214.27,302.24,212.07,309.29,214.57Z"/><path class="cls-22" d="M330.25,183.32c3.12-2.48,7.3-.69,11.81-3.7-2.59,6.42-7.18,4.23-10.48,5Z"/><path class="cls-25" d="M301.89,211.16c-2,.16-2.6-1.3-2.89-2.63a2.19,2.19,0,0,1,2-2.57,2.57,2.57,0,0,1,3.14,2.2C304.56,209.94,303.24,210.65,301.89,211.16Z"/><path class="cls-25" d="M292.36,233.38a2.78,2.78,0,0,1-2.9,2.52c-1.45,0-3.18-.27-3-2.12s1.62-2.75,3.49-2.64A2.28,2.28,0,0,1,292.36,233.38Z"/><path class="cls-21" d="M305.12,391.2c3.76,1.84,7.49,3.77,11.3,5.49,1.3,0.59,3.19.81,2.76,2.55-0.51,2.07-2.69,2.8-4.56,3.32-1.4.39-3,.18-3.29-1.7-0.73-4.72-4.67-6.15-8.08-8.15Z"/><path class="cls-15" d="M305.12,391.2l-1.87,1.52c-2.82-.57-5.36,1-9,1.61C297.76,390.17,301.27,390,305.12,391.2Z"/><path class="cls-20" d="M710,375.48l0.25,4c-8.62,2.38-20.15-4.36-20.62-12,2.52-.4,4.33,1.19,5.9,2.61a20.22,20.22,0,0,0,14.41,5.17Z"/><path class="cls-23" d="M472.19,419.69c-1.27-2.27-3.84-3.88-3.57-7,3.61-3.84,7.15-.31,10.72.1,1.56,0.18,3.29,1.27,4.56-.24s0-2.92-1-4.18c-3.11-3.73-1.1-7.71-.38-11.56,0.54-2.91,1.79-5.06-1.73-7.78-3.94-3,2.44-4.33,2.78-7,8.15,5.9,16.54,11.51,23.3,19.09,0.5,5.64,1,11.24-7.48,10.67-0.39,0-.83.8-1.25,1.23-8.25,0-12.33,4.4-11.76,12.61L480,427.43C478.3,424,477.89,419.15,472.19,419.69Z"/><path class="cls-15" d="M498.12,413c0.42-.43.86-1.25,1.25-1.23,8.45,0.57,8-5,7.48-10.67,8.15-2.2,12.56-9.41,18.87-14.08,1.69,3.78,5.3,2.67,8.24,3.25,0,2-.37,3.87,1,5.75,3.89,5.36,3.32,9.71-1.71,13.75-2.09,1.68-4,3.36-4.43,6.17-5.7,0-11.41.23-17.1,0-3.22-.13-5,0.91-5.48,4.12l-3.31.08A18.8,18.8,0,0,1,498.12,413Z"/><path class="cls-16" d="M528.81,416c0.43-2.81,2.34-4.49,4.43-6.17,5-4,5.6-8.39,1.71-13.75-1.37-1.89-1-3.78-1-5.75,7.83,1.32,11.8,8.32,17.87,12.23,0.87,0.56,1.51,1.23,2.61,1,3.85,1.45,3.77,5.72,1.85,6.79-6.57,3.68-5.56,8.84-4.37,14.42-4.49,3.94-8.24,9-14.71,10-3.43-1.92-5.61-4.08-3.78-8.64a7.38,7.38,0,0,0-2.21-8.69Z"/><path class="cls-18" d="M537.21,434.74c6.47-1,10.22-6,14.71-10a5.21,5.21,0,0,1,1.16.12c0.64,6.28,9.34,7.4,9.08,14.22-3.6,2.14-8.6.86-11.54,4.73a2.28,2.28,0,0,1-2.17-.11c-4.1-5.42-5.32.06-7.48,1.91l-3.51.08C535.35,442.12,532.46,438.52,537.21,434.74Z"/><path class="cls-13" d="M580.71,444c3.29,3.93,2.53,7.5-1,10.83-1.11,3.45-5.73,1.52-7.07,4.61l-4.58-1.59a6.55,6.55,0,0,1,1.47-5c3.15-3.43,3.56-4.52,2.52-8Z"/><path class="cls-17" d="M571.35,477a23.1,23.1,0,0,1,7.74,5l-1.4,11.83c-2.64.59-2.05,4.21-4.6,4.88-5.25-.55-7.33,5.8-12.37,5.7l-8.14-.07c-1.11-1.92-2.52-3.73-3.26-5.78-1.24-3.44-1-6.89,3.63-7,4.13-.07,3.86-2.63,4.12-5.23,2.49,2.7,7.43,1.69,8.91,6.33,0.48,1.49,3.37,1,4.77-.35,1.77-1.76-.17-2.87-1.15-3.93C565.15,483.6,565.69,479.84,571.35,477Z"/><path class="cls-16" d="M568.1,457.87l4.58,1.59c0.28,2.25,1.92,4.72-1.09,6.4C566.36,465,565.76,462.07,568.1,457.87Z"/><path class="cls-16" d="M674.78,348.78l-1.07,2.94c-4.46-1.1-7.55-1.28-7.71,5.2-0.07,2.87-1.23,7.85-6.55,7.92a2.39,2.39,0,0,0-1.73,1.43c-1,3.9-3.57,4.87-7.24,4.43-1.66-.2-3.06.84-4.34,1.86a1.39,1.39,0,0,1-.52-0.25c0.15-6.79-6.75-12.31-3.59-19.64,2.31,0.72,4-.21,5.08-2.17a7,7,0,0,1,5.34-3.49c2.31,1,4.26-.45,6.36-0.93,1.6,0.76,3.07.8,4.29-.74,1-1.29,2.47-2,3.36-.3C668.31,348.63,672,347.59,674.78,348.78Z"/><path class="cls-13" d="M652.44,347a7,7,0,0,0-5.34,3.49c-1.1,2-2.77,2.89-5.08,2.17-3.34-7.45-7.48-8.92-17.77-6.31,0.11-2.25.16-4.53-1.41-6.37-3.73-4.38-2.1-6.67,2.9-7.75,3.29-.33,3.88,4,7,4,1.62,2.14,2.32.18,3.17-.75,1.1-1.21,2.31-2,3.55-.43A68.16,68.16,0,0,0,652.44,347Z"/><path class="cls-18" d="M602.33,330.41c3.39,2.86,3.65,7.45,6,10.89-3.27.74-4.81-2-6.94-3.48-0.53-1.93-3.09-2.47-3.2-4.68A8.39,8.39,0,0,1,602.33,330.41Z"/><path class="cls-22" d="M350.61,258.65c-0.65-.48-1.22-1.26-0.52-1.82,0.9-.73,1.12.32,1.39,1Z"/><path class="cls-22" d="M351.86,259.86l-1.25-1.21,0.86-.86,1.12,1.32Z"/><path class="cls-13" d="M552.58,504.34l8.14,0.07c-0.46,3.62.8,6.43,3.49,9,1.62,1.51,4,2.79,3.8,5.66-2.39.79-3.66,2.7-5,4.68-1.78,2.65-3.7,5.26-7.65,4.12a2.41,2.41,0,0,0-3.27,1.69c-1.13,2.94-3.48,1.9-5.6,1.4a4.13,4.13,0,0,0-.77-4.5c-1.57-1.9-1.8-5.19-.56-6.3,4.64-4.13,2.39-9.45,3.35-14.17A6.3,6.3,0,0,0,552.58,504.34Z"/><path class="cls-15" d="M568,519c0.24-2.88-2.18-4.15-3.8-5.66-2.69-2.52-4-5.33-3.49-9,5,0.1,7.12-6.25,12.37-5.7,5.44,4.64,4.89,9.64,1.7,15.45-0.72,1.32-.33,3.63-2,4.94Z"/><path class="cls-25" d="M563.7,542.69c-1.32,0-2.75-.47-2.42-1.89,0.59-2.51,2.91-3.67,5.13-4.29,1.35-.38,2,1.17,1.88,2.42C568,541.56,566.13,542.51,563.7,542.69Z"/><path class="cls-23" d="M543.23,317.17c-3.18,1.72-6,1.37-8.39-1.44l2.3-4.65c3.87-2,8.46.21,12.27-2.09l0.66,3.34C547.75,313.88,546.79,317.37,543.23,317.17Z"/><path class="cls-13" d="M549.41,309c-3.82,2.31-8.4.09-12.27,2.09l-1.53-1.48a7.91,7.91,0,0,0,4.39-4l9,0.54Q549.22,307.58,549.41,309Z"/><path class="cls-21" d="M520.58,315.87c-1,4.11-5.24,1.07-7.13,3.22-2.15-3.19-1.32-5.52,2-7.13,1.69,0.47,3.81-.23,4.9,1.83Z"/><path class="cls-20" d="M577.69,493.83l1.4-11.83c2.2,0.5,3.58,2,4.82,3.76-3.27,2.48-2.18,5.24-.54,8.07,1,1.75,2.35,3.46,1.6,5.68a2.3,2.3,0,0,1-2.17,1.83c-1.12,0-1.21-1-1.21-1.75C581.6,496.76,579.87,495.16,577.69,493.83Z"/><path class="cls-18" d="M540,305.64a7.92,7.92,0,0,1-4.38,4c-2.32-3.68-4.76.24-7.13-.1-0.21-.35-0.4-0.7-0.63-1-1.31-1.88-5-3-3.63-5.61,1.17-2.33,4.45-2.4,7.16-2.24C533.71,303.23,537.92,302.6,540,305.64Z"/><path class="cls-19" d="M528.48,309.49c2.37,0.35,4.81-3.58,7.13.1l1.53,1.48-2.3,4.65c-2.1.19-4.26,0.13-6.1,1.44-2.34-2.84-5.39-1.21-8.17-1.3l-0.19-2.07C524.14,314.34,526,311.39,528.48,309.49Z"/><path class="cls-17" d="M544.71,328.81L542.48,321l2-.71c2.23,0.57,4.67.67,6.32,2.65-4.84,3.46.42,7.49-.62,11.17C545.91,334.89,548.27,328.78,544.71,328.81Z"/><path class="cls-17" d="M498.12,413a18.8,18.8,0,0,0,4.8,7.17c-0.18,3.46-4.34,3.31-5.41,6-2.5-.84-5-2.34-7.46.06l-3.69-.59C485.79,417.45,489.87,413.07,498.12,413Z"/><path class="cls-15" d="M760.1,415.83c0.91-6.45-4.66-8.46-8.16-11.89,2.1-6.4-4.23-8.87-6.24-13.35,3.69-4.8,7.26-5.19,10.85.17a12.57,12.57,0,0,0,2.77,2.29,3.94,3.94,0,0,1-.14,1.81c-4.91,6.79-4.92,6.78,1.31,12.51,8.31,7.64,4.73,19.58-7.06,23.3,0-2,0-4,0-5.92C757.8,423.38,761.39,421.43,760.1,415.83Z"/><path class="cls-16" d="M664.78,336.48a45.33,45.33,0,0,0,4.34-2c2.14-1.25,4.94-2.67.11-4.18-2.75-.86-2.26-3-1.92-5,0.43-2.46,2-2.16,4.11-2a66,66,0,0,0,11.6-.06c2.53-.22,4.37.22,5.54,2.56-2.43,1.22-7.24.87-2.59,5.87,2.49,2.68-1.55,6.57-7.5,7.28-1.26-2.7-3.64-2.58-6.08-2.56S667.32,337.71,664.78,336.48Z"/><path class="cls-17" d="M664.78,336.48c2.54,1.23,5.07,0,7.6,0s4.82-.14,6.08,2.56c-2.59.1-5.74-.38-7,2.4s2.14,3.89,3.36,5.81a3.24,3.24,0,0,1-.06,1.57c-2.78-1.19-6.46-.15-8.32-3.75-0.89-1.72-2.35-1-3.36.3-1.22,1.54-2.69,1.5-4.29.74,1.11-3.11,3.23-5.85,3.44-9.29Z"/><path class="cls-23" d="M710,375.48l-0.06-.31,8.66-2.16c0.36,3.66-.7,5.49-4.7,3.77C712.6,376.23,711.26,375.9,710,375.48Z"/><path class="cls-28" d="M788.8,451.79l2.42,0a11.74,11.74,0,0,1,0,3.5c-0.47,1.51-1.73,3-3.32,2.77-2.25-.33-1.24-2.43-1.32-3.87l0.88-1.15Z"/><path class="cls-26" d="M787.45,453l-0.88,1.15C786.32,453.38,786.75,453.1,787.45,453Z"/><path class="cls-28" d="M794,454.8c0-.51-0.24-1.32,0-1.48,0.64-.46.78,0.27,1,0.71Z"/><path class="cls-18" d="M662.24,336.78c-0.21,3.44-2.34,6.18-3.44,9.29-2.1.47-4,2-6.36,0.93a68.29,68.29,0,0,1-13-11.93c-1.24-1.53-2.45-.78-3.55.43-0.85.93-1.55,2.89-3.17,0.75,0.66-2.05-.38-3.87-0.73-5.8-1.06-5.71,1.13-8.72,7.08-10-1,4.17,2.64,5.56,5,6.9,2,1.16,2.7-1.41,2.82-3.3,2,1.71,3.21,4.1,6.87,3.39,2.28-.44,5.67.57,4.26,5C657,335.74,659.66,336.5,662.24,336.78Z"/><path class="cls-29" d="M664.87,671.68c-0.74,0-1.48-.07-2.22-0.07q-110.42,0-220.84,0c-12.77,0-22.55-5.71-28.49-17-6-11.47-5.15-22.94,2.37-33.51,6.32-8.9,15.28-13.19,26.2-13.19q102.33,0,204.66,0c0.65,0,1.3-.06,2-0.09,0.34,0.27.7,0.51,1,.8,1.79,1.59,3.55,3.2,5.36,4.76,0.41,0.36.88,1.29,1.42,0.74s-0.4-1.05-.75-1.48c-1.33-1.61-2.73-3.15-4.1-4.71h25.09c0.65,0,1.3,0,1.95,0,0.09,1.08.17,2.15,0.27,3.23,0,0.33,0,.76.5,0.74s0.38-.41.41-0.7c0.11-1.12.2-2.23,0.29-3.35a40.71,40.71,0,0,1,10.29,1.45,32.4,32.4,0,0,1,9.23,4.48,2.17,2.17,0,0,0,1.5.68h0a1.6,1.6,0,0,0,.71,1c8.1,7.08,12.09,16,11.19,26.72C711.79,655,705,664,693.2,669.24c-0.39.17-.86,0.69-1.37,0.14a3.23,3.23,0,0,1,1.14-2.13c2.18-2.11,4.34-4.26,6.53-6.37,1.07-1,1.77-2.16,1.25-3.7s-1.78-2.12-3.31-2.3-2.83-.43-4.24-0.65c-0.41-2.49-.78-5-1.25-7.46a4.28,4.28,0,0,1,1.38-4.23q3.29-3.07,6.48-6.24a3.11,3.11,0,0,0,.24-4.55,4.37,4.37,0,0,0-2.71-1.15c-2.8-.4-5.59-0.82-8.39-1.18a4.12,4.12,0,0,1-3.46-2.57,77.18,77.18,0,0,0-4.34-8.47c-1.53-2.4-4.29-2.19-5.58.36q-2.09,4.13-4.1,8.31a3.7,3.7,0,0,1-3.08,2.26q-4.91.67-9.79,1.54a2.91,2.91,0,0,0-2,4.5,7.28,7.28,0,0,0,1.23,1.51c1.93,1.88,3.83,3.8,5.84,5.58A4.62,4.62,0,0,1,665,647.3c-0.46,2.3-.78,4.63-1.17,6.94-1.46.23-2.91,0.48-4.38,0.67a3.43,3.43,0,0,0-3.2,2.27,3.25,3.25,0,0,0,1.15,3.61c2.07,2,4.05,4.07,6.18,6A4.11,4.11,0,0,1,664.87,671.68ZM643,634.23a3.2,3.2,0,0,0-2.77-3.46q-4.77-.77-9.55-1.42a3.51,3.51,0,0,1-2.91-2.09c-1.32-2.74-2.71-5.45-4-8.19-0.65-1.35-1.52-2.32-3.15-2.31s-2.49,1-3.14,2.34c-1.34,2.78-2.74,5.53-4.1,8.3a3.33,3.33,0,0,1-2.74,1.93c-3.1.43-6.19,0.93-9.29,1.35a3.23,3.23,0,0,0-1.81,5.82c2.22,2.14,4.42,4.32,6.64,6.46a3.46,3.46,0,0,1,1.1,3.3c-0.54,3.08-1,6.17-1.6,9.25a3.25,3.25,0,0,0,1.17,3.49,3.21,3.21,0,0,0,3.68.12c2.57-1.37,5.2-2.64,7.72-4.08a4.39,4.39,0,0,1,4.78,0c2.53,1.44,5.15,2.72,7.72,4.09a3.21,3.21,0,0,0,4.84-3.52c-0.53-3-1-6-1.56-9a3.87,3.87,0,0,1,1.25-3.87c2.21-2.09,4.37-4.24,6.56-6.36A3.44,3.44,0,0,0,643,634.23ZM527,634.4c0-2-1-3.33-2.56-3.59q-4.83-.79-9.67-1.45a3.62,3.62,0,0,1-3-2.15c-1.3-2.7-2.67-5.37-4-8.07-0.65-1.35-1.49-2.34-3.11-2.37s-2.52.92-3.17,2.27c-1.31,2.7-2.68,5.37-4,8.07a3.68,3.68,0,0,1-3.09,2.25c-3,.39-6,0.9-9,1.31a3.28,3.28,0,0,0-3,2.28,3.33,3.33,0,0,0,1.2,3.61c2.19,2.11,4.36,4.25,6.55,6.36a3.62,3.62,0,0,1,1.12,3.54c-0.56,3-1,6-1.56,9A3.29,3.29,0,0,0,490.8,659a3.24,3.24,0,0,0,3.79.13c2.72-1.45,5.48-2.85,8.19-4.31a3.65,3.65,0,0,1,3.72,0c2.72,1.46,5.47,2.86,8.2,4.31a3.23,3.23,0,0,0,3.68-.08,3.3,3.3,0,0,0,1.19-3.6c-0.52-2.87-.9-5.76-1.5-8.61a4.19,4.19,0,0,1,1.44-4.3c2.17-2,4.25-4.11,6.37-6.17A3.41,3.41,0,0,0,527,634.4Zm-57.94-.13a3.23,3.23,0,0,0-2.69-3.48c-3.18-.52-6.36-1-9.54-1.43a3.6,3.6,0,0,1-3-2.13c-1.32-2.74-2.7-5.46-4-8.19a3.28,3.28,0,0,0-6.24,0c-1.35,2.78-2.74,5.53-4.1,8.3a3.42,3.42,0,0,1-2.82,2c-3.1.42-6.19,0.92-9.29,1.36a3.21,3.21,0,0,0-1.83,5.75c2.22,2.15,4.42,4.32,6.64,6.45a3.57,3.57,0,0,1,1.15,3.41c-0.54,3-1,6.09-1.58,9.12a3.26,3.26,0,0,0,5,3.63c2.68-1.44,5.4-2.81,8.08-4.25a3.64,3.64,0,0,1,3.71,0c2.8,1.5,5.62,3,8.43,4.42a3.09,3.09,0,0,0,3.55-.24,3.14,3.14,0,0,0,1.15-3.26c-0.54-3-1-6.09-1.58-9.12a3.79,3.79,0,0,1,1.19-3.76c2.18-2.06,4.31-4.18,6.46-6.27A3.73,3.73,0,0,0,469.09,634.27Zm105.25,25.35a3.15,3.15,0,0,0,3.24-3.85c-0.51-3-1-6.09-1.58-9.12a3.87,3.87,0,0,1,1.23-3.88c2.19-2.05,4.3-4.18,6.46-6.27a3.23,3.23,0,0,0-1.82-5.83c-3.06-.42-6.1-0.93-9.16-1.34a3.5,3.5,0,0,1-2.93-2.07c-1.35-2.78-2.75-5.53-4.1-8.3a3.26,3.26,0,0,0-6.17,0c-1.36,2.77-2.75,5.53-4.1,8.3a3.51,3.51,0,0,1-2.93,2.08c-3.06.41-6.1,0.92-9.16,1.34a3.26,3.26,0,0,0-3,2.31c-0.46,1.48.21,2.59,1.25,3.59,2.2,2.1,4.35,4.26,6.55,6.36a3.55,3.55,0,0,1,1.1,3.43c-0.54,3-1,6.09-1.58,9.12A3.26,3.26,0,0,0,548.8,659a3.2,3.2,0,0,0,3.68.14c2.76-1.47,5.55-2.89,8.31-4.37a3.56,3.56,0,0,1,3.6,0c2.68,1.44,5.39,2.84,8.08,4.25A3.59,3.59,0,0,0,574.34,659.62Z"/><path class="cls-30" d="M693.19,654.23c1.41,0.22,2.82.48,4.24,0.65s2.78,0.73,3.31,2.3-0.18,2.67-1.25,3.7c-2.19,2.11-4.35,4.25-6.53,6.37a3.23,3.23,0,0,0-1.14,2.13c0,2.28.69,4.46,1,6.7,0.15,1.25.41,2.49,0.67,3.72a3.21,3.21,0,0,1-1.09,3.4,3.12,3.12,0,0,1-3.66.27c-2.7-1.41-5.42-2.77-8.07-4.26a4,4,0,0,0-4.29,0c-2.54,1.42-5.15,2.71-7.72,4.08-1.32.71-2.63,1-3.91,0s-1.41-2.26-1.12-3.75c0.49-2.6.86-5.22,1.28-7.84a4.11,4.11,0,0,0-1.27-4.91c-2.13-1.92-4.11-4-6.18-6a3.25,3.25,0,0,1-1.15-3.61,3.43,3.43,0,0,1,3.2-2.27c1.46-.18,2.92-0.44,4.38-0.67l4.64-.62a3.5,3.5,0,0,0,2.88-2.14c1.31-2.74,2.71-5.44,4-8.18a3.28,3.28,0,0,1,6.23,0c1.31,2.74,2.68,5.45,4,8.18a3.47,3.47,0,0,0,2.84,2.17c1.37,0.16,2.71.47,4.1,0.51a0.32,0.32,0,0,0,.46.06l0.07,0.06Z"/><path class="cls-31" d="M680,607.76c-0.09,1.12-.18,2.24-0.29,3.35,0,0.28,0,.67-0.41.7s-0.47-.41-0.5-0.74c-0.1-1.08-.18-2.15-0.27-3.23q-0.44-8.53-.88-17.06c-0.22-4.08-.46-8.16-0.67-12.24-0.09-1.87.81-3,2.31-3s2.37,1.18,2.26,3q-0.8,14.2-1.6,28.39A6.69,6.69,0,0,0,680,607.76Z"/><path class="cls-31" d="M651.45,607.9c1.37,1.57,2.78,3.11,4.1,4.71,0.36,0.43,1.36.86,0.75,1.48s-1-.39-1.42-0.74c-1.81-1.56-3.57-3.17-5.36-4.76-0.32-.29-0.68-0.53-1-0.8l-12.08-10.91c-1.71-1.54-3.43-3.07-5.15-4.6-1.45-1.3-1.64-2.73-.52-3.81s2.47-.87,3.72.53q8.26,9.22,16.5,18.45C651.13,607.61,651.3,607.75,651.45,607.9Z"/><path class="cls-31" d="M701,614.37a0.91,0.91,0,0,1,.27-1.25Q712.13,601,723,588.8a2.32,2.32,0,0,1,3.55-.32c1.05,1,.94,2.49-0.35,3.64q-9.08,8.14-18.19,16.26l-5.83,5.22a2.64,2.64,0,0,1-1.2.75h0Z"/><path class="cls-30" d="M643,634.23a3.44,3.44,0,0,1-1.2,2.16c-2.19,2.12-4.34,4.27-6.56,6.36a3.87,3.87,0,0,0-1.25,3.87c0.58,3,1,6,1.56,9a3.21,3.21,0,0,1-4.84,3.52c-2.57-1.37-5.19-2.65-7.72-4.09a4.39,4.39,0,0,0-4.78,0c-2.53,1.44-5.15,2.71-7.72,4.08a3.21,3.21,0,0,1-3.68-.12,3.25,3.25,0,0,1-1.17-3.49c0.56-3.08,1.06-6.17,1.6-9.25a3.46,3.46,0,0,0-1.1-3.3c-2.23-2.14-4.42-4.32-6.64-6.46a3.23,3.23,0,0,1,1.81-5.82c3.1-.42,6.19-0.92,9.29-1.35a3.33,3.33,0,0,0,2.74-1.93c1.36-2.77,2.76-5.52,4.1-8.3,0.65-1.35,1.51-2.33,3.14-2.34s2.5,1,3.15,2.31c1.33,2.74,2.72,5.45,4,8.19a3.51,3.51,0,0,0,2.91,2.09q4.78,0.65,9.55,1.42A3.2,3.2,0,0,1,643,634.23Z"/><path class="cls-30" d="M527,634.4a3.41,3.41,0,0,1-1.14,1.94c-2.12,2.06-4.2,4.16-6.37,6.17a4.19,4.19,0,0,0-1.44,4.3c0.6,2.85,1,5.74,1.5,8.61a3.3,3.3,0,0,1-1.19,3.6,3.23,3.23,0,0,1-3.68.08c-2.73-1.44-5.48-2.85-8.2-4.31a3.65,3.65,0,0,0-3.72,0c-2.72,1.46-5.47,2.86-8.19,4.31a3.24,3.24,0,0,1-3.79-.13,3.29,3.29,0,0,1-1.11-3.51c0.55-3,1-6,1.56-9a3.62,3.62,0,0,0-1.12-3.54c-2.19-2.11-4.36-4.25-6.55-6.36a3.33,3.33,0,0,1-1.2-3.61,3.28,3.28,0,0,1,3-2.28c3-.41,6-0.92,9-1.31a3.68,3.68,0,0,0,3.09-2.25c1.29-2.71,2.66-5.37,4-8.07,0.65-1.35,1.55-2.31,3.17-2.27s2.47,1,3.11,2.37c1.29,2.71,2.67,5.37,4,8.07a3.62,3.62,0,0,0,3,2.15q4.85,0.66,9.67,1.45C526.05,631.07,527.07,632.39,527,634.4Z"/><path class="cls-30" d="M469.09,634.27a3.73,3.73,0,0,1-1.36,2.29c-2.16,2.08-4.28,4.21-6.46,6.27a3.79,3.79,0,0,0-1.19,3.76c0.57,3,1,6.08,1.58,9.12A3.14,3.14,0,0,1,460.5,659a3.09,3.09,0,0,1-3.55.24c-2.81-1.47-5.63-2.92-8.43-4.42a3.64,3.64,0,0,0-3.71,0c-2.68,1.44-5.39,2.82-8.08,4.25a3.26,3.26,0,0,1-5-3.63c0.57-3,1-6.08,1.58-9.12a3.57,3.57,0,0,0-1.15-3.41c-2.23-2.14-4.42-4.31-6.64-6.45a3.21,3.21,0,0,1,1.83-5.75c3.1-.43,6.19-0.94,9.29-1.36a3.42,3.42,0,0,0,2.82-2c1.35-2.77,2.75-5.53,4.1-8.3a3.28,3.28,0,0,1,6.24,0c1.33,2.74,2.7,5.45,4,8.19a3.6,3.6,0,0,0,3,2.13c3.19,0.42,6.37.92,9.54,1.43A3.23,3.23,0,0,1,469.09,634.27Z"/><path class="cls-30" d="M574.34,659.62a3.59,3.59,0,0,1-1.88-.61c-2.69-1.42-5.4-2.82-8.08-4.25a3.56,3.56,0,0,0-3.6,0c-2.76,1.47-5.55,2.9-8.31,4.37a3.2,3.2,0,0,1-3.68-.14,3.26,3.26,0,0,1-1.16-3.49c0.56-3,1-6.08,1.58-9.12a3.55,3.55,0,0,0-1.1-3.43c-2.2-2.1-4.35-4.26-6.55-6.36-1-1-1.71-2.11-1.25-3.59a3.26,3.26,0,0,1,3-2.31c3.06-.42,6.1-0.93,9.16-1.34a3.51,3.51,0,0,0,2.93-2.08c1.34-2.78,2.74-5.53,4.1-8.3a3.26,3.26,0,0,1,6.17,0c1.35,2.77,2.75,5.53,4.1,8.3a3.5,3.5,0,0,0,2.93,2.07c3.06,0.4,6.11.91,9.16,1.34a3.23,3.23,0,0,1,1.82,5.83c-2.16,2.08-4.27,4.21-6.46,6.27a3.87,3.87,0,0,0-1.23,3.88c0.58,3,1.07,6.08,1.58,9.12A3.15,3.15,0,0,1,574.34,659.62Z"/><path class="cls-32" d="M692.57,654.14c-1.38,0-2.73-.35-4.1-0.51a3.47,3.47,0,0,1-2.84-2.17c-1.34-2.73-2.7-5.44-4-8.18a3.28,3.28,0,0,0-6.23,0c-1.31,2.74-2.71,5.44-4,8.18a3.5,3.5,0,0,1-2.88,2.14l-4.64.62c0.38-2.31.71-4.64,1.17-6.94a4.62,4.62,0,0,0-1.38-4.84c-2-1.78-3.92-3.7-5.84-5.58a7.28,7.28,0,0,1-1.23-1.51,2.91,2.91,0,0,1,2-4.5q4.88-.87,9.79-1.54a3.7,3.7,0,0,0,3.08-2.26q2-4.18,4.1-8.31c1.29-2.55,4-2.76,5.58-.36a77.18,77.18,0,0,1,4.34,8.47,4.12,4.12,0,0,0,3.46,2.57c2.8,0.36,5.59.79,8.39,1.18a4.37,4.37,0,0,1,2.71,1.15,3.11,3.11,0,0,1-.24,4.55q-3.19,3.17-6.48,6.24a4.28,4.28,0,0,0-1.38,4.23c0.47,2.48.84,5,1.25,7.46l-0.09,0L693,654.2Z"/><path class="cls-33" d="M692.57,654.14L693,654.2A0.32,0.32,0,0,1,692.57,654.14Z"/></svg>