<svg id="Layer_1" data-name="Layer 1" xmlns="http://www.w3.org/2000/svg" viewBox="0 0 1080 1080"><defs><style>.cls-1{fill:#e1e2e4;}.cls-2{fill:#383b36;}.cls-3{fill:#737470;}.cls-4{fill:#b0b0b0;}.cls-5{fill:#d8d8d8;}.cls-6{fill:#2e9ba4;}.cls-7{fill:#1c5c5d;}.cls-8{fill:#2a403e;}.cls-9{fill:#297f86;}.cls-10{fill:#cccecd;}.cls-11{fill:#ededec;}.cls-12{fill:#1b3534;}.cls-13{fill:#e0d568;}.cls-14{fill:#eaeaea;}.cls-15{fill:#fff;}.cls-16{fill:#fff46e;}.cls-17{fill:none;stroke:#474747;stroke-miterlimit:10;stroke-width:3px;}.cls-18{fill:#cecece;}</style></defs><title>imagesForKYoungPage_ProjectIllustrations</title><path class="cls-1" d="M1076.12,717.48v74.15c-4.88.6-7.19,5.72-11.86,6.69-2.56-2.53-5.82-1.6-8.8-1.6q-173.25-.07-346.49,0c-3,0-6.24-.87-8.77,1.71a7,7,0,0,1-1.34-.08H376.44a6.7,6.7,0,0,1-1.32.08c-2.53-2.57-5.78-1.71-8.77-1.71q-172.44-.06-344.88,0c-3,0-6.24-.91-8.78,1.65-7.17,1-9.8-6.17-15.16-8.43q0-35.39,0-70.78l1.75-1.44a0.68,0.68,0,0,0-.08-0.94c3.36,0.12,6.72.35,10.07,0.35l1050.88,0C1065.47,717.17,1070.8,717.37,1076.12,717.48Z"/><path class="cls-2" d="M1076.12,717.48c-5.33-.11-10.65-0.31-16-0.31l-1050.88,0c-3.36,0-6.72-.23-10.07-0.35q0-230.31,0-460.63,0-75.36-.21-150.72c0.61-7.23,5.83-9.84,11.75-11.75,2.52,0.07,5,.22,7.57.22q451.52,0,903,0,70.76,0,141.51-.15c6.61,1.56,9.31,7.47,13.28,12V717.48ZM24.51,119.21c-2.79,2.81-1.68,6.38-1.68,9.62q-0.08,275.11,0,550.21c0,3.28-1,6.78,1.39,9.76l2,1.6-0.12.28c2.61,2.43,5.86,1.54,8.85,1.54q503.47,0.06,1006.94,0c3,0,6.22.81,8.95-1.34l1.94-2.13c2.23-2.7,1.38-5.92,1.38-8.92q0.06-275.51,0-551c0-3.24,1.12-6.81-1.69-9.61-3.65-.1-7.29-0.29-10.94-0.29q-494.21,0-988.42,0c-9,0-18,.21-26.95.33A6.14,6.14,0,0,0,24.51,119.21Z"/><path class="cls-1" d="M766,985.4a74.11,74.11,0,0,1,8.39.16c10.25,1.32,15.72,12,11.27,21.36-1.43,3-4.36,5.23-4.52,8.86H294.13c-0.15-4.74-5.32-6.31-6.53-10.45-3-10.37,3.36-19.45,14.11-19.87,2.52-.1,5,0,7.56-0.07H766Z"/><path class="cls-3" d="M1062.84,93.75q-70.76.08-141.51,0.15-451.52,0-903,0c-2.52,0-5-.14-7.57-0.22q0.1-.74.27-1.46H1062.64A4.64,4.64,0,0,0,1062.84,93.75Z"/><path class="cls-4" d="M698.87,798.35q-0.18,13.46-.37,26.91H376.82q-0.19-13.46-.38-26.92H698.87Z"/><path class="cls-5" d="M1064.26,798.33l-364.06.1c2.53-2.57,5.78-1.7,8.77-1.71q173.25-.06,346.49,0C1058.45,796.73,1061.7,795.8,1064.26,798.33Z"/><path class="cls-5" d="M375.12,798.43l-362.44-.05c2.54-2.56,5.8-1.65,8.78-1.65q172.44-.06,344.88,0C369.34,796.72,372.59,795.86,375.12,798.43Z"/><path class="cls-6" d="M26.19,119.24c9-.11,18-0.33,26.95-0.33q494.21,0,988.42,0c3.65,0,7.29.19,10.94,0.29q0,176.09.08,352.18,0.05,108.68.24,217.36l-1.94,2.13c-4.2-.13-8.4-0.36-12.61-0.36q-478.7,0-957.4,0c-18.24,0-36.48.11-54.73,0.17l0.12-.28,0.13-1.7c3.09,0,6.18.09,9.26,0.09H1039c11.81,0,11.82,0,11.82-11.88q0-272.11,0-544.23c0-11.8,0-11.81-11.89-11.81q-279.28,0-558.55,0-227,0-454.08.11Z"/><path class="cls-7" d="M26.14,690.67c18.24-.06,36.48-0.17,54.73-0.17q478.7,0,957.4,0c4.2,0,8.4.23,12.61,0.36-2.72,2.15-5.93,1.34-8.95,1.34q-503.47.05-1006.94,0C32,692.21,28.75,693.1,26.14,690.67Z"/><path class="cls-8" d="M24.22,688.8c-2.37-3-1.39-6.49-1.39-9.76q-0.07-275.11,0-550.21c0-3.24-1.11-6.81,1.68-9.62l0.57,2c-0.09,2.52-.27,5-0.27,7.56q0,275.8,0,551.59c0,2.8.28,5.59,0.43,8.39A3.75,3.75,0,0,0,24.22,688.8Z"/><path class="cls-8" d="M1052.81,688.74q-0.13-108.68-.24-217.36-0.09-176.09-.08-352.18c2.81,2.8,1.69,6.37,1.69,9.61q0.08,275.51,0,551C1054.19,682.83,1055,686,1052.81,688.74Z"/><path class="cls-9" d="M25.08,121.17l-0.57-2a6.13,6.13,0,0,1,1.67,0q0.07,0.88.13,1.75Q25.7,121.09,25.08,121.17Z"/><path class="cls-9" d="M26.39,688.7l-0.13,1.7-2-1.6a3.69,3.69,0,0,1,1-.08l0.57-.06Z"/><path class="cls-10" d="M376.82,825.27H698.5c-2.11,44.18,9.67,84.49,33.74,121.39l-389.22,0c15.21-23.78,26.28-49.19,31.08-77.19C376.62,854.81,376.84,840.06,376.82,825.27Z"/><path class="cls-11" d="M343,946.68l389.22,0C742.35,960.58,756.51,971,766,985.4H309.27c0.5-1.28.66-2.92,1.56-3.77C322.39,970.73,332.56,958.57,343,946.68Z"/><path class="cls-12" d="M26.39,688.7l-0.57,0-0.57.06c-0.15-2.8-.42-5.59-0.42-8.39q0-275.8,0-551.59c0-2.52.17-5,.27-7.56,0.41,0,.82-0.11,1.23-0.18q227-.06,454.09-0.11,279.28,0,558.55,0c11.89,0,11.89,0,11.89,11.81q0,272.11,0,544.23c0,11.87,0,11.88-11.82,11.88H35.65C32.57,688.79,29.48,688.73,26.39,688.7Z"/><path class="cls-13" d="M688.18,599.34c-15.82-59.08,21.7-101.2,6.1-159.44-1.38-5.16-2.84-10.3-4.29-15.44-5.54-19.53-11.88-24.76-31.6-24.78-100.07-.1-215.14-0.09-315.21,0-16.53,0-13.38,2.06-14.37,19.28l13.66,185.79c2.22,8.44,5.2,12.58,14.85,12.55C464.86,617,572.42,617.12,680,617,683,617,683.94,600,688.18,599.34Z"/><rect class="cls-5" x="348.31" y="356.19" width="328.22" height="260.79" rx="11.94" ry="11.94"/><rect class="cls-14" x="363.84" y="343.51" width="328.22" height="260.79" rx="11.94" ry="11.94"/><rect class="cls-15" x="385.41" y="218.15" width="328.22" height="260.79" rx="11.94" ry="11.94"/><path class="cls-16" d="M348.31,615.45c15.82-59.08,31.42-117.32,47-175.55,1.38-5.16,2.84-10.3,4.29-15.44,5.54-19.53,11.88-24.76,31.6-24.78q150.1-.14,300.21,0c16.53,0,18.72,3,14.37,19.28-16.52,61.94-33.35,123.8-49.66,185.79-2.22,8.44-5.2,12.58-14.85,12.55C573.75,617,466.19,617.12,358.63,617,355.59,617,352.55,616.13,348.31,615.45Z"/><path class="cls-16" d="M348.31,615.45c15.82-59.08,31.42-117.32,47-175.55,1.38-5.16,2.84-10.3,4.29-15.44,5.54-19.53,11.88-24.76,31.6-24.78q150.1-.14,300.21,0c16.53,0,18.72,3,14.37,19.28-16.52,61.94-33.35,123.8-49.66,185.79-2.22,8.44-5.2,12.58-14.85,12.55C573.75,617,466.19,617.12,358.63,617,355.59,617,352.55,616.13,348.31,615.45Z"/><rect class="cls-14" x="419.99" y="247.06" width="107.97" height="138"/><line class="cls-17" x1="563.99" y1="256.06" x2="676.53" y2="256.06"/><line class="cls-17" x1="563.99" y1="276.06" x2="676.53" y2="276.06"/><line class="cls-17" x1="563.99" y1="298.06" x2="676.53" y2="298.06"/><line class="cls-17" x1="563.99" y1="316.06" x2="676.53" y2="316.06"/><line class="cls-17" x1="563.99" y1="336.06" x2="676.53" y2="336.06"/><line class="cls-17" x1="563.99" y1="358.06" x2="676.53" y2="358.06"/><line class="cls-17" x1="563.99" y1="379.06" x2="676.53" y2="379.06"/><path class="cls-16" d="M520.61,434l11.73-36.77c0.34-1.08.71-2.16,1.07-3.23,1.38-4.09,3-5.19,7.88-5.19q37.45,0,74.89,0c4.12,0,4.67.62,3.59,4-4.12,13-8.32,25.93-12.39,38.91-0.55,1.77-1.3,2.63-3.7,2.63q-40.25-.1-80.5-0.06A21.91,21.91,0,0,1,520.61,434Z"/><circle class="cls-18" cx="473.97" cy="297.9" r="25.51"/><path class="cls-18" d="M433,368.34a41,41,0,0,1,82,0"/></svg>