<svg id="Layer_1" data-name="Layer 1" xmlns="http://www.w3.org/2000/svg" viewBox="0 0 1080 1080"><defs><style>.cls-1{fill:#e1e2e4;}.cls-2{fill:#383b36;}.cls-3{fill:#737470;}.cls-4{fill:#d8d8d8;}.cls-5{fill:#b0b0b0;}.cls-6{fill:#2e9ba4;}.cls-7{fill:#1c5c5d;}.cls-8{fill:#2a403e;}.cls-9{fill:#297f86;}.cls-10{fill:#cccecd;}.cls-11{fill:#ededec;}.cls-12{fill:#fff;}.cls-13{fill:#cea251;}.cls-14{fill:#0f315b;}.cls-15{fill:#375376;}.cls-16{fill:#fbfbfb;}.cls-17{fill:#d9b77a;}</style></defs><title>imagesForKYoungPage_ProjectIllustrations</title><path class="cls-1" d="M1078.34,729.79v74.15c-4.88.6-7.19,5.72-11.86,6.69-2.56-2.53-5.82-1.6-8.8-1.6q-173.25-.07-346.49,0c-3,0-6.24-.87-8.77,1.71a7,7,0,0,1-1.34-.08H378.65a6.7,6.7,0,0,1-1.32.08c-2.53-2.57-5.78-1.71-8.77-1.71Q196.12,809,23.68,809c-3,0-6.24-.91-8.78,1.65-7.17,1-9.8-6.17-15.16-8.43q0-35.39,0-70.78L1.48,730a0.68,0.68,0,0,0-.08-0.94c3.36,0.12,6.72.35,10.07,0.35l1050.88,0C1067.69,729.48,1073,729.68,1078.34,729.79Z"/><path class="cls-2" d="M1078.34,729.79c-5.33-.11-10.65-0.31-16-0.31l-1050.88,0c-3.36,0-6.72-.23-10.07-0.35q0-230.31,0-460.63,0-75.36-.21-150.72C1.8,110.53,7,107.91,12.94,106c2.52,0.07,5,.22,7.57.22q451.52,0,903,0,70.76,0,141.51-.15c6.61,1.56,9.31,7.47,13.28,12V729.79ZM26.73,131.52c-2.79,2.81-1.68,6.38-1.68,9.62Q25,416.24,25,691.35c0,3.28-1,6.78,1.39,9.76l2,1.6-0.12.28c2.61,2.43,5.86,1.54,8.85,1.54q503.47,0.06,1006.94,0c3,0,6.22.81,8.95-1.34l1.94-2.13c2.23-2.7,1.38-5.92,1.38-8.92q0.06-275.51,0-551c0-3.24,1.12-6.81-1.69-9.61-3.65-.1-7.29-0.29-10.94-0.29q-494.21,0-988.42,0c-9,0-18,.21-26.95.33A6.14,6.14,0,0,0,26.73,131.52Z"/><path class="cls-1" d="M768.26,997.71a74.11,74.11,0,0,1,8.39.16c10.25,1.32,15.72,12,11.27,21.36-1.43,3-4.36,5.23-4.52,8.86H296.35c-0.15-4.74-5.32-6.31-6.53-10.45-3-10.37,3.36-19.45,14.11-19.87,2.52-.1,5,0,7.56-0.07H768.26Z"/><path class="cls-3" d="M1065.06,106.06q-70.76.08-141.51,0.15-451.52,0-903,0c-2.52,0-5-.14-7.57-0.22q0.1-.74.27-1.46H1064.85A4.64,4.64,0,0,0,1065.06,106.06Z"/><path class="cls-3" d="M1.2,117.75q0.11,75.36.21,150.72,0,230.31,0,460.63a0.68,0.68,0,0,1,.08.94l-1.75-.25q0-305.89,0-611.77l0.71-.28H1.2Z"/><path class="cls-4" d="M-0.27,729.79L1.48,730l-1.75,1.44Q-0.27,730.63-.27,729.79Z"/><path class="cls-5" d="M701.08,810.66q-0.18,13.46-.37,26.91H379q-0.19-13.46-.38-26.92H701.08Z"/><path class="cls-4" d="M1066.48,810.64l-364.06.1c2.53-2.57,5.78-1.7,8.77-1.71q173.25-.06,346.49,0C1060.66,809,1063.92,808.11,1066.48,810.64Z"/><path class="cls-4" d="M377.33,810.74l-362.44-.05c2.54-2.56,5.8-1.65,8.78-1.65q172.44-.06,344.88,0C371.55,809,374.8,808.17,377.33,810.74Z"/><path class="cls-6" d="M28.4,131.54c9-.11,18-0.33,26.95-0.33q494.21,0,988.42,0c3.65,0,7.29.19,10.94,0.29q0,176.09.08,352.18,0.05,108.68.24,217.36l-1.94,2.13c-4.2-.13-8.4-0.36-12.61-0.36q-478.7,0-957.4,0c-18.24,0-36.48.11-54.73,0.17l0.12-.28L28.6,701c3.09,0,6.18.09,9.26,0.09H1041.24c11.81,0,11.82,0,11.82-11.88q0-272.11,0-544.23c0-11.8,0-11.81-11.89-11.81q-279.28,0-558.55,0-227,0-454.08.11Z"/><path class="cls-7" d="M28.35,703c18.24-.06,36.48-0.17,54.73-0.17q478.7,0,957.4,0c4.2,0,8.4.23,12.61,0.36-2.72,2.15-5.93,1.34-8.95,1.34q-503.47.05-1006.94,0C34.21,704.52,31,705.41,28.35,703Z"/><path class="cls-8" d="M26.44,701.11c-2.37-3-1.39-6.49-1.39-9.76q-0.07-275.11,0-550.21c0-3.24-1.11-6.81,1.68-9.62l0.57,2C27.2,136,27,138.52,27,141q0,275.8,0,551.59c0,2.8.28,5.59,0.43,8.39A3.75,3.75,0,0,0,26.44,701.11Z"/><path class="cls-8" d="M1055,701.05q-0.13-108.68-.24-217.36-0.09-176.09-.08-352.18c2.81,2.8,1.69,6.37,1.69,9.61q0.08,275.51,0,551C1056.41,695.14,1057.26,698.36,1055,701.05Z"/><path class="cls-9" d="M27.3,133.48l-0.57-2a6.13,6.13,0,0,1,1.67,0q0.07,0.88.13,1.75Q27.91,133.4,27.3,133.48Z"/><path class="cls-9" d="M28.6,701l-0.13,1.7-2-1.6a3.69,3.69,0,0,1,1-.08L28,701Z"/><path class="cls-10" d="M379,837.58H700.71c-2.11,44.18,9.67,84.49,33.74,121.39l-389.22,0c15.21-23.78,26.28-49.19,31.08-77.19C378.83,867.12,379.05,852.37,379,837.58Z"/><path class="cls-11" d="M345.24,959l389.22,0c10.11,13.93,24.27,24.32,33.81,38.75H311.49c0.5-1.28.66-2.92,1.56-3.77C324.6,983,334.78,970.88,345.24,959Z"/><path class="cls-12" d="M28.6,701L28,701l-0.57.06c-0.15-2.8-.42-5.59-0.42-8.39Q27,416.84,27,141c0-2.52.17-5,.27-7.56,0.41,0,.82-0.11,1.23-0.18q227-.06,454.09-0.11,279.28,0,558.55,0c11.89,0,11.89,0,11.89,11.81q0,272.11,0,544.23c0,11.87,0,11.88-11.82,11.88H37.87C34.78,701.1,31.69,701,28.6,701Z"/><path class="cls-13" d="M422.09,585.21h5.44c8,0,9.23,1.83,6.58,9.78-4,12-15.39,19.56-27.19,18.07-14.15-1.78-23.92-11.23-25.22-24.39-1.13-11.44,4.43-22.16,14.16-27.28s24.22-3.68,31.82,3.09c1.79,1.6,4.58,3.16,1.46,6-2.26,2.09-3.72,5.18-7.87,1.8-6.78-5.53-17.19-5.42-23.31-.64a17.18,17.18,0,0,0-5.53,20c4.13,11.07,19.93,15.5,28,7.82,1-1,2.63-1.94,2.18-3.49-0.53-1.83-2.45-1-3.79-1.09a20,20,0,0,0-4.35,0c-4.28.57-5.76-1.08-5.55-5.45,0.16-3.36,1.25-4.53,4.5-4.32C416.27,585.36,419.19,585.21,422.09,585.21Z"/><path class="cls-14" d="M796.88,558.44c14.82,0,26.54,12,26.69,27.22A27,27,0,0,1,797,613c-14.81.11-27.27-12.57-27.11-27.59A27,27,0,0,1,796.88,558.44ZM797,568c-9.84-.11-17.45,7.56-17.47,17.63a17.52,17.52,0,0,0,17,17.75c9.54,0.23,17.47-7.84,17.43-17.75S806.48,568.14,797,568Z"/><path class="cls-13" d="M495.86,586.12c-0.17,14.85-12.58,27.27-27,27-14.81-.24-27.34-13.23-26.89-27.88,0.46-15,12.74-27.23,27.18-27A27.36,27.36,0,0,1,495.86,586.12Zm-9.69-.06A17.68,17.68,0,0,0,469,567.93c-9.47-.13-16.92,7.33-17.3,17.31a17.85,17.85,0,0,0,17.09,18.23C477.83,603.69,486,595.54,486.17,586.06Z"/><path class="cls-13" d="M277.09,558.93c12.77-2.58,27.43,11.74,27.1,26.84s-11.92,27.31-26.6,27.39c-15,.08-26.87-12-26.87-27.45C250.72,569.88,261.46,559,277.09,558.93Zm17.36,26.91c0.05-9.73-7.36-17.67-16.7-17.91-9.71-.24-17.29,7.42-17.35,17.54-0.06,9.85,7.14,17.71,16.46,18S294.4,595.6,294.46,585.84Z"/><path class="cls-14" d="M722,585.73q0-11.14,0-22.28c0-1.82-.26-3.75,2.6-3.64,7.39,0.29,14.84-.64,22.16,1.28a19.76,19.76,0,0,1,9.23,5.43c8.8,8.95,9.77,26.77,2,36.68a20.14,20.14,0,0,1-13.76,7.85c-6.33.83-12.66,0.36-19,.62-2.84.12-3.29-1.34-3.27-3.67C722,600.58,722,593.16,722,585.73Zm31.54,0.34c0-11.39-7.88-18.09-19.26-16.65-2.16.27-2.72,1.14-2.71,3.1,0.06,8.71,0,17.42,0,26.13,0,1.79.33,3,2.53,3.38C745.6,604.2,753.56,597.74,753.52,586.07Z"/><path class="cls-13" d="M313.35,585.18c0-7.07.11-14.15,0-21.21-0.07-3,.93-4.25,4.05-4.1,5.43,0.25,10.88,0,16.31.33A20.21,20.21,0,0,1,350.85,571c4.88,8.59,5.16,17.73,1.78,26.75-4,10.69-13.08,13.66-23.53,14.2-15.76.82-15.76,0.89-15.76-14.77Q313.34,591.17,313.35,585.18Zm9.67,0.54c0,4.17,0,8.35,0,12.52,0,1.45,0,2.82,1.81,3.49,6.9,2.46,17-1.69,19-8.61,3.55-11.86-.76-23.84-15.86-23.6-3.59.06-5.39,0.75-5.06,4.78C323.26,578.08,323,581.91,323,585.72Z"/><path class="cls-14" d="M843.31,590.48c0,5.61-.25,11.23.09,16.82,0.24,3.92-1.5,4.54-4.8,4.4-2.9-.12-5.11.14-5-4.13,0.27-14.69.17-29.38,0-44.07,0-2.84.83-3.86,3.7-3.71,4.7,0.26,9.44,0,14.13.36,6.34,0.45,10.66,4.06,12.3,9.79,1.87,6.5.07,13-5.33,16.34-3.13,2-3.28,3.53-1.59,6.42,2.92,5,5.42,10.24,8.31,15.27,1.7,3,.81,3.51-2.26,3.75-4.67.36-7.75-.79-9.75-5.52-2.37-5.57-5.65-10.75-8.54-16.1Zm0-16.55c0,3-1,6.43,3.87,5.87,3.43-.39,7.35-0.19,7.36-5.07,0-4.69-3.57-4.94-7.19-5.31C843.31,569,842.87,571.09,843.34,573.93Z"/><path class="cls-14" d="M592.12,558.44a28.57,28.57,0,0,1,19.35,7.34c1.54,1.35,4,3.07.92,5-2.11,1.33-3.26,6.24-7.27,2.46a19,19,0,0,0-12.25-5.18c-7.84-.46-14.59,3.59-17.46,10.42s-1.18,15.4,3.93,20.1a18.8,18.8,0,0,0,20.77,2.77,22.08,22.08,0,0,0,4.93-3.33c1.91-1.81,3.22-1.49,5,.21,4.43,4.23,4.44,5.12-.54,8.85-10.07,7.54-24.32,7.94-34.06,1-9.56-6.85-13.53-19.77-9.71-31.56C569.22,565.76,580.06,558.34,592.12,558.44Z"/><path class="cls-14" d="M690.21,559.88c3.55-.73,5.14.85,6.36,4.16,5.2,14.07,10.76,28,16.06,42,0.63,1.67,3.22,4.49-.09,5.23-2.68.6-7.75,2.35-8.54-1.77-1.91-9.92-8.75-8.67-15.85-9-6.22-.26-10.36.8-11.77,7.65-0.65,3.16-7.46,4.95-9.92,3.1-1.19-.9-0.63-2-0.27-2.93,5.88-15.36,11.87-30.69,17.68-46.08C685.19,558.8,688,560.2,690.21,559.88Zm-0.08,14.36c-3.28,4.94-4.31,9.93-6.31,14.48-0.84,1.92.49,2.58,2.24,2.57,2.54,0,5.07,0,7.61,0,2.28,0,3-1,2.17-3.07C694.08,583.78,692.23,579.36,690.13,574.24Z"/><path class="cls-13" d="M194.31,587.73c0.07-13.51,6-22.71,15.83-26.83,11.07-4.63,24.16-2.42,31.9,5.29,1.63,1.62,2.82,3.26.3,4.76-2.08,1.23-3,6-6.85,2.6a19.65,19.65,0,0,0-13.34-5.24c-8.24,0-14,3.47-16.76,10.49-2.69,6.71-1,15.18,3.85,19.67a18.6,18.6,0,0,0,20.27,3.09,14.06,14.06,0,0,0,4.15-2.56c3.81-3.95,6-1.55,8.45,1.66,3.13,4.08-.86,5.07-2.8,6.52-9.63,7.21-20.18,8-30.76,2.74A24.56,24.56,0,0,1,194.31,587.73Z"/><path class="cls-14" d="M529.27,585.38c0-7.25.09-14.49,0-21.73,0-2.75.8-3.91,3.7-3.85,7.06,0.14,14.13.21,21.19,0,3.72-.12,3.62,2.06,3.46,4.51s1,5.4-3.36,5.22c-4-.17-8,0.12-12-0.07s-3.23,2.43-3.27,4.72-0.3,4.85,3.42,4.68,7.62,0.18,11.41-.09c4-.28,3.85,2.15,3.78,4.83-0.07,2.51.55,5.26-3.62,4.94-3.42-.26-6.89.12-10.32-0.1s-4.85.74-4.75,4.51c0.31,10.8-.76,8.88,8.91,9.07a39.49,39.49,0,0,0,4.34,0c3.5-.32,5.7.05,5.59,4.71-0.1,4.2-1.42,5.23-5.37,5-6.14-.32-12.32-0.24-18.47,0-3.47.12-4.85-.91-4.72-4.58C529.45,599.88,529.27,592.63,529.27,585.38Z"/><path class="cls-14" d="M656.79,580.26c0,5.8.31,11.62-.07,17.39-0.59,8.88-7.22,15-16,15.39-9.1.37-16.65-5.3-17.63-14.2-1.33-12.09-.4-24.27-0.47-36.41,0-4.43,3.67-2.13,5.74-2.55,2.5-.5,4,0.2,3.91,3.36-0.18,10.51-.16,21,0,31.55,0.07,6,3.66,9.39,8.73,8.41,4.4-.85,6.39-3.69,6.38-8.13,0-10.15.19-20.31-.05-30.46-0.09-3.81,1-5,4.85-4.91,3.63,0,5.24.79,5,4.79C656.8,569.72,657,575,657,580.26h-0.26Z"/><path class="cls-13" d="M362.93,585.15c0-7.07.15-14.14-.06-21.21-0.11-3.65,1.72-4.1,4.69-4.09s4.74,0.35,4.7,4q-0.24,21.75,0,43.5c0,3.58-1.62,4.18-4.65,4.15s-4.82-.46-4.73-4.1C363.07,600,362.93,592.59,362.93,585.15Z"/><path class="cls-15" d="M499.31,639c-1.62,3.55-2.69,8-6.52,2.53-0.81-1.16-1.88-.81-2,0.79-0.11,1.26-.52,2.2-2,1.4-1-.54-1.82-1.49-1.1-2.65,1.52-2.45,1.16-5.22,1.6-7.86,0.23-1.37.1-3.14,2-3.45,2.16-.36,2.6,1.45,3.21,3,0.51,1.27.1,3,1.76,3.74a2.89,2.89,0,0,0,.72-0.52c1.44-2,.24-6.42,4.07-5.95,3.28,0.41,1.41,4.28,2.4,6.41a4.89,4.89,0,0,1,.38,2.12c0,1.85,1.68,4.53-.74,5.32C500.31,644.69,500.51,641.24,499.31,639Z"/><path class="cls-15" d="M778.43,639.32l-3.27,5.61c-2.32-.86-2-3.6-3.82-4.51-1.78.63-.84,4.31-3.27,3.47-2.18-.76-0.82-3.18-0.7-4.87a46,46,0,0,1,.82-5.36c0.28-1.48-.36-3.54,2-3.86s2.48,1.65,3,3.13c0.43,1.15.77,2.33,1.14,3.47,1.93-.23,1.83-1.75,2.1-2.88,0.39-1.61.5-3.43,2.89-2.84,1.91,0.47,2.32,1.86,2.16,3.71a14.78,14.78,0,0,0,.26,4.86c0.42,1.64,2.19,3.67-.5,4.34C778.8,644.2,779.55,641.18,778.43,639.32Z"/><path class="cls-15" d="M811.1,638.56c-1.92,1.32.4,5.45-2.53,5.12-3.19-.35-1.28-3.84-1.7-5.91a10.34,10.34,0,0,1,0-3.23c0.2-1.65-.91-3.93,1.44-4.7,2-.66,2.67,1.37,3.57,2.64,1.52,2.12,2.51,1.8,3-.61,0.26-1.19.8-2.19,2.08-1.93s1.3,1.55,1.33,2.64a13.28,13.28,0,0,1,0,2.7c-0.52,2.88,1.77,7.06-1.44,8.43C813.43,645.17,813.72,639.59,811.1,638.56Z"/><path class="cls-14" d="M632.83,638c-2.05,1.65-.78,5.47-3.91,5.57-2.63.08-2.42-3.15-3.79-4.56-2.28.32-.79,3.33-3.21,4-1.79-4.35-.24-8.47,1.13-12.28,0.71-2,2.78-1,3.55.82,0.68,1.66,1.09,3.43,1.61,5.09,1,0.07,1.23-.53,1.66-1.15,1.29-1.89.28-6.07,3.87-5.46,2.66,0.45,1.69,3.95,2.36,6.08a3.14,3.14,0,0,1,.15,1.61c-0.48,1.88,1.94,5.11-1,5.46C632,643.61,634,639.79,632.83,638Z"/><path class="cls-13" d="M291.67,543.39c-4.6,4.14-8.53,7.79-12.59,11.29-2,1.7-4.87,1.88-6.56.52-1.54-1.24.7-3.17,1.54-4.6C279.65,541.1,281.5,540.25,291.67,543.39Z"/><path class="cls-15" d="M340.08,636.34c1.39,0.26,3-.44,3.48,1.23a4.52,4.52,0,0,1-1,4.07,7.1,7.1,0,0,1-10.15,1.28,7.63,7.63,0,0,1-1.54-10.64c2.37-3,7.44-3.85,10.26-1.71,0.76,0.58,1.6,1.17.9,2.15-1.08,1.51-2.23.21-3.35-.12-3-.86-5.14.2-5.92,3.09s0.76,4.88,3.53,5.81a2.06,2.06,0,0,0,2.47-.59c0.89-1.31-.41-1.32-1.11-1.72a1.37,1.37,0,0,1-.72-1.81C337.66,635.81,339.19,636.78,340.08,636.34Z"/><path class="cls-15" d="M224.07,637.41c-1.37,2.14.54,7.3-3.27,7.31-8.11,0-10.83-2-11.2-7.83a7.16,7.16,0,0,1,7.56-7.46C221,629.58,224.13,633,224.07,637.41Zm-3-.87a6.68,6.68,0,0,0-.19-1.06c-0.71-2-1.94-3.52-4.31-3.33a4,4,0,0,0-3.88,3.8c-0.3,2.35.28,4.46,2.65,5.35,4,1.48,1.13-1.92,1.89-2.78a1.52,1.52,0,0,1,1.91-.32C220.78,638.8,221,637.71,221.11,636.54Z"/><path class="cls-15" d="M387.44,636.15c0.59-2.51-1.93-7.47,4.41-6.36,2,0.36,3.74,1.58,3.48,4.08-0.13,1.25-.47,2.39.38,3.58a3.58,3.58,0,0,1-.69,5.27,5.85,5.85,0,0,1-6.07,1.2c-2.26-.85-1.32-3.06-1.49-4.75C387.37,638.28,387.44,637.37,387.44,636.15Z"/><path class="cls-15" d="M405.51,643.82c-1.55-.13-1.7-1-1.22-2.25,1.29-3.36,2.37-6.82,3.91-10.07,1.43-3,3.4-2.4,4.61.2,1.44,3.09,2.45,6.37,3.7,9.55,0.36,0.92.53,1.82-.31,2.42a1.37,1.37,0,0,1-1.92-.35c-2.62-3.36-5.21-3.39-7.8.05A2.42,2.42,0,0,1,405.51,643.82Z"/><path class="cls-15" d="M535.63,644.49a7.41,7.41,0,0,1-7.31-7.19c-0.27-5,2-7.69,6.6-7.87a7.28,7.28,0,0,1,7.87,7.11A7.72,7.72,0,0,1,535.63,644.49Zm4.07-8c-0.24-2.46-1.52-4.28-4.31-4.3s-4.07,2.08-4.09,4.63c0,2.87,1.49,5,4.53,4.78C538.54,641.41,539.69,639.34,539.7,636.48Z"/><path class="cls-15" d="M372.4,629.73c4.55,0.1,7.62,3.17,7.46,7.47-0.14,3.88-3.59,7.42-7.41,7.24-3.16-.15-6.39-1.5-6.43-4.94C365.89,630.91,367,629.62,372.4,629.73Zm4.25,7c-0.28-2.19-1.11-4.39-4.05-4.55s-4.23,1.86-4.35,4.47,1.15,4.71,4,4.92S376.27,639.72,376.65,636.76Z"/><path class="cls-15" d="M614.33,642.06c-0.24,1.87-1.33,2.58-2.5,1.28-2.7-3-5.1-3.78-7.8-.09a2,2,0,0,1-1.9.36c-1.05-.46-0.72-1.45-0.38-2.31,1.24-3.19,2.38-6.43,3.73-9.57,0.85-2,2.81-3.16,4.06-1C611.57,634.3,612.8,638.33,614.33,642.06Z"/><path class="cls-15" d="M198.25,633.78c3.84,2.06,3.86,2.09.73,4.34-1.51,1.09-1.21,2,.09,2.92,1,0.72,3.41-.42,2.88,2.13-0.22,1.07-1.37,1.11-2.26,1-1.68-.17-4.2.93-4.74-1.4-0.9-3.88-1.19-8.14.07-11.81,0.94-2.73,4.37-1.54,6.69-.87,0.72,0.21.79,1.56-.37,2.09S198.64,632,198.25,633.78Z"/><path class="cls-14" d="M845,637.18c2-2.56-.89-6.91,2.38-6.81,2.77,0.09.74,4.25,1.31,6.52a5.76,5.76,0,0,1,0,2.15c-0.21,1.49.82,3.55-1.16,4.3-2.41.91-2.85-1.51-3.82-2.87-0.62-.86-1-2-2.15-2.29a2.38,2.38,0,0,0-.85.55c-0.9,1.54,1,4.93-1.78,4.73-2.26-.17-0.89-3.33-1.15-5.14a17.15,17.15,0,0,1,0-4.31c0.17-1.44-.91-3.62,1.35-4,1.91-.35,2.55,1.64,3.38,3S844.13,635.65,845,637.18Z"/><path class="cls-15" d="M291.5,641.48a2.1,2.1,0,0,1-1.25,2c-0.91.47-1-.35-1.44-0.89-2-2.55-4.21-2.18-6.25,0-0.76.81-1.38,1.8-2.59,0.88-0.89-.67-0.54-1.61-0.2-2.45,1.25-3.18,2.36-6.42,3.81-9.51,1.16-2.45,3.13-2.63,4.3-.14A106.93,106.93,0,0,1,291.5,641.48Z"/><path class="cls-15" d="M718.36,636.54c0.07,5.07-2.36,8-6.61,7.93-3.85,0-8.07-4-7.63-7.73,0.5-4.22,3-6.94,7.44-7.26S718.29,631.74,718.36,636.54Zm-6.7-4.47c-2.32.39-4.08,1.54-4.19,4.44-0.11,3.05,1.39,4.93,4.35,5.08S716,639.47,716,637,714.79,632.51,711.66,632.08Z"/><path class="cls-15" d="M870.81,637.27c0,4.49-2.6,7.3-6.6,7.19-3.84-.1-7.71-4-7.66-7.66s3.92-7.38,7.84-7.36C868.86,629.45,870.84,631.86,870.81,637.27ZM860,636.21c-0.27,3,1.07,5,4,5.38,3.23,0.37,4.52-2,4.56-4.73,0-2.49-1.25-4.65-4.15-4.63C861.93,632.24,859.7,633,860,636.21Z"/><path class="cls-15" d="M659.43,633.8c0.45,1.51,1.74,1.09,2.7,1.36a1.41,1.41,0,0,1,1.34,1.41c-0.1,1.2-1.13,1.18-2,1.29-1.11.13-2.29,0.31-2.11,1.77a2.53,2.53,0,0,0,1.22,1.53c0.94,0.55,2.8-.31,2.82,1.63,0,1.08-1,1.44-2,1.39-1.88-.1-4.65.94-5.31-1.36C655,639,655.4,635,656,631.05c0.22-1.51,6.77-2.15,7.2-.75C664.26,633.85,659.86,631.29,659.43,633.8Z"/><path class="cls-15" d="M573.22,633.69c0.86,2.11,3.33.73,4.21,2.6-0.24,2.68-4.07.64-4.32,2.82-0.35,3,3.2,1.58,4.4,3.37-1.34,2.86-4,1.77-6,1.52-2.57-.31-1.88-2.67-1.93-4.37-0.07-2.35,0-4.71,0-7.06,0-1.33.19-2.77,1.86-2.77,2,0,5-1.29,5.74,1.14S573.93,631.47,573.22,633.69Z"/><path class="cls-15" d="M477.39,634.48a3.67,3.67,0,0,0,.91.46c1.11,0.35,2.9-.18,2.89,1.65,0,1.45-1.55,1.05-2.5,1.37-1.93.64-2.07,1.77-.56,3.08,0.92,0.8,3.6-.33,2.89,2-0.59,2-2.8,1-4.32,1.1-2,.16-3-0.9-2.92-2.93,0-3.07,0-6.14,0-9.22,0-1.88,1.08-2.58,2.79-2.38,1.52,0.18,3.8-.9,4.41.92C482,633.67,477.3,631.2,477.39,634.48Z"/><path class="cls-15" d="M260.63,636.8c1.07-2.68-2-7.29,4-7.17,4.61,0.09,7.63,2.89,7.68,7.35s-2.9,7.25-8.28,7.11C258.19,643.93,262.14,639.06,260.63,636.8Zm2.48,0.08c0.09,1.89-.48,4.41,2.38,4.48,2.66,0.07,3.65-2.06,3.61-4.43s-1-4.5-3.64-4.49C262.48,632.45,263.26,635,263.11,636.88Z"/><path class="cls-15" d="M799.14,636.34c-1,2.53-4.68.18-4.56,3.38,0.1,2.78,3.3.72,4.25,2.94-1.18,2.54-3.76,1.65-5.75,1.36-2.61-.37-1.64-2.77-1.75-4.41s0.18-3.62-.07-5.39c-0.73-5.32,2.78-4.79,6.07-4.48a2.24,2.24,0,0,1,1.58,1.13c0.34,0.84-.46,1.15-1.17,1.4-1.08.38-3-.43-3.1,1.31-0.1,2.25,2.22,1.07,3.31,1.73A10.08,10.08,0,0,1,799.14,636.34Z"/><path class="cls-15" d="M512.4,636.23c0.63-2.48-2.06-7.38,4.28-6.59,2.07,0.26,3.88,1.06,4.23,3.49,0.3,2.06-.5,3.74-2.45,4.31s-3.06,1.63-2.87,3.82c0.09,1.11-.18,2.41-1.54,2.44-1.86,0-1.59-1.6-1.64-2.8C512.35,639.46,512.4,638,512.4,636.23Z"/><path class="cls-15" d="M760.53,630.78c-0.53,1.71-1.71,1.55-2.75,1.67a1.29,1.29,0,0,0-1.41,1.26,1.42,1.42,0,0,0,1.37,1.33c5.37,1.39,3.27,2-.22,3-2,.53-1.76,2-0.23,3.13,1,0.71,3.33-.5,2.89,2-0.16.92-1.32,1.15-2.25,1.07-1.69-.15-4.35.78-4.66-1.44-0.53-3.87-1.1-8.2.15-11.69C754.41,628.28,758,629.32,760.53,630.78Z"/><path class="cls-14" d="M588.3,640.64c0.1,1.07.4,2.41-.91,2.78s-1.82-.83-1.84-2c0-3.08-.16-6.17,0-9.24,0.23-3.57,3.08-2.58,4.93-2.15s4.41,1.25,2.81,4.44c-1,1.89-2.51,3.75-1.37,6.15l-0.84.95-1.34-1.25c0-1-.4-1.89-1.56-1.38C587.43,639.32,587.58,640.11,588.3,640.64Z"/><path class="cls-15" d="M238.79,629.77c5,1.92,1.75,6.08,2.4,9.15a4.49,4.49,0,0,1-3.07,5.16c-2.67,1-4.75-.23-5.67-2.66-1.24-3.26-.6-6.76-0.4-10.16A1.32,1.32,0,0,1,233.5,630c0.95,0,1.1.77,1.13,1.49,0.09,2.7.14,5.4,0.21,8.1a1.57,1.57,0,0,0,2,1.78c1.28-.24,1.44-1.47,1.51-2.53C238.54,635.81,238.65,632.79,238.79,629.77Z"/><path class="cls-14" d="M307.47,633c3.7,0.8,5,5.14,2.4,8.41-2.06,2.63-5,2.84-7.93,2.29s-1.59-3.2-1.76-5a34.29,34.29,0,0,1,0-6.52c0.38-4,3.52-1.92,5.47-2.18,2.42-.33,3.49.66,1.94,3.07-4.14-1.49-6.34-.61-5.49,4.33,0.31,1.8-.61,4.3,2.64,4,2.63-.21,3.76-2,3.66-4.39A22.23,22.23,0,0,0,307.47,633Z"/><path class="cls-14" d="M558,633c3.7,0.8,5,5.14,2.4,8.41-2.06,2.63-5,2.84-7.93,2.29s-1.59-3.2-1.76-5a34.29,34.29,0,0,1,0-6.52c0.38-4,3.52-1.92,5.47-2.18,2.42-.33,3.49.66,1.94,3.07-4.14-1.49-6.34-.61-5.49,4.33,0.31,1.8-.61,4.3,2.64,4,2.63-.21,3.76-2,3.66-4.39A22.23,22.23,0,0,0,558,633Z"/><path class="cls-15" d="M689.95,630.74c4.63-1.06,8.46-2.44,6,4.27-0.7,1.92-.1,4.3-0.15,6.46,0,1.14-.35,2.29-1.76,2.22s-1.46-1.29-1.6-2.38C692,637.88,693.75,634,689.95,630.74Z"/><path class="cls-15" d="M745.62,636.45c-3.59,1.15-5.18,2.66-4.67,5.72a1.35,1.35,0,0,1-1.7,1.53,2.1,2.1,0,0,1-1.24-1.52c-0.12-3.61-.87-7.47.14-10.78,1.08-3.53,4.15-1.39,7-.75C742,632.66,738,634.34,745.62,636.45Z"/><path class="cls-15" d="M677.36,639.74l-2-2.52a2,2,0,0,0-.59.56c-0.85,2,1.32,5.92-1.86,5.79-2.64-.11-1-4-1.39-6.14a4.32,4.32,0,0,1,0-1.63c0.39-2-1.22-5,1.3-5.82,2.68-.91,3.17,2.31,4.38,4,0.73,1,1.19,2.47,2.83,1.15C680.64,637.5,679.68,639,677.36,639.74Z"/><path class="cls-15" d="M424.24,636.26c0.84-1.76-1.58-5.93,1.58-6s1.26,4.06,1.77,6.28c0.31,1.36-.21,2.87.79,4.15,0.73,0.94,3.52.57,2.12,2.79-0.87,1.38-2.66.74-4,.64-1.87-.14-2.22-1.55-2.21-3.12S424.24,638.12,424.24,636.26Z"/><path class="cls-15" d="M353.34,629.81c2,0.74,1.26,2.42,1.51,3.72,0.55,2.89-1.72,6.78,3,8.22a1,1,0,0,1,.13,1.73,5.08,5.08,0,0,1-5.6-.16c-0.9-.61-1.06-11.87-0.27-12.76A4.58,4.58,0,0,1,353.34,629.81Z"/><path class="cls-15" d="M644.08,637c1.2-2.49-1.23-6.65,1.85-6.73,3.35-.09,1.56,4,1.6,6.16,0,2.4,1.52,6.89-1.36,6.91C642.52,643.36,645.77,638.84,644.08,637Z"/><path class="cls-15" d="M249.36,637.15c1-2.53-1.31-6.8,2-6.9,2.64-.08,1.4,4.22,1.32,6.48s1.67,6.61-1.67,6.66C248.24,643.44,250.55,639.11,249.36,637.15Z"/><path class="cls-15" d="M826.18,636.37c1-2-1.41-6.19,1.9-6.13,2.83,0.06,1.37,4.2,1.33,6.43s1.59,6.79-1.54,6.74C824.94,643.37,827,638.87,826.18,636.37Z"/><path class="cls-14" d="M677.36,639.74c2.31-.74,3.28-2.24,2.63-4.65l0.13-4.17h2.15a47.17,47.17,0,0,1-.05,12l-2.52.26C678.34,642.4,677.94,641,677.36,639.74Z"/><path class="cls-12" d="M238.79,629.77c-0.14,3-.25,6-0.45,9.06-0.07,1.05-.23,2.29-1.51,2.53a1.57,1.57,0,0,1-2-1.78c3-.76,1.56-3.2,1.88-5S235.82,630.41,238.79,629.77Z"/><path class="cls-15" d="M679.69,643.14l2.52-.26C681.58,645,680.66,644.31,679.69,643.14Z"/><path class="cls-15" d="M682.27,630.92h-2.15A1.08,1.08,0,1,1,682.27,630.92Z"/><path class="cls-15" d="M588.3,640.64c-0.72-.53-0.87-1.33-0.08-1.68,1.15-.52,1.51.37,1.56,1.38Z"/><path class="cls-14" d="M592,640.64a1.23,1.23,0,0,1,.7,2l-1.54-1.08Z"/><path class="cls-16" d="M797,568c9.51,0.11,16.88,7.79,16.92,17.63s-7.88,18-17.43,17.75a17.52,17.52,0,0,1-17-17.75C779.53,575.59,787.14,567.92,797,568Z"/><path class="cls-16" d="M486.17,586.06c-0.21,9.48-8.34,17.63-17.36,17.4a17.85,17.85,0,0,1-17.09-18.23c0.38-10,7.83-17.43,17.3-17.31A17.68,17.68,0,0,1,486.17,586.06Z"/><path class="cls-16" d="M294.46,585.84c-0.05,9.76-8.17,17.89-17.59,17.61s-16.52-8.13-16.46-18c0.06-10.12,7.63-17.77,17.35-17.54C287.09,568.17,294.51,576.11,294.46,585.84Z"/><path class="cls-16" d="M753.52,586.07c0,11.66-7.93,18.13-19.43,16-2.2-.41-2.53-1.59-2.53-3.38,0-8.71,0-17.42,0-26.13,0-2,.55-2.83,2.71-3.1C745.64,568,753.49,574.68,753.52,586.07Z"/><path class="cls-16" d="M323,585.72c0-3.81.24-7.64-.07-11.43-0.33-4,1.47-4.72,5.06-4.78,15.1-.24,19.42,11.74,15.86,23.6-2.08,6.93-12.13,11.08-19,8.61-1.86-.66-1.81-2-1.81-3.49C323,594.07,323,589.9,323,585.72Z"/><path class="cls-16" d="M843.34,573.93c-0.47-2.84,0-4.94,4-4.52,3.62,0.38,7.2.62,7.19,5.31,0,4.88-3.93,4.68-7.36,5.07C842.3,580.36,843.38,576.92,843.34,573.93Z"/><path class="cls-12" d="M690.13,574.24c2.1,5.12,3.94,9.54,5.71,14,0.81,2,.11,3.11-2.17,3.07-2.54,0-5.07,0-7.61,0-1.75,0-3.08-.66-2.24-2.57C685.82,584.17,686.86,579.17,690.13,574.24Z"/><path class="cls-17" d="M545.18,470.47c-0.52-6.71-1.48-13.42-1.49-20.14q-0.15-131.08-.05-262.15c0-22.14,2.59-24.34,24.59-21.63,62.67,7.73,114.7,67.13,114.61,131.22,0,6.14,2.33,10.54,6.07,14.82,21.39,24.44,31,54.29,37.34,85.14,6.95,33.78-17.78,67.77-50.08,71l-4.89-5.17c15.86-7.77,31.19-15.08,40-32.7,10.85-21.64,2.52-40.94-3.26-60.76-4-13.61-10.89-26.06-18.22-38.26-17.19-28.57-41.87-35.15-71.16-18.24-6,3.48-11.54,4.16-17.07-.2-5.34-4.22-9.13-11.24-4.83-16.11,13.79-15.65,8.07-34,8.37-51.16,0.22-12.6,2.26-23.23,13.13-30.51,10.17-6.82,7.47-12.81-1-18.17-15.79-10-33.16-16.13-51.35-20-11.2-2.41-11.78,4.59-11.75,12.92q0.44,135,.6,270Zm69.33-211.09c-2.66,33.59,6.43,37.72,35.29,36.16a56.73,56.73,0,0,1,7.36,0c16.68,1.27,18.7-7.55,14.44-20.8-4.89-15.22-10.11-30.37-20.05-43.13-4.56-5.85-7.47-17.79-16.77-13.75-9.5,4.13-19,11.8-20.17,24.29C614,248.24,614.52,254.42,614.52,259.38Z"/><path class="cls-15" d="M400.21,295.36c-6-3.9-4.64-10-3.32-15,15.23-58.1,49.38-97,111-111.85,7.58-1.82,14.6.89,21.92,0.47,4.51-.26,6.84,2.08,5.93,6.8-0.86,4.42-2.87,5.58-7.67,4.18-23.55-6.85-42.42,5.79-61.86,15.65-11.27,5.71-14.49,12.52-2.89,21.63,3.74,2.94,7.94,6,9,11.26l-9,.54c-4.57-3.93-9.25-7.74-13.65-11.85-3.16-2.95-6-4-9.16-.22-18.63,22.32-35,45.62-32.61,76.85Z"/><path class="cls-15" d="M545.18,470.47l9.58-10.16c10.27-9.63,20.51-19.3,30.83-28.87,3.8-3.53,6.48-7.61,5.69-12.92-3.35-22.32,8.14-46.36-8.57-67.34-4.09-5.13-1.11-12,4.55-16.11s11.61-4.1,17.21-.33c5.89,4,8.28,11.5,4.75,16.23-14.12,19-6.57,40.23-7.47,60.35-0.56,12.54-3.23,22.13-12.71,30.72-12.25,11.11-23.32,23.53-34.9,35.38L543.77,477Z"/><path class="cls-14" d="M409.63,462.79L421.34,463c1.5,0.56,3.38,2,4.42,1.5,2.39-1.08,3.47-3.27,1.43-5.84q-0.27-16.61-.54-33.22c-0.15-10.31,1.17-20.48-6.72-29.59-4.95-5.71-2.74-13.18,3.35-17.92,4.77-3.72,10.72-3.41,15.61-.21,6.84,4.47,8,12.53,3.86,18-14.3,19-5.45,40.29-7.16,60.42-0.82,9.63,4.88,11.35,13,6,5-3.29,10.33-6.54,16-8.2,5.33-1.57,11.28-.71,14.43,5.21,2.76,5.2,3.23,11-.2,15.77-2.85,3.93-9.07,8.39-12.63,5.34-18.07-15.48-40.24-6.43-59.91-11.41Z"/><path class="cls-13" d="M671.29,463.52l4.89,5.17c-10.43,4.93-21.56,3.79-32.57,3.85-7.29,0-14.58-.83-20.85,4.88-6.67,6.07-13.55,4.8-19.29-1.86-4.45-5.17-5.69-11.15-1.36-16.85,5.91-7.77,12.71-4.72,19.52-.89,16.65,9.36,24.94,5.18,24.15-13.63-0.69-16.56,5.74-34.32-8-49.38-4.1-4.5-2.46-12.15,3.47-16.31,6.23-4.38,12.89-4.07,18.47,1.28,4.95,4.75,6.6,10.56,1.78,16.43-15.27,18.57-5.73,40.09-6.61,60.18C654.53,465.35,664.88,463,671.29,463.52Z"/><path class="cls-15" d="M409.63,462.79l-3.4,6c-26.55-.77-51.71-28-51.33-58.09,0.42-33.32,13.62-62.84,31.4-90.54,2.71-4.23,7.18-4.17,10.56-6.52l4.34-.41c-14.12,24.4-27.87,48.89-34.49,76.74C358.47,424.6,375.14,453.33,409.63,462.79Z"/><path class="cls-14" d="M401.19,313.25l-4.34.41c-6.28-7.46,8.38-11.08,3.36-18.31l7.66-1.54c14.28,5.47,29.12,2.69,43.66,2.31,7.7-.2,14.26-6,14.15-14.28-0.24-17.6,3.26-35.45-2.38-52.81l9-.54c5.64,14.17,1.56,28.93,2.55,43.39,0.5,7.29-.23,14.31,5.82,20.32,5.44,5.39,5.45,12.19,0,18-6,6.41-11.82,4.83-19.61,1.48C441.28,303.19,420.85,301.34,401.19,313.25Z"/><path class="cls-17" d="M543.77,477l10.37,0.44c0.24,39.53.24,39.53,39.64,39.53,4.31,0,8.62-.13,12.93,0,27.17,1,54.48,2.31,62.65-37.6,5.46,27.47-7.19,44.75-29.74,45.4-27.68.8-55.41,0-83.11,0.33-9.52.12-13.37-3.51-13-13C544,500.39,543.73,488.68,543.77,477Z"/><path class="cls-15" d="M535.27,477c3.77,48.15,3.77,48.16-44.42,48.14-17.23,0-34.49.53-51.68-.32-17.59-.87-32.14-14.11-32.94-28.77-0.17-3.13-2.14-8,3.38-8.8,4.5-.68,3.88,3.26,4.5,6.15,3.85,17.76,17.8,22.55,33,23.25,22.72,1,45.53,0,68.29.53,9.41,0.2,11.42-4.51,11.42-12.47,0-9.2.63-18.41,1-27.62Z"/><path class="cls-13" d="M482.62,429.08c-4.16-14.45-1-29.22-1.9-43.82-0.66-11.31,2.23-23-7.54-32.68-5.08-5.06-2-11.73,2.72-16.37,5.12-5,11.11-4.64,16.83-.93,6,3.91,8.19,10.56,5,16.09-14.48,24.81-5.55,51.17-6.26,76.87Z"/><path class="cls-13" d="M535.27,477l-7.49.09q-13.48-14.43-26.95-28.88l4-3.73c7.36,2,11.29,8.2,16,13.36,1,2,2.48,3,4.76,2.13,2.51-.34,3.4.74,2.77,3.16,0.55,4.07,3.23,5.79,7,6.31Z"/><path class="cls-17" d="M482.62,429.08l8.82-.84a22.53,22.53,0,0,1,10.95,11.12l-11.31,0A13.15,13.15,0,0,1,482.62,429.08Z"/><path class="cls-15" d="M427.19,458.62c2,2.57,1,4.76-1.43,5.84-1,.47-2.92-0.95-4.42-1.5Z"/><path class="cls-13" d="M491.08,439.39l11.31,0c0.82,1.72,1.63,3.45,2.46,5.15l-4,3.71Z"/><path class="cls-15" d="M535.42,469.44c-3.76-.52-6.43-2.23-7-6.31l1.2,0.48s0.09,1.29.1,1.3l5.47,0.22Z"/><path class="cls-15" d="M530.69,290.77l-2.38-1.32c0.41-.41.91-1.23,1.22-1.16a11.56,11.56,0,0,1,2.48,1.16Z"/><path class="cls-14" d="M535.2,465.14l-5.47-.22c0.68-1.44,1.14-3.92,2.09-4.12C535.16,460.08,535.37,462.65,535.2,465.14Z"/><path class="cls-17" d="M525.66,460c-2.28.83-3.77-.08-4.76-2.13Z"/><path class="cls-16" d="M614.52,259.38c0-5-.47-11.14.1-17.23,1.17-12.49,10.67-20.15,20.17-24.29,9.3-4,12.21,7.9,16.77,13.75,9.94,12.75,15.16,27.91,20.05,43.13,4.26,13.25,2.24,22.07-14.44,20.8a56.73,56.73,0,0,0-7.36,0C620.95,297.11,611.85,293,614.52,259.38Z"/><path class="cls-16" d="M463.3,229c5.64,17.37,2.14,35.21,2.38,52.81,0.11,8.23-6.45,14.08-14.15,14.28-14.53.38-29.38,3.17-43.66-2.31-2.36-31.23,14-54.53,32.61-76.85,3.13-3.75,6-2.73,9.16.22C454.05,221.3,458.74,225.1,463.3,229Z"/><path class="cls-12" d="M221.11,636.54c-0.12,1.17-.33,2.26-1.93,1.66a1.52,1.52,0,0,0-1.91.32c-0.76.86,2.07,4.27-1.89,2.78-2.37-.89-3-3-2.65-5.35a4,4,0,0,1,3.88-3.8c2.37-.2,3.6,1.28,4.31,3.33A6.59,6.59,0,0,1,221.11,636.54Z"/><path class="cls-12" d="M539.7,636.48c0,2.86-1.16,4.93-3.87,5.11-3,.2-4.55-1.91-4.53-4.78,0-2.55,1.15-4.65,4.09-4.63S539.45,634,539.7,636.48Z"/><path class="cls-12" d="M376.65,636.76c-0.38,3-1.46,5.05-4.42,4.84s-4.09-2.27-4-4.92,1.37-4.64,4.35-4.47S376.37,634.57,376.65,636.76Z"/><path class="cls-12" d="M711.66,632.08c3.13,0.44,4.46,2.34,4.38,4.9s-1.27,4.77-4.22,4.62-4.46-2-4.35-5.08C707.57,633.62,709.34,632.46,711.66,632.08Z"/><path class="cls-12" d="M860,636.21c-0.29-3.21,1.94-4,4.39-4,2.89,0,4.18,2.14,4.15,4.63,0,2.69-1.33,5.1-4.56,4.73C861.07,641.25,859.72,639.21,860,636.21Z"/><path class="cls-12" d="M263.1,636.88c0.16-1.83-.62-4.43,2.35-4.44,2.63,0,3.61,2.15,3.64,4.49s-1,4.5-3.61,4.43C262.63,641.29,263.19,638.77,263.1,636.88Z"/><path class="cls-12" d="M307.47,633a22.23,22.23,0,0,1,.93,4.1c0.1,2.44-1,4.19-3.66,4.39-3.24.26-2.32-2.25-2.64-4-0.86-4.94,1.34-5.82,5.49-4.33Z"/><path class="cls-12" d="M558,633a22.23,22.23,0,0,1,.93,4.1c0.1,2.44-1,4.19-3.66,4.39-3.24.26-2.32-2.25-2.64-4-0.86-4.94,1.34-5.82,5.49-4.33Z"/></svg>