<svg id="Layer_1" data-name="Layer 1" xmlns="http://www.w3.org/2000/svg" viewBox="0 0 1080 1080"><defs><style>.cls-1{fill:#e1e2e4;}.cls-2{fill:#383b36;}.cls-3{fill:#737470;}.cls-4{fill:#d8d8d8;}.cls-5{fill:#b0b0b0;}.cls-6{fill:#2e9ba4;}.cls-7{fill:#1c5c5d;}.cls-8{fill:#2a403e;}.cls-9{fill:#297f86;}.cls-10{fill:#cccecd;}.cls-11{fill:#ededec;}.cls-12{fill:#aba0b4;}.cls-13{fill:#a8dbcf;}.cls-14{fill:#f9f9fa;}.cls-15{fill:#f9fafa;}.cls-16{fill:#f9faf9;}.cls-17{fill:#f9f9f9;}.cls-18{fill:#f8f9f9;}.cls-19{fill:#fafafa;}.cls-20{fill:#a8dbd0;}.cls-21{fill:#a9dcd0;}</style></defs><title>imagesForKYoungPage_ProjectIllustrations</title><path class="cls-1" d="M1082.11,724.68v74.15c-4.88.6-7.19,5.72-11.86,6.69-2.56-2.53-5.82-1.6-8.8-1.6q-173.25-.07-346.49,0c-3,0-6.24-.87-8.77,1.71a7,7,0,0,1-1.34-.08H382.42a6.7,6.7,0,0,1-1.32.08c-2.53-2.57-5.78-1.71-8.77-1.71q-172.44-.06-344.88,0c-3,0-6.24-.91-8.78,1.65-7.17,1-9.8-6.17-15.16-8.43q0-35.39,0-70.78l1.75-1.44A0.68,0.68,0,0,0,5.17,724c3.36,0.12,6.72.35,10.07,0.35l1050.88,0C1071.46,724.37,1076.78,724.57,1082.11,724.68Z"/><path class="cls-2" d="M1082.11,724.68c-5.33-.11-10.65-0.31-16-0.31l-1050.88,0c-3.36,0-6.72-.23-10.07-0.35q0-230.31,0-460.63Q5.16,188,5,112.64c0.61-7.23,5.83-9.84,11.75-11.75,2.52,0.07,5,.22,7.57.22q451.52,0,903,0,70.76,0,141.51-.15c6.61,1.56,9.31,7.47,13.28,12V724.68ZM30.5,126.4c-2.79,2.81-1.68,6.38-1.68,9.62q-0.08,275.11,0,550.21c0,3.28-1,6.78,1.39,9.76l2,1.6-0.12.28c2.61,2.43,5.86,1.54,8.85,1.54q503.47,0.06,1006.94,0c3,0,6.22.81,8.95-1.34l1.94-2.13c2.23-2.7,1.38-5.92,1.38-8.92q0.06-275.51,0-551c0-3.24,1.12-6.81-1.69-9.61-3.65-.1-7.29-0.29-10.94-0.29q-494.21,0-988.42,0c-9,0-18,.21-26.95.33A6.14,6.14,0,0,0,30.5,126.4Z"/><path class="cls-1" d="M772,992.6a74.11,74.11,0,0,1,8.39.16c10.25,1.32,15.72,12,11.27,21.36-1.43,3-4.36,5.23-4.52,8.86H300.12c-0.15-4.74-5.32-6.31-6.53-10.45-3-10.37,3.36-19.45,14.11-19.87,2.52-.1,5,0,7.56-0.07H772Z"/><path class="cls-3" d="M1068.83,100.95q-70.76.08-141.51,0.15-451.52,0-903,0c-2.52,0-5-.14-7.57-0.22q0.1-.74.27-1.46H1068.63A4.64,4.64,0,0,0,1068.83,100.95Z"/><path class="cls-3" d="M5,112.64Q5.08,188,5.17,263.36q0,230.31,0,460.63a0.68,0.68,0,0,1,.08.94l-1.75-.25q0-305.89,0-611.77l0.71-.28H5Z"/><path class="cls-4" d="M3.5,724.68l1.75,0.25L3.5,726.36Q3.5,725.52,3.5,724.68Z"/><path class="cls-5" d="M704.85,805.54q-0.18,13.46-.37,26.91H382.81q-0.19-13.46-.38-26.92H704.85Z"/><path class="cls-4" d="M1070.25,805.52l-364.06.1c2.53-2.57,5.78-1.7,8.77-1.71q173.25-.06,346.49,0C1064.43,803.92,1067.69,803,1070.25,805.52Z"/><path class="cls-4" d="M381.11,805.62l-362.44-.05c2.54-2.56,5.8-1.65,8.78-1.65q172.44-.06,344.88,0C375.32,803.92,378.58,803.05,381.11,805.62Z"/><path class="cls-6" d="M32.17,126.43c9-.11,18-0.33,26.95-0.33q494.21,0,988.42,0c3.65,0,7.29.19,10.94,0.29q0,176.09.08,352.18,0.05,108.68.24,217.36l-1.94,2.13c-4.2-.13-8.4-0.36-12.61-0.36q-478.7,0-957.4,0c-18.24,0-36.48.11-54.73,0.17l0.12-.28,0.13-1.7c3.09,0,6.18.09,9.26,0.09H1045c11.81,0,11.82,0,11.82-11.88q0-272.11,0-544.23c0-11.8,0-11.81-11.89-11.81q-279.28,0-558.55,0-227,0-454.08.11Z"/><path class="cls-7" d="M32.13,697.87c18.24-.06,36.48-0.17,54.73-0.17q478.7,0,957.4,0c4.2,0,8.4.23,12.61,0.36-2.72,2.15-5.93,1.34-8.95,1.34q-503.47.05-1006.94,0C38,699.41,34.74,700.3,32.13,697.87Z"/><path class="cls-8" d="M30.21,696c-2.37-3-1.39-6.49-1.39-9.76q-0.07-275.11,0-550.21c0-3.24-1.11-6.81,1.68-9.62l0.57,2c-0.09,2.52-.27,5-0.27,7.56q0,275.8,0,551.59c0,2.8.28,5.59,0.43,8.39A3.75,3.75,0,0,0,30.21,696Z"/><path class="cls-8" d="M1058.8,695.94q-0.13-108.68-.24-217.36-0.09-176.09-.08-352.18c2.81,2.8,1.69,6.37,1.69,9.61q0.08,275.51,0,551C1060.18,690,1061,693.24,1058.8,695.94Z"/><path class="cls-9" d="M31.07,128.36l-0.57-2a6.13,6.13,0,0,1,1.67,0q0.07,0.88.13,1.75Q31.69,128.29,31.07,128.36Z"/><path class="cls-9" d="M32.38,695.89l-0.13,1.7-2-1.6a3.69,3.69,0,0,1,1-.08l0.57-.06Z"/><path class="cls-10" d="M382.81,832.46H704.48c-2.11,44.18,9.67,84.49,33.74,121.39l-389.22,0c15.21-23.78,26.28-49.19,31.08-77.19C382.6,862,382.83,847.26,382.81,832.46Z"/><path class="cls-11" d="M349,953.87l389.22,0c10.11,13.93,24.27,24.32,33.81,38.75H315.26c0.5-1.28.66-2.92,1.56-3.77C328.37,977.92,338.55,965.77,349,953.87Z"/><path class="cls-12" d="M32.38,695.89l-0.57,0-0.57.06c-0.15-2.8-.42-5.59-0.42-8.39q0-275.8,0-551.59c0-2.52.17-5,.27-7.56,0.41,0,.82-0.11,1.23-0.18q227-.06,454.09-0.11,279.28,0,558.55,0c11.89,0,11.89,0,11.89,11.81q0,272.11,0,544.23c0,11.87,0,11.88-11.82,11.88H41.64C38.55,696,35.46,695.92,32.38,695.89Z"/><path class="cls-13" d="M325.22,435.86c0-62.12,2.24-106,6.35-149.76,1.72-18.35,4-36.65,6.47-54.92s15.05-30.12,34.11-32.79a1111,1111,0,0,1,176.71-10.63c29.09,0.59,58.21-.74,87.28.58,33.7,1.53,67.28,4.84,100.72,9.39,7.29,1,14.59,1.69,21.16,5.46,10.14,5.82,16.41,14.48,18.2,25.95,4,25.63,6.52,51.45,8.6,77.3,3.49,43.53,5.2,87.13,4.5,130.79q-0.89,56.25-6.22,112.26c-1.75,18-4,36-6.27,54-2.45,19.45-14.92,31.46-34.38,34a1395.84,1395.84,0,0,1-203.68,12.27,1355.83,1355.83,0,0,1-159.63-11.45c-6.7-.89-13.48-1.29-19.73-4.1-11.54-5.19-18.42-14.38-20.79-26.54-3.07-15.75-4.34-31.77-6-47.72C327.73,512.74,325.31,465.29,325.22,435.86Zm42.35,92.57c0,24.37-.06,48.74-0.19,73.1,0,3.4,1.45,4.47,4.61,4.32,3.88-.18,7.77-0.12,11.66-0.17,2.23-.6,1.85-2.48,1.85-4,0-7.6-.07-15.21-0.13-22.81,1.67-1.39,3.68-1.07,5.6-1.09,6.6-.06,13.2,0,19.79-0.09a23.24,23.24,0,0,0,18.4-8.92,79.5,79.5,0,0,0,4.93-7.49c0.19,8.4.44,16.8,4.2,24.6C446.09,602,462.23,610,482.61,608c15.14-1.53,27.23-8.22,33.32-22.4,6.53-15.2,5.74-30.53-4-44.49-10.56-15.14-29.47-18.53-49.16-13.78-11.61,2.8-19.83,10.2-24.78,21.09-1.17,2.58-2,5.3-3.06,8,0-1.93.09-3.87,0-5.8-0.36-14.84-9.44-23.69-24.34-23.76q-19.71-.07-39.43-0.12C369.77,526.66,368.1,526.44,367.57,528.43Zm70.08-95c-22-.85-44.08-0.18-66.12-0.36-4.1,0-3.93,2.8-3.92,5.58,0,24.45.07,48.89-.07,73.34,0,4.25,1.36,5.79,5.7,5.75,18.89-.17,37.79-0.07,56.69-0.07,8.75,0,8.54,0,8.72-8.9,0.09-4.34-1.38-5.71-5.68-5.64-13.64.21-27.29,0-40.94,0.12-3.45,0-4.95-1.15-4.78-4.69a100.49,100.49,0,0,0,0-11.69c-0.3-4.25,1.56-5.41,5.54-5.34,10.34,0.19,20.69.06,31,.06,8.76,0,8.57,0,8.68-8.94,0.05-4.32-1.48-5.78-5.75-5.7-11.39.2-22.8,0-34.19,0.11-3.78,0-5.62-1.15-5.3-5.17a49.26,49.26,0,0,0,0-8.54c-0.44-4.53,1.33-6,5.88-5.94,12.74,0.25,25.49,0,38.24.14,3.95,0.05,5.39-1.41,5.24-5.26-0.1-2.47-.67-5.13,1-7.4q13.45,35.78,26.88,71.56c4.33,11.57,4.27,11.5,16.79,11.27,3.2-.06,4.83-1.22,5.94-4.2,5-13.49,10.22-26.91,15.34-40.36q6.32-16.6,12.62-33.21c2.27-6,1.92-6.54-4.64-6.78-2.7-.1-5.41,0-8.09-0.14-3.23-.22-4.84,1.16-5.8,4.26-3.35,10.73-6.93,21.39-10.44,32.07-2.78,8.47-5.58,16.94-8.55,25.93-1.75-1.62-1.91-3.14-2.36-4.5q-8.69-26.49-17.38-53c-0.82-2.49-1.64-4.87-5-4.74C447.83,433.26,442.73,432.7,437.65,433.44ZM556.92,299.92q40.5,0,81,0c8.57,0,11.3-2.75,11.31-11.33q0-33.3,0-66.6c0-8.46-2.86-11.32-11.37-11.32q-80.56,0-161.11,0c-8.46,0-11.31,2.87-11.32,11.38q0,33.08,0,66.15c0,9.14,2.62,11.72,11.84,11.72Q517.09,299.94,556.92,299.92Zm-55.09,18.49a56.75,56.75,0,0,0-28.57,7.28c-25.68,14.36-34.17,52.14-18.33,78.32,16.58,27.39,53.84,29.95,76.46,19.4,27.42-12.79,38.38-47.16,24.45-75.52C545.48,326.8,527.64,318.28,501.83,318.41ZM662.39,372.8c0,15.74.12,31.48-.08,47.22-0.06,4.53,1.51,5.92,6,5.89,23.69-.18,47.37,0,71.06-0.12,13.32-.07,11.37,2,11.52-11.75,0.07-6.19,0-6.22-6.28-6.23-17.54,0-35.08-.09-52.62.05-3.88,0-5.43-1.25-5.29-5.18,0.21-5.54.23-11.1,0-16.64-0.18-4.18,1.6-5.43,5.58-5.38,13.19,0.16,26.38.13,39.58,0s11.53,1.89,11.61-11.8c0-6.6-.11-6.7-6.87-6.71-14.84,0-29.68-.08-44.52,0-3.78,0-5.53-1.26-5.36-5.21a131.52,131.52,0,0,0,0-13.49c-0.26-4.32,1.45-5.79,5.72-5.74q21.58,0.26,43.17,0c14.61-.13,12.23,2.1,12.65-12.61,0.12-4.27-1.61-5.41-5.55-5.39q-37.33.15-74.66,0c-4.3,0-5.75,1.52-5.71,5.78C662.5,341.32,662.39,357.06,662.39,372.8ZM608.91,397c-1.92-1.06-1.91-2.86-2.4-4.35-7.45-22.63-14.93-45.26-22.24-67.93-1.15-3.57-3-5.14-6.77-4.94-4.78.24-9.59,0.16-14.39,0-3.67-.1-4.86.89-3.4,4.72q18.53,48.51,36.8,97.11c1.09,2.89,2.65,4.39,5.93,4.22,4.19-.23,8.4-0.19,12.59,0,3,0.13,4.6-1,5.63-3.89,2.94-8.18,6.15-16.26,9.24-24.38q13.93-36.55,27.9-73.08c1.3-3.38.46-4.74-3.16-4.67-4.94.1-9.9,0.2-14.84,0-3.78-.18-5.55,1.29-6.71,4.93-7,22-14.23,43.91-21.41,65.84C611,392.78,610.54,395.15,608.91,397Zm-12.56,78.35c0,12.44.07,24.88,0,37.32,0,3.62,1.3,5.24,5,5a94.41,94.41,0,0,1,9.89,0c3.46,0.16,4.82-1.26,4.75-4.76-0.15-7.94.07-15.89-.07-23.83-0.06-3.44,1.15-4.92,4.69-4.8,4.94,0.17,9.89,0,14.84,0,13,0,14.83,1.88,14.92,14.69,0,4.92-.57,9.91,1.19,14.7,0.76,2.06,1.66,3.89,4.29,3.87,5.09,0,10.19.1,15.28,0,3.06-.09,3.74-1.68,1.74-4.05a10.43,10.43,0,0,1-2.25-6.66c-0.23-5.24-.77-10.47-0.76-15.71s-1.88-9-6.25-11.65c-3.1-1.85-2.62-3.18,0-5.2,8.86-6.82,11.58-15.88,8.21-26.31-2.86-8.85-11.37-14.8-21.89-14.89-16-.13-32.07.05-48.11-0.12-4.12,0-5.56,1.46-5.51,5.5C596.44,450.8,596.34,463.09,596.34,475.38Zm57.31,103.48c-1.15-1.57-2.08-2.72-2.89-3.94-8.43-12.75-16.73-25.59-25.3-38.24-8.39-12.39-3.67-9.57-18.8-10.11-4.54-.16-6,1.36-6,5.88,0.18,20.23.08,40.46,0.08,60.7,0,12.86,0,12.7,12.92,12.79,4.35,0,5.74-1.44,5.68-5.7-0.18-14.09-.09-28.17,0-42.26,0-1.53-.6-3.26.8-4.62,1.63,0.65,2.14,2.15,2.93,3.37,8.58,13.19,17,26.47,25.71,39.59,7.68,11.61,3.43,9.3,17.68,9.52,6.31,0.1,6.4-.08,6.41-6.63,0-20.08.09-40.17,0-60.25-0.08-14.39,1.84-11.92-12.43-12.39-4.73-.16-5.84,1.72-5.78,6.05,0.2,13.64.09,27.28,0,40.91C654.67,575.09,655.12,576.79,653.65,578.86ZM520.31,475.22c0,12.29.14,24.58-.07,36.87-0.08,4.37,1.57,5.68,5.79,5.65,18.88-.15,37.77-0.06,56.66-0.06,8.26,0,8.26,0,8.2-8.07,0-6.25-.12-6.36-6.22-6.37-13.34,0-26.68-.1-40,0-3.66,0-5.23-1.2-5.07-4.92,0.17-4,.15-8.1,0-12.14-0.12-3.51,1.41-4.72,4.85-4.67,10.64,0.14,21.28,0,31.92,0,8.9,0,8.67,0,8.85-8.79,0.09-4.63-1.66-6-6.07-5.85-8.54.26-17.09,0.18-25.63,0.05-16.22-.25-13.58,2.62-14-14.05-0.09-4,1.21-5.62,5.42-5.54,11.69,0.22,23.38.11,35.07,0.06,9.65,0,8.64,1,8.87-9.08,0.09-3.76-1-5.42-5-5.39q-29.23.21-58.45,0c-4,0-5.22,1.52-5.17,5.33C520.41,450.64,520.31,462.93,520.31,475.22ZM367.53,372.72q0,23.38,0,46.76c0,6.3,0,6.33,6.18,6.34,21.28,0,42.57.08,63.85,0,12.51-.06,10.83,1.77,11-11,0.07-7,0-7-6.85-7-14.84,0-29.68-.13-44.51.07-4.21.06-5.74-1.48-5.34-5.5,0.15-1.48,0-3,0-4.49,0-24.13-.09-48.26.08-72.39,0-4.33-1.44-5.94-5.7-5.7a117.31,117.31,0,0,1-13,0c-4.25-.23-5.79,1.33-5.73,5.7C367.66,341.24,367.53,357,367.53,372.72Zm337,153.92c-6.45,0-12.91.18-19.35-.07-4-.15-5.21,1.49-5.19,5.28q0.15,34.42,0,68.84c0,3.86,1.3,5.28,5.25,5.22,11.55-.2,23.1-0.25,34.64,0,9.28,0.19,16.67-3.43,22.42-10.39,11.4-13.81,14.24-29.51,8.92-46.46-4.32-13.76-16.87-22.4-31.39-22.42h-15.3ZM594.2,557.41c0-6.15.08-12.3,0-18.45-0.22-14.44,2.15-11.94-12.34-12.41-4.64-.15-5.94,1.58-5.89,6,0.18,15.75.11,31.49,0,47.24,0,9.28-3.88,13.35-13.21,14.16a48.08,48.08,0,0,1-6.29.12c-9.75-.43-14.44-5.31-14.45-15,0-15.9-.08-31.79,0-47.69,0-3.45-1.14-5-4.69-4.75a51.05,51.05,0,0,1-8.09,0c-4.18-.39-5.46,1.41-5.42,5.44,0.15,16.2.25,32.4,0,48.59a23,23,0,0,0,9,19.19c12.82,10.51,27.39,10.55,42.17,6C589,601.46,594.18,593.52,594.2,579Q594.21,568.21,594.2,557.41ZM704.26,498.8c0,6.23.06,10.43,0,14.63-0.06,3.06,1.33,4.35,4.36,4.26,3.6-.1,7.2-0.12,10.8,0,3.29,0.11,4.55-1.36,4.5-4.59-0.1-7.5.05-15,0-22.5a16,16,0,0,1,2.32-8.51c8.54-14.81,16.91-29.72,25.44-44.54,1.85-3.22,1.39-4.62-2.52-4.51s-8.11.19-12.15,0c-3.51-.19-5.46,1.29-7,4.39-4.3,8.91-8.83,17.71-13.32,26.54-0.65,1.28-.84,3.37-2.53,3.39-1.88,0-2.29-2.15-3-3.53q-4.52-8.3-8.84-16.7c-7.38-14.35-7.36-14.36-23.55-14-5,.1-5.29.56-2.63,5.1,7,11.91,13.61,24,21.05,35.63C702.52,482.21,706.07,490.71,704.26,498.8Z"/><path class="cls-14" d="M556.92,299.92q-39.83,0-79.66,0c-9.22,0-11.83-2.59-11.84-11.72q0-33.08,0-66.15c0-8.51,2.86-11.38,11.32-11.38q80.56,0,161.11,0c8.5,0,11.36,2.86,11.37,11.32q0,33.3,0,66.6c0,8.59-2.73,11.33-11.31,11.33Q597.42,299.95,556.92,299.92Zm-25.64-50.23c0,11.71,13.11,28.15,23.68,30.66a9.62,9.62,0,0,0,7-.81c8.67-4.72,15.47-11.35,19.55-20.42a20.36,20.36,0,0,0,1.1-14.07c-2.92-10.64-14.53-14.18-22.48-6.55-2.36,2.26-3.52,2-5.69-.13-4.77-4.73-9.66-5.27-15.15-2.41C533.32,239.06,531.59,244.39,531.28,249.69Zm-42.91-15.41a11.81,11.81,0,0,0-5.19,1.25c-8.37,3.93-11.4,14.67-6.62,24.48a44.17,44.17,0,0,0,18.38,19.12,10.42,10.42,0,0,0,8.65,1c10.16-3.21,22.08-18.07,22.87-28.55,0.53-7-2.75-13.06-8.68-15.92s-11.07-1.16-15.32,3.51c-1.68,1.85-2.81,1.49-4.31-.15C495.53,236.17,492.43,234.18,488.36,234.28Zm151.82,16.27c0-7.47-2.67-12.17-8.63-15s-10.84-1.1-15,3.4c-2.17,2.34-3.37,1-5.06-.57-6.77-6.28-16.21-5.13-20.76,2.57a16.76,16.76,0,0,0-2.32,12.12c2.66,12.75,11.05,20.94,22.08,26.77,3.11,1.64,6.46.93,9.47-.85a45.45,45.45,0,0,0,18.09-18.88A20.33,20.33,0,0,0,640.19,250.56Z"/><path class="cls-15" d="M501.83,318.41c25.81-.13,43.65,8.38,54,29.47,13.93,28.36,3,62.73-24.45,75.52-22.61,10.55-59.88,8-76.46-19.4-15.84-26.17-7.34-64,18.33-78.32A56.75,56.75,0,0,1,501.83,318.41Zm36,55.21c0.26-32.87-26.72-41.53-48.22-33.58-6.43,2.38-11,7-14.33,13-4.59,8.38-5.17,17.46-4.23,26.66,3.1,30.19,33.52,36.09,50.46,26.35C533.8,399,537.76,387.15,537.8,373.62Z"/><path class="cls-16" d="M662.39,372.8c0-15.74.11-31.48-.07-47.22,0-4.26,1.41-5.81,5.71-5.78q37.33,0.2,74.66,0c3.94,0,5.67,1.12,5.55,5.39-0.42,14.71,2,12.48-12.65,12.61q-21.59.19-43.17,0c-4.27-.05-6,1.42-5.72,5.74a131.52,131.52,0,0,1,0,13.49c-0.17,4,1.58,5.24,5.36,5.21,14.84-.11,29.68,0,44.52,0,6.77,0,6.91.11,6.87,6.71-0.08,13.69,1.46,11.7-11.61,11.8s-26.39.13-39.58,0c-4,0-5.76,1.19-5.58,5.38,0.23,5.54.21,11.1,0,16.64-0.15,3.93,1.41,5.21,5.29,5.18,17.54-.15,35.08-0.07,52.62-0.05,6.25,0,6.34,0,6.28,6.23-0.15,13.79,1.8,11.69-11.52,11.75-23.69.12-47.37-.07-71.06,0.12-4.49,0-6.06-1.36-6-5.89C662.52,404.28,662.39,388.54,662.39,372.8Z"/><path class="cls-16" d="M608.91,397c1.64-1.88,2.06-4.25,2.79-6.46,7.17-21.93,14.41-43.85,21.41-65.84,1.16-3.64,2.93-5.11,6.71-4.93,4.94,0.24,9.89.14,14.84,0,3.63-.07,4.46,1.29,3.16,4.67q-14,36.51-27.9,73.08c-3.1,8.12-6.3,16.2-9.24,24.38-1,2.87-2.62,4-5.63,3.89-4.19-.18-8.4-0.22-12.59,0-3.28.18-4.84-1.32-5.93-4.22q-18.31-48.59-36.8-97.11c-1.46-3.82-.27-4.82,3.4-4.72,4.79,0.14,9.6.22,14.39,0,3.8-.19,5.62,1.37,6.77,4.94,7.31,22.68,14.78,45.3,22.24,67.93C607,394.16,607,396,608.91,397Z"/><path class="cls-17" d="M596.34,475.38c0-12.29.1-24.58-.06-36.87,0-4,1.39-5.55,5.51-5.5,16,0.17,32.07,0,48.11.12,10.51,0.09,19,6,21.89,14.89,3.37,10.43.64,19.49-8.21,26.31-2.61,2-3.09,3.35,0,5.2,4.36,2.6,6.25,6.51,6.25,11.65s0.54,10.47.76,15.71a10.43,10.43,0,0,0,2.25,6.66c2,2.37,1.32,4-1.74,4.05-5.09.15-10.19,0-15.28,0-2.64,0-3.53-1.81-4.29-3.87-1.77-4.79-1.16-9.78-1.19-14.7-0.08-12.81-1.91-14.66-14.92-14.69-4.95,0-9.9.14-14.84,0-3.54-.13-4.75,1.36-4.69,4.8,0.14,7.94-.08,15.89.07,23.83,0.06,3.49-1.29,4.92-4.75,4.76a94.41,94.41,0,0,0-9.89,0c-3.73.22-5.05-1.4-5-5C596.41,500.26,596.34,487.82,596.34,475.38ZM632,447.53v0c-3.89,0-7.78.08-11.67,0-2.91-.07-4.51.89-4.44,4.1,0.12,4.78.1,9.57,0,14.36-0.05,2.86,1.18,4,4,4,4.93-.1,9.87.05,14.81,0,3.86-.06,7.78.53,11.55-0.91,5.25-2,8.83-7.87,8-13.18s-4.41-8.05-11.08-8.26C639.5,447.43,635.76,447.53,632,447.53Z"/><path class="cls-18" d="M437.63,434.9c-1.72,2.27-1.14,4.93-1,7.4,0.15,3.85-1.29,5.31-5.24,5.26-12.75-.18-25.5.1-38.24-0.14-4.55-.09-6.32,1.42-5.88,5.94a49.26,49.26,0,0,1,0,8.54c-0.32,4,1.53,5.22,5.3,5.17,11.4-.14,22.8.09,34.19-0.11,4.27-.08,5.8,1.39,5.75,5.7-0.11,8.93.08,8.93-8.68,8.94-10.35,0-20.7.13-31-.06-4-.07-5.84,1.09-5.54,5.34a100.49,100.49,0,0,1,0,11.69c-0.16,3.54,1.33,4.72,4.78,4.69,13.65-.12,27.3.1,40.94-0.12,4.3-.07,5.77,1.3,5.68,5.64-0.18,8.89,0,8.9-8.72,8.9-18.9,0-37.79-.1-56.69.07-4.34,0-5.72-1.51-5.7-5.75,0.14-24.44.07-48.89,0.07-73.34,0-2.78-.18-5.61,3.92-5.58,22,0.18,44.08-.5,66.12.36Z"/><path class="cls-18" d="M653.65,578.86c1.47-2.07,1-3.76,1-5.34,0-13.64.15-27.28,0-40.91-0.06-4.33,1-6.21,5.78-6.05,14.27,0.48,12.36-2,12.43,12.39,0.1,20.08,0,40.17,0,60.25,0,6.55-.1,6.73-6.41,6.63-14.24-.22-10,2.09-17.68-9.52-8.68-13.12-17.13-26.4-25.71-39.59-0.79-1.21-1.3-2.72-2.93-3.37-1.4,1.36-.79,3.1-0.8,4.62-0.06,14.09-.15,28.18,0,42.26,0.06,4.26-1.34,5.73-5.68,5.7-12.92-.1-12.92.07-12.92-12.79,0-20.23.11-40.47-.08-60.7,0-4.52,1.44-6,6-5.88,15.14,0.55,10.41-2.28,18.8,10.11,8.57,12.65,16.86,25.5,25.3,38.24C651.58,576.14,652.5,577.29,653.65,578.86Z"/><path class="cls-15" d="M520.31,475.22c0-12.29.1-24.58-.06-36.87,0-3.81,1.22-5.36,5.17-5.33q29.23,0.19,58.45,0c4.06,0,5.13,1.63,5,5.39-0.23,10,.78,9-8.87,9.08-11.69.05-23.38,0.16-35.07-.06-4.22-.08-5.51,1.53-5.42,5.54,0.37,16.67-2.27,13.81,14,14.05,8.54,0.13,17.09.21,25.63-.05,4.41-.13,6.17,1.22,6.07,5.85-0.17,8.78,0,8.79-8.85,8.79-10.64,0-21.28.09-31.92,0-3.44,0-5,1.17-4.85,4.67,0.14,4,.16,8.1,0,12.14-0.16,3.71,1.41,5,5.07,4.92,13.34-.15,26.68-0.07,40,0,6.1,0,6.17.12,6.22,6.37,0.06,8.06.06,8.07-8.2,8.07-18.89,0-37.77-.09-56.66.06-4.21,0-5.86-1.28-5.79-5.65C520.45,499.81,520.31,487.51,520.31,475.22Z"/><path class="cls-15" d="M367.53,372.72c0-15.74.13-31.48-.08-47.21-0.06-4.37,1.48-5.93,5.73-5.7a117.31,117.31,0,0,0,13,0c4.27-.24,5.73,1.36,5.7,5.7-0.16,24.13-.08,48.26-0.08,72.39,0,1.5.13,3,0,4.49-0.4,4,1.14,5.55,5.34,5.5,14.84-.2,29.68-0.08,44.51-0.07,6.84,0,6.91,0,6.85,7-0.12,12.74,1.55,10.91-11,11-21.28.1-42.57,0-63.85,0-6.15,0-6.18,0-6.18-6.34Q367.51,396.1,367.53,372.72Z"/><path class="cls-17" d="M704.55,526.63h15.3c14.52,0,27.07,8.65,31.39,22.42,5.32,16.95,2.48,32.65-8.92,46.46-5.75,7-13.13,10.58-22.42,10.39-11.54-.24-23.1-0.19-34.64,0-3.94.07-5.26-1.35-5.25-5.22q0.16-34.42,0-68.84c0-3.79,1.18-5.43,5.19-5.28C691.64,526.82,698.1,526.63,704.55,526.63Zm-5.95,39.79c0,6.89.14,13.78-.06,20.66-0.11,3.77,1,5.58,5.09,5.29,3.73-.26,7.48,0,11.23-0.07,8-.07,13.84-4,17.06-11.09a35.87,35.87,0,0,0,.26-30.48c-3.07-6.87-8.2-10.89-16.17-10.51-3.74.18-7.49,0-11.23,0-6,0-6.14.17-6.17,6C698.57,552.94,698.59,559.68,698.6,566.42Z"/><path class="cls-18" d="M434.94,556.35c1-2.65,1.89-5.37,3.06-8,4.95-10.89,13.16-18.29,24.78-21.09,19.69-4.75,38.6-1.36,49.16,13.78,9.74,14,10.53,29.29,4,44.49-6.1,14.19-18.18,20.88-33.32,22.4-20.38,2.06-36.52-6-44.31-22.13-3.76-7.8-4-16.19-4.2-24.6l-0.05.07,0-1.34ZM452,566c-0.16,21.68,18.11,34.75,36.49,25.91,9.54-4.58,13.28-13.12,13.74-23.14,0.48-10.58-2.06-20.25-12-25.93C472.1,532.39,452.19,544.56,452,566Z"/><path class="cls-15" d="M594.2,557.41q0,10.8,0,21.6c0,14.51-5.24,22.45-19.18,26.78-14.79,4.58-29.36,4.54-42.17-6a23,23,0,0,1-9-19.19c0.26-16.19.17-32.39,0-48.59,0-4,1.25-5.83,5.42-5.44a51.05,51.05,0,0,0,8.09,0c3.55-.24,4.71,1.3,4.69,4.75-0.11,15.9-.05,31.79,0,47.69,0,9.7,4.7,14.58,14.45,15a48.08,48.08,0,0,0,6.29-.12c9.32-.81,13.17-4.89,13.21-14.16,0.06-15.75.14-31.5,0-47.24-0.05-4.41,1.25-6.14,5.89-6,14.49,0.47,12.12-2,12.34,12.41C594.28,545.11,594.2,551.26,594.2,557.41Z"/><path class="cls-19" d="M434.06,561.34l0.05-.07a79.63,79.63,0,0,1-4.93,7.49,23.24,23.24,0,0,1-18.4,8.92c-6.6.06-13.2,0-19.79,0.09-1.92,0-3.94-.3-5.6,1.09-1.83,1.56-1.71,3.7-1.71,5.79q0,10.52,0,21c-3.89,0-7.78,0-11.66.17-3.15.14-4.63-.92-4.61-4.32,0.13-24.37.14-48.73,0.19-73.1q18.39,0,36.78,0c2.22,0,4.55.27,6.29-1.63,14.9,0.08,24,8.93,24.34,23.76,0,1.93,0,3.87,0,5.8L434.07,560ZM398.72,540.2v0c-3.15,0-6.3,0-9.45,0-2.37,0-3.69.94-3.69,3.43q0,8.55,0,17.1c0,2.19,1.08,3.42,3.26,3.42,6.3,0,12.62.29,18.88-.19,5.53-.42,10.06-7,9.81-13.29s-4.14-10.06-10.71-10.41C404.12,540.08,401.41,540.2,398.72,540.2Z"/><path class="cls-15" d="M437.63,434.9l0-1.46c5.08-.74,10.18-0.18,15.27-0.36,3.39-.12,4.21,2.26,5,4.74q8.69,26.49,17.38,53c0.45,1.36.6,2.87,2.36,4.5,3-9,5.76-17.46,8.55-25.93,3.51-10.68,7.09-21.34,10.44-32.07,1-3.1,2.58-4.48,5.8-4.26,2.69,0.18,5.4,0,8.09.14,6.55,0.24,6.91.81,4.64,6.78q-6.33,16.6-12.62,33.21c-5.12,13.45-10.33,26.87-15.34,40.36-1.11,3-2.74,4.14-5.94,4.2-12.53.22-12.47,0.29-16.79-11.27Q451.13,470.66,437.63,434.9Z"/><path class="cls-18" d="M704.26,498.8c1.81-8.09-1.74-16.59-7.13-25-7.44-11.61-14.08-23.73-21.05-35.63-2.66-4.54-2.41-5,2.63-5.1,16.19-.32,16.17-0.31,23.55,14q4.32,8.4,8.84,16.7c0.75,1.38,1.16,3.55,3,3.53,1.68,0,1.88-2.11,2.53-3.39,4.49-8.82,9-17.62,13.32-26.54,1.5-3.1,3.44-4.58,7-4.39,4,0.22,8.1.14,12.15,0s4.38,1.29,2.52,4.51c-8.52,14.82-16.9,29.73-25.44,44.54a16,16,0,0,0-2.32,8.51c0.1,7.5-.05,15,0,22.5,0,3.23-1.21,4.7-4.5,4.59-3.6-.12-7.2-0.11-10.8,0-3,.09-4.42-1.2-4.36-4.26C704.32,509.23,704.26,505,704.26,498.8Z"/><path class="cls-18" d="M410.64,526.79c-1.75,1.9-4.07,1.62-6.29,1.63q-18.39,0-36.78,0c0.53-2,2.2-1.77,3.64-1.77Q390.93,526.69,410.64,526.79Z"/><path class="cls-18" d="M383.65,605.68q0-10.52,0-21c0-2.09-.11-4.23,1.71-5.79,0.05,7.6.13,15.21,0.13,22.81C385.5,603.21,385.88,605.09,383.65,605.68Z"/><path class="cls-12" d="M531.28,249.69c0.32-5.3,2-10.63,8-13.73,5.5-2.86,10.39-2.32,15.15,2.41,2.17,2.15,3.33,2.39,5.69.13,8-7.63,19.57-4.09,22.48,6.55a20.36,20.36,0,0,1-1.1,14.07c-4.08,9.07-10.88,15.7-19.55,20.42a9.62,9.62,0,0,1-7,.81C544.39,277.83,531.31,261.39,531.28,249.69Z"/><path class="cls-12" d="M488.36,234.28c4.07-.1,7.17,1.89,9.78,4.73,1.5,1.64,2.63,2,4.31.15,4.24-4.67,9.31-6.41,15.32-3.51s9.21,8.94,8.68,15.92c-0.79,10.49-12.71,25.35-22.87,28.55a10.42,10.42,0,0,1-8.65-1A44.17,44.17,0,0,1,476.55,260c-4.77-9.81-1.75-20.54,6.62-24.48A11.85,11.85,0,0,1,488.36,234.28Z"/><path class="cls-12" d="M640.19,250.56a20.33,20.33,0,0,1-2.12,9.57A45.45,45.45,0,0,1,620,279c-3,1.77-6.36,2.49-9.47.85-11-5.83-19.42-14-22.08-26.77A16.76,16.76,0,0,1,590.74,241c4.55-7.69,14-8.85,20.76-2.57,1.69,1.57,2.89,2.91,5.06.57,4.16-4.49,9.12-6.17,15-3.4S640.21,243.09,640.19,250.56Z"/><path class="cls-13" d="M537.8,373.62c0,13.52-4,25.36-16.31,32.44-16.93,9.74-47.36,3.84-50.46-26.35-0.94-9.2-.36-18.28,4.23-26.66,3.28-6,7.89-10.64,14.33-13C511.08,332.09,538.07,340.76,537.8,373.62Z"/><path class="cls-20" d="M632,447.53c3.74,0,7.48-.1,11.22,0,6.67,0.21,10.24,2.94,11.08,8.26s-2.75,11.18-8,13.18c-3.77,1.44-7.69.84-11.55,0.91-4.93.08-9.87-.07-14.81,0-2.85.06-4.08-1.13-4-4,0.09-4.78.11-9.57,0-14.36-0.08-3.2,1.53-4.17,4.44-4.1,3.89,0.1,7.78,0,11.67,0v0Z"/><path class="cls-20" d="M698.6,566.42c0-6.74,0-13.48,0-20.22,0-5.79.18-5.92,6.17-6,3.74,0,7.49.15,11.23,0,8-.38,13.1,3.65,16.17,10.51a35.87,35.87,0,0,1-.26,30.48c-3.22,7.1-9,11-17.06,11.09-3.74,0-7.5-.19-11.23.07-4.06.29-5.19-1.53-5.09-5.29C698.74,580.2,698.6,573.31,698.6,566.42Z"/><path class="cls-20" d="M452,566c0.15-21.41,20.06-33.58,38.26-23.15,9.91,5.67,12.45,15.35,12,25.93-0.45,10-4.2,18.55-13.74,23.14C470.15,600.72,451.88,587.66,452,566Z"/><path class="cls-13" d="M434.06,561.34l0-1.34Z"/><path class="cls-21" d="M398.72,540.2c2.7,0,5.41-.12,8.1,0,6.57,0.35,10.47,4.2,10.71,10.41s-4.28,12.87-9.81,13.29c-6.26.48-12.58,0.2-18.88,0.19-2.18,0-3.27-1.24-3.26-3.42q0-8.55,0-17.1c0-2.48,1.33-3.46,3.69-3.43,3.15,0,6.3,0,9.45,0v0Z"/></svg>