<svg id="Layer_1" data-name="Layer 1" xmlns="http://www.w3.org/2000/svg" viewBox="0 0 1080 1080"><defs><style>.cls-1{fill:#e1e2e4;}.cls-2{fill:#383b36;}.cls-3{fill:#737470;}.cls-4{fill:#b0b0b0;}.cls-5{fill:#d8d8d8;}.cls-6{fill:#2e9ba4;}.cls-7{fill:#1c5c5d;}.cls-8{fill:#2a403e;}.cls-9{fill:#297f86;}.cls-10{fill:#cccecd;}.cls-11{fill:#ededec;}.cls-12{fill:#474747;}.cls-13{fill:#f5f5f5;}.cls-14{fill:#cf7f4c;}</style></defs><title>imagesForKYoungPage_ProjectIllustrations</title><path class="cls-1" d="M1076.12,724.68v74.15c-4.88.6-7.19,5.72-11.86,6.69-2.56-2.53-5.82-1.6-8.8-1.6q-173.25-.07-346.49,0c-3,0-6.24-.87-8.77,1.71a7,7,0,0,1-1.34-.08H376.44a6.7,6.7,0,0,1-1.32.08c-2.53-2.57-5.78-1.71-8.77-1.71q-172.44-.06-344.88,0c-3,0-6.24-.91-8.78,1.65-7.17,1-9.8-6.17-15.16-8.43q0-35.39,0-70.78l1.75-1.44A0.68,0.68,0,0,0-.81,724c3.36,0.12,6.72.35,10.07,0.35l1050.88,0C1065.47,724.37,1070.8,724.57,1076.12,724.68Z"/><path class="cls-2" d="M1076.12,724.68c-5.33-.11-10.65-0.31-16-0.31l-1050.88,0c-3.36,0-6.72-.23-10.07-0.35q0-230.31,0-460.63Q-0.82,188-1,112.64c0.61-7.23,5.83-9.84,11.75-11.75,2.52,0.07,5,.22,7.57.22q451.52,0,903,0,70.76,0,141.51-.15c6.61,1.56,9.31,7.47,13.28,12V724.68ZM24.51,126.4c-2.79,2.81-1.68,6.38-1.68,9.62q-0.08,275.11,0,550.21c0,3.28-1,6.78,1.39,9.76l2,1.6-0.12.28c2.61,2.43,5.86,1.54,8.85,1.54q503.47,0.06,1006.94,0c3,0,6.22.81,8.95-1.34l1.94-2.13c2.23-2.7,1.38-5.92,1.38-8.92q0.06-275.51,0-551c0-3.24,1.12-6.81-1.69-9.61-3.65-.1-7.29-0.29-10.94-0.29q-494.21,0-988.42,0c-9,0-18,.21-26.95.33A6.14,6.14,0,0,0,24.51,126.4Z"/><path class="cls-1" d="M766,992.6a74.11,74.11,0,0,1,8.39.16c10.25,1.32,15.72,12,11.27,21.36-1.43,3-4.36,5.23-4.52,8.86H294.13c-0.15-4.74-5.32-6.31-6.53-10.45-3-10.37,3.36-19.45,14.11-19.87,2.52-.1,5,0,7.56-0.07H766Z"/><path class="cls-3" d="M1062.84,100.95q-70.76.08-141.51,0.15-451.52,0-903,0c-2.52,0-5-.14-7.57-0.22q0.1-.74.27-1.46H1062.64A4.64,4.64,0,0,0,1062.84,100.95Z"/><path class="cls-4" d="M698.87,805.54q-0.18,13.46-.37,26.91H376.82q-0.19-13.46-.38-26.92H698.87Z"/><path class="cls-5" d="M1064.26,805.52l-364.06.1c2.53-2.57,5.78-1.7,8.77-1.71q173.25-.06,346.49,0C1058.45,803.92,1061.7,803,1064.26,805.52Z"/><path class="cls-5" d="M375.12,805.62l-362.44-.05c2.54-2.56,5.8-1.65,8.78-1.65q172.44-.06,344.88,0C369.34,803.92,372.59,803.05,375.12,805.62Z"/><path class="cls-6" d="M26.19,126.43c9-.11,18-0.33,26.95-0.33q494.21,0,988.42,0c3.65,0,7.29.19,10.94,0.29q0,176.09.08,352.18,0.05,108.68.24,217.36l-1.94,2.13c-4.2-.13-8.4-0.36-12.61-0.36q-478.7,0-957.4,0c-18.24,0-36.48.11-54.73,0.17l0.12-.28,0.13-1.7c3.09,0,6.18.09,9.26,0.09H1039c11.81,0,11.82,0,11.82-11.88q0-272.11,0-544.23c0-11.8,0-11.81-11.89-11.81q-279.28,0-558.55,0-227,0-454.08.11Z"/><path class="cls-7" d="M26.14,697.87c18.24-.06,36.48-0.17,54.73-0.17q478.7,0,957.4,0c4.2,0,8.4.23,12.61,0.36-2.72,2.15-5.93,1.34-8.95,1.34q-503.47.05-1006.94,0C32,699.41,28.75,700.3,26.14,697.87Z"/><path class="cls-8" d="M24.22,696c-2.37-3-1.39-6.49-1.39-9.76q-0.07-275.11,0-550.21c0-3.24-1.11-6.81,1.68-9.62l0.57,2c-0.09,2.52-.27,5-0.27,7.56q0,275.8,0,551.59c0,2.8.28,5.59,0.43,8.39A3.75,3.75,0,0,0,24.22,696Z"/><path class="cls-8" d="M1052.81,695.94q-0.13-108.68-.24-217.36-0.09-176.09-.08-352.18c2.81,2.8,1.69,6.37,1.69,9.61q0.08,275.51,0,551C1054.19,690,1055,693.24,1052.81,695.94Z"/><path class="cls-9" d="M25.08,128.36l-0.57-2a6.13,6.13,0,0,1,1.67,0q0.07,0.88.13,1.75Q25.7,128.29,25.08,128.36Z"/><path class="cls-9" d="M26.39,695.89l-0.13,1.7-2-1.6a3.69,3.69,0,0,1,1-.08l0.57-.06Z"/><path class="cls-10" d="M376.82,832.46H698.5c-2.11,44.18,9.67,84.49,33.74,121.39l-389.22,0c15.21-23.78,26.28-49.19,31.08-77.19C376.62,862,376.84,847.26,376.82,832.46Z"/><path class="cls-11" d="M343,953.87l389.22,0c10.11,13.93,24.27,24.32,33.81,38.75H309.27c0.5-1.28.66-2.92,1.56-3.77C322.39,977.92,332.56,965.77,343,953.87Z"/><path class="cls-12" d="M26.39,695.89l-0.57,0-0.57.06c-0.15-2.8-.42-5.59-0.42-8.39q0-275.8,0-551.59c0-2.52.17-5,.27-7.56,0.41,0,.82-0.11,1.23-0.18q227-.06,454.09-0.11,279.28,0,558.55,0c11.89,0,11.89,0,11.89,11.81q0,272.11,0,544.23c0,11.87,0,11.88-11.82,11.88H35.65C32.57,696,29.48,695.92,26.39,695.89Z"/><path class="cls-12" d="M724.4,454.55l2.07,2.09c4.1,2.8,9,3.76,13.6,4.71,4.81,1,5,2.65,3.82,7-2.57,9.67-4.23,19.58-6.26,29.4-2,5.08-2.45,10.59-5,15.54-9.83,19-21.45,36.72-36.6,51.78-10.45,10.39-20.14,21.54-33.31,29.21-15.38,9-15.18,12.62-3.37,27.29,2.89,3.59,5.1,4.16,9.31,1.94,18-9.46,33.06-22.74,46.37-37.55,25.93-28.87,47.22-60.66,54.06-100,0.87-.32,1.17-0.77.34-1.48l2.45-10.81a1.68,1.68,0,0,0,.52-0.25,7.35,7.35,0,0,0-.26-1.08l1.44-8c1.22-1.82,2-3.59-.57-5l-4.5,0c-0.16-.75-0.53-1-1.19-0.48q0.25-8.87.51-17.74c0.51-17,1.74-34-1.58-50.93-1-5-4.57-2.24-7-2.18-6.94.17-13.95,4.19-20.77-.51a13.18,13.18,0,0,0,.37-5.86c-2.15-20-9.83-38-20.74-54.45-5.4-8.14-10-17-17-24,0-3.42,3.88-4.63,4.35-7.77,0.76-2.27,2.57-3.14,4.71-3.52,5.22,10.55,11.76,20.26,18.7,29.72l2,2.32c-0.11,3.28,1.57,5.75,3.62,8.05,1.64,5.18,3.06,10.44,5,15.52,3.84,10.21,3.94,10.14,14.46,6.51a26.51,26.51,0,0,1,6.45-1.66c6.91-.53,8.05-3.86,6-10-4.37-13.31-12-25-18-37.43C744.5,297,737.08,291.6,734.81,283c0.55-.89.37-1.35-0.74-1.26l-2.34-3.06c0.52-1,.33-1.52-0.91-1.25l-3.68-4.73c0.52-1.87,0-2.91-2.13-2.8L716.9,262c-2-4.54-5.06-8.08-9.87-9.84L705,248.48c-3.6-6.62-9.13-11.07-15.92-14.09L684.24,232c0.1-1.12-.36-1.3-1.25-0.73l-3.15-2.18c0.29-1.18-.16-1.44-1.21-1l-3.39-3.63c-0.84-2.74-2.72-3.86-5.52-3.55l-3.47-2.29c-5.23-6.6-13.13-8.73-20.36-11.86-2.14-.93-3.79,1.29-4.21,3.24-1.7,8-6.2,7.27-11.91,4.34a65.69,65.69,0,0,0-9.68-3.71c-8.09-2.64-15.63-7.41-24.65-6.57l-5.36-.95c-0.56-.9-1.19-1-1.9-0.16l-10-1.06c-0.4-1.28-1.6-1.12-2.48-1.17-7.21-.41-11.2-2.15-9.2-11.28,2.08-9.49.44-10.83-9.07-11.81-39.67-4.06-77.87,1.46-114.14,18.42-3.17,1.48-7.39,1.63-9.16,5.55-3.08,1.56-6.13,3.18-9.25,4.67-5.9,2.82-6.43,6.54-2.72,11.81,5.12,7.27,10,14.75,14.57,22.36,2.9,4.8,6,5.46,11.11,3.21,11-4.88,21.54-11.47,34.1-11.93,3.85,0.51,7.16-1.51,10.74-2.29,17.16-3.72,34-10.61,52.1-5.82a5.72,5.72,0,0,0,5-.58l7.08,0.81c2,1.64,4.11,1.47,6.33.7l8.39,1c0.55,1.22,1.27,1.34,2.16.34l4.81,1c0.24,1,.62,1.16,1.22.22l4.81,1.22c0.11,1,.48,1.3,1.23.42l4.9,1.33a7,7,0,0,0,7,1.69c4.13,1,8.52.72,12.44,2.66,10.81,6.47,22.24,11.69,33.64,17l6.51,5.21c0,1,.37,1.27,1.25.75l3.29,2.29c0.18,1.65,1,2.36,2.7,1.91l5,2.42a10.56,10.56,0,0,0,6.76,5.27c3.47,2.54,6.51,5.44,8,9.62a19.49,19.49,0,0,0,8.21,8.48l6.69,6.15L689.15,297c-3.91,3.43-7.91,6.76-11.7,10.31-5.3,5-4.39,10.17.48,14.57a50.88,50.88,0,0,1,8.72,11c11.24,17.79,20.05,36.48,21.08,58,0.22,4.52,1.26,8.54,7.11,8.27a2.22,2.22,0,0,0-.29.65,1,1,0,0,0,.18.61c4.43-.21,8.35.84,11.26,4.47l0.75,5.51c-1.38,12.58,1.94,25.55-3.33,37.87A6,6,0,0,0,724.4,454.55ZM375.67,595.82l4.6,3.94c8,9.49,13.49,9.81,18.64,1.08,3.88-4.62,2.59-7.69-2.8-9.69a31.73,31.73,0,0,1-4.33-2.4c0.23-1.11-.21-1.35-1.18-0.92l-6.24-5.35c-3.19-4.78-6.42-9.53-11.68-12.36l-2.12-5.23,0.2-3.91c4.39-.52,5.6-2.84,3.53-6.67a134.84,134.84,0,0,0-7-12.18c-12.36-18.05-22.55-36.73-27.59-58.6-6-25.91-9.59-51.59-6.66-78.1,2-18.53,6.83-36.44,11.39-54.38,4.51-2.21,2.11-10.32,7.31-10.44,4.25-.09,8.56,3.33,12.88,5.1a7.2,7.2,0,0,0,3.53.71c1.67-.25,3.51-0.83,2.92-3.29,1.43-8.33,6.08-14.88,11-21.51,6.65-8.91,13.39-17.83,20.39-26.37s16.6-15.44,25.16-22.91c3-2.65,5.83-5.06,2.12-9.12-4.89-5.35-8.25-11.72-12-17.81-5.12-8.22-7.57-8.53-14.85-1.81A232,232,0,0,1,376.34,265a4.34,4.34,0,0,0-3.61,3.92,19.09,19.09,0,0,1-5.41,8c-2.32,1.32-4.54,3.08-7.45,1.56l-5.39-6.42c-1-2.62-1.91-5.32-5.64-3.52-4.58,2.63-6.09,7.74-9.29,11.49-1.84.16-2.7,1-2.06,2.92l-3.69,4.63c-1.12,0-1.45.46-.79,1.44l-5.71,6c-7.13,6.91-10.57,15.87-13.81,24.93-4.37,12.12-9.33,24.06-13,36.38-17.71,59.43-7.66,116.91,13.36,173.34,6.8,18.25,20.39,32.64,30.48,49,0.66,1.07,2.46,1.43,3.7,2.11a7.64,7.64,0,0,0,.34,1.32,0.76,0.76,0,0,0,.63.26c7.74-7.34,11.26.29,15.87,4.37,1.37,1.22,2.21,3.43,4.66,3.11l3.66,3.54C372.86,595.43,373.78,596.13,375.67,595.82Zm169.51,54c8.81,1.69,17.62.77,26.43,0a4,4,0,0,0,4.83-.58l5.61-1c9.68-.8,18.72-4.18,27.86-7.05,7.58-2.38,8.28-4.59,5.45-12.8l-1.27-8.9c0.1-.93.6-2.06,0.24-2.75-4.08-7.77.06-10.59,6.82-13.2,6.43-2.49,13.28-4.68,18.23-10,19.35-9.31,34-24.43,48.17-39.89,11-11.92,19.1-25.79,26-40.44,4.57-9.74,4.5-9.27-4.66-15.2-5-3.21-6.87-2.21-9.52,2.56-13.67,24.54-29.17,47.46-53.48,63.22-19.21,12.45-38.09,25.21-61.35,28.74-6.17,1.39-14.31-.74-15.66,9.14-0.27,2-2.55,1.84-4.24,2.08-2.59.37-5.37,0-7.66,1.71l-14,.67c-3.43,0-6.87.33-10.28,0.07-5.72-.44-8.38,2-7.79,7.66,0.71,6.78-2.64,8.71-8.76,7.84a18.84,18.84,0,0,0-4.29.37c-29.46-.66-54.25-14-78.24-29.2-3.9-2.47-6.29-2.28-8.52,1.44q-5.75,9.56-11.33,19.22c-1.3,2.26-2.3,5.19.72,6.44,14,5.79,25.57,15.87,39.81,21.44a177.07,177.07,0,0,0,42.15,11.27c0.27,0.91.66,1.22,1.28,0.24l8.15,1.18c0.57,1.29,1.33,1.31,2.25.35l9.91,1c1.6,1.54,3.32,1.37,5.1.36,18.56,1.25,18.56,1.25,18.14-12.16l2.09-3.85,0.75,6.31C542.94,647.81,543.44,649,545.17,649.86Zm-0.84-417a183.88,183.88,0,0,0-56.55,7.9c-17.83,5.28-33.26,15.45-50.27,22.25a5.92,5.92,0,0,0-3.67,5.21,13.6,13.6,0,0,0,5.07,12.61c3.46,2.8,6.64-.63,9.36-2.34,25.46-16.09,54-22.56,83.3-25.15,31.75-2.8,62.24,3.59,90.79,17.87,8.21,4.11,9.93-2.13,13-6.54,3.77-5.44-1.83-6.25-4.56-7.83C603.35,241.07,574.13,231.72,544.33,232.9Zm-104,141.58q0-13,0-26.07c0-12.93-.68-13.42-13.37-12.49-4,.29-5.93,1.82-5.85,5.88,0.09,4.72-.08,9.44.08,14.15,0.14,4.24-.55,7.2-5.89,7.28-5.63.08-6.65-2.94-6.47-7.56,0.16-4.22-.24-8.46.11-12.66,0.62-7.27-4.09-7.37-9.1-7.19-4.74.17-10.39-1.39-10.31,6.75,0.2,20.85.16,41.71,0,62.56,0,4.9,2,6.79,6.69,6.41a39.88,39.88,0,0,1,6.7-.05c4.71,0.42,6.08-1.94,6-6.23-0.15-6.2.15-12.42,0-18.62-0.11-4.17,1.65-5.82,5.73-5.78s6.65,1.22,6.46,5.95c-0.18,4.46,0,8.94.06,13.4,0,11.78,0,11.52,12.09,11.5,5.6,0,7.38-2,7.21-7.46C440.15,394.36,440.38,384.42,440.37,374.49Zm-93,65.49c-3,.1-7.07-0.8-6.69,4.3,0.64,8.65.83,17.47,2.71,25.87,6,26.71,19.15,50.3,33.53,73.26,6.13,9.79,15.63,16.47,23,25,6,6.91,13,12.14,19.84,17.79,4.17,3.43,9.08,1.81,13.54,2.14,3.77,0.28,5.61-6.05,2.87-9.16-2.44-2.77-5-5.66-8-7.64-18.11-11.72-30.28-29-42.08-46.2-15.8-23.06-23.7-49.51-28.38-76.85C356.56,442,353.9,439.24,347.38,440Zm233.14,21.87h0.08c0,9.93-.13,19.85,0,29.78,0.15,8.86,3.16,11.14,11.7,8.69,4.36-1.25,8.31-2.28,12.94-.59,9.64,3.52,18.25-1,21.67-10.77,4.17-11.87,4.22-23.82.94-35.85-2.8-10.28-8.1-13.89-18.49-12.75-9.55,1.05-9.94,1.05-10-8.17,0-7.49-3.76-9-10.3-9.13-7.23-.09-8.84,3.51-8.68,9.75C580.7,442.48,580.52,452.17,580.52,461.84ZM573.81,369a7.68,7.68,0,0,1-1.1-2.3c-0.19-6.2-.37-12.4-0.39-18.6,0-12.25-1.67-13.65-13.75-12.21-3.42.41-4.82,1.88-4.82,5.2q0.06,32.77,0,65.55c0,2.39.53,4.17,3.41,4.87,10.24,2.47,14.41-.43,15.11-10.79,0.16-2.39-.38-5.61,2.84-6.07,2.74-.39,3.39,2.65,4,4.62,3,9.27,8.29,14.36,19,12.55,5-.84,6.23-2,3.83-6.44-4-7.41-7.49-15.21-12.23-22.14-2.92-4.26-2.21-7,.3-10.59,3.28-4.67,6.35-9.49,9.39-14.32,1.25-2,2.18-4-1.32-5.09-8.22-2.5-15,.28-19,7.81C577.75,363.78,576.74,366.89,573.81,369ZM681.1,465.59c0.5-6.4-1.58-12.47-4.17-18.45-1.17-2.71-2.88-4.6-5.8-5.25-9.07-2-18.05-2.93-27.16.33-5.42,1.94-8.47,4.84-9.64,10.81-1.84,9.36-2.83,18.52-1.13,28a25.26,25.26,0,0,0,39.52,16.19,8.43,8.43,0,0,0,3.56-4.63C678.63,483.83,681.71,475.17,681.1,465.59Zm-199.55,4.13h0.06q0-4.84,0-9.68c0-3.47-.22-7,0-10.42,0.4-6-2.09-8.42-8.24-8.37-10.25.09-10.64,0.15-10.73,10.07,0,4,0,7.94,0,11.91-0.06,5.46,0,10.92-.31,16.37-0.12,2.26-1,4.59-3.87,4.62s-3.79-2.11-4.05-4.46-0.23-5-.28-7.43c-0.16-8.18.36-16.36-.6-24.54-1.16-9.82-8.66-5.79-13.84-6.49-5.5-.75-5.78,3.29-5.78,7.25,0,11.42-.06,22.84,0,34.25,0.11,14.22,9.9,20.63,23,14.94,2.85-1.24,4.64-1.61,7.89,0,9.93,4.92,16.6.25,16.71-10.89C481.6,481.14,481.56,475.43,481.56,469.72Zm89.69,4.94h-0.38c0-6.95.21-13.9-.07-20.83-0.23-5.6-2.67-10.21-8.42-11.91a46.4,46.4,0,0,0-27.15.08c-5.45,1.67-8.63,5.63-8.53,11.67,0,2.13.57,4.29,2.92,4.56,5.26,0.59,11,2.59,14.73-3.48,1.41-2.29,3.31-3.75,6.17-3,2,0.53,2.49,2.24,2.69,4a5.61,5.61,0,0,1-4,6.34c-3.27,1.14-6.66,1.93-10,2.74-13.05,3.15-16.07,8.06-14.33,23.05,0.92,7.92,7.52,13.85,15.07,11.85,8.51-2.25,16.53-1.94,24.9-1,5,0.58,7.13-1.62,6.61-7C570.82,486.11,571.24,480.37,571.24,474.66Zm-77.67-88h-0.23c0-6.7.09-13.4,0-20.09-0.07-3.78-.92-7.24-4-10.05-7.64-7.1-29.1-5.86-35.65,2.26a17.13,17.13,0,0,0-3.52,8.1c-0.43,2.61.53,4.79,3.24,4.79,4.61,0,10.22,2.44,12.69-4.31,0.88-2.41,3-3.2,5.45-2.81a4.31,4.31,0,0,1,3.8,4c0.43,2.75-.5,5.06-3.11,6.11-3.44,1.38-7.13,2.16-10.53,3.62-4.24,1.82-9.32,2.44-12.21,6.5-3.6,5-2.78,17.8,1.07,22.77,3.5,4.52,12.72,6.07,20,3.21,2-.79,3.75-2.7,6.11-0.92,3.52,2.67,7.66,1.33,11.52,1.78,4.24,0.49,5.63-1.4,5.42-5.6C493.34,399.57,493.58,393.11,493.58,386.66ZM520.76,383c0.27-4.47.38-8.45,0.8-12.4,0.24-2.31,1.3-4.51,3.92-4.8,2.92-.33,3.65,2,4.23,4.27a16,16,0,0,0,.57,2.92c3.38,6.95,9.6,3.44,14.51,3.4,4.71,0,3.79-4.25,3.28-7.45-1.47-9.21-6.91-15.17-14.91-16.42-15-2.36-24.55.92-28.95,10.91-5.33,12.12-5.07,24.68-1,37.16,1.61,5,4.92,9.08,10,10.29a47.65,47.65,0,0,0,24.35-.26c6.78-2,12.77-13.16,10.86-20.23-1.85-6.86-7.88-3.25-12-3.84-5.82-.82-5.81,3.92-6.52,7.86-0.39,2.18-.95,4.78-3.71,5-3.18.21-4.18-2.43-4.51-4.95C521.13,390.5,521,386.52,520.76,383Zm-118,85.5h0.05c0,7,.21,13.92-0.06,20.86-0.27,7.14,3,9.71,9.91,9.54,9.34-.24,10.57-0.84,10.69-9.1q0.3-20.86.12-41.73c0-4.74,1.19-7.92,6.62-7.39,6.12,0.6,7.91-2.73,7.72-8.07-0.18-5.07-1-9-7.61-9.62-11-1.09-21.81-.08-32.72.17-5.6.13-8.23,2.19-8.19,7.94,0,5.14.31,9.76,7.21,9.5,5-.19,6.37,2.59,6.28,7C402.66,454.62,402.76,461.58,402.76,468.54Zm97.48-27.18c-5.41.32-10.93-1.31-10.87,6.38q0.18,22.35,0,44.7c-0.06,6.24,3.85,6.51,8.43,6.38s10,0.92,10.14-6.38c0.07-6,.05-11.92.05-17.88,0-13.2,0-13.24,12.37-17.71,6.12-2.21,3.93-7.21,3.82-11.39s-3.19-6.15-6.61-4.84C511.43,443,505.43,441.91,500.24,441.35Z"/><path class="cls-13" d="M348,580.86c-1.27-.69-3.07-1.06-3.73-2.12-10.09-16.4-23.68-30.79-30.48-49-21-56.43-31.07-113.92-13.36-173.34,3.67-12.32,8.63-24.26,13-36.36a162.54,162.54,0,0,0,13.82-25l5.7-6c1.09,0,1.36-.51.8-1.45l3.68-4.62c1.59-.33,2.45-1.19,2.06-2.93,3.2-3.75,4.71-8.86,9.28-11.48l5.66,3.52,5.38,6.41a39.14,39.14,0,0,1-8.63,12.71,33.9,33.9,0,0,0-8.94,13.42,70.78,70.78,0,0,1-8.86,17c-3.89,5.5-3.48,9,2.7,12.41,10.68,5.83,10.55,6.07,8.28,17C339.83,369,335,386.9,333,405.42c-2.93,26.52.69,52.19,6.66,78.1,5,21.87,15.23,40.55,27.59,58.6a134.84,134.84,0,0,1,7,12.18c2.07,3.84.87,6.15-3.52,6.68-3.41-6-7.13-11.86-10.16-18-2.38-4.85-5.52-5.91-10.19-3.82-2.49,1.11-5,2.09-7.46,3.32-4.67,2.39-6.39,5.9-4,11,3,6.47,5,13.43,10,18.83C351.93,575.48,351.87,578.37,348,580.86Z"/><path class="cls-13" d="M768.47,459.35H773a5.83,5.83,0,0,0,.58,5l-1.44,8c-1,.25-1.17.69-0.27,1.34l-2.45,10.8c-1,.28-1.15.78-0.34,1.49-6.84,39.38-28.12,71.17-54.06,100-13.31,14.82-28.38,28.09-46.37,37.55-4.21,2.22-6.42,1.64-9.31-1.94-11.81-14.67-12-18.33,3.37-27.29,13.17-7.67,22.86-18.82,33.31-29.21,15.16-15.07,26.78-32.82,36.6-51.78,2.57-5,3-10.47,5-15.52,3.64-6.56,4.64-13.93,6.21-21.13C746.15,466,746.12,466,757,468,767.51,469.95,767.51,469.95,768.47,459.35Z"/><path class="cls-13" d="M482,231.76c-12.6.47-23.1,7.06-34.14,11.94-5.08,2.25-8.21,1.59-11.11-3.21-4.6-7.61-9.45-15.09-14.57-22.36-3.71-5.27-3.17-9,2.72-11.81,3.12-1.49,6.17-3.11,9.23-4.66,2.2,0.46,3.68-1.17,5.39-2,37.45-18,76.88-24,118.08-20.09,6.26,0.6,7.85,3.54,7.49,9.28-0.48,7.58-5.26,6.89-10.53,6.48-19.41-1.52-19.57-1.45-19.42,17.4,0,5.43-2,7.16-7.24,7.91C512.29,222.89,496.59,225.09,482,231.76Z"/><path class="cls-13" d="M578.21,201.93l10,1.06a1.12,1.12,0,0,0,1.91.16l5.34,0.94c0.75,1.7,2.51,1.34,3.82,1.66,23.87,5.87,46.06,16.49,66.37,29.43,17,10.83,32.91,24.38,44.78,41.68,4,5.77,5.33,10.08-.29,15-2.16.39-4,1.26-4.72,3.51-5,4.25-9.13,1.51-13.16-1.79l-6.69-6.16a14.42,14.42,0,0,0-8.22-8.49c-1.5-4.18-4.54-7.08-8-9.61a8.11,8.11,0,0,0-6.78-5.28l-5-2.41c-0.25-1.55-1-2.35-2.71-1.92l-3.28-2.29c0.11-1.13-.33-1.35-1.26-0.75l-6.5-5.2c-10-8-21.53-13.12-33.65-17-3.92-1.94-8.31-1.68-12.42-2.66a7.52,7.52,0,0,0-7-1.69l-4.89-1.32c-0.16-.87-0.57-1-1.24-0.42l-4.8-1.22c-0.28-.76-0.67-0.91-1.22-0.22l-4.8-1c-0.56-1.15-1.29-1.25-2.18-.34l-8.37-1a5.16,5.16,0,0,0-6.35-.7l-7.06-.81c-7-.64-11.36-3.63-10.14-11.53a3.7,3.7,0,0,0,0-.74c-0.59-11.23-.19-11.5,11.31-11.15C560.11,199.94,569,202.64,578.21,201.93Z"/><path class="cls-13" d="M367.32,276.95a19,19,0,0,0,5.4-8,3.72,3.72,0,0,0,3.62-3.94,232,232,0,0,0,26.5-21.43c7.28-6.72,9.73-6.41,14.85,1.81,3.79,6.09,7.15,12.47,12,17.81,3.71,4.05.92,6.47-2.12,9.12-8.56,7.47-18,14.23-25.16,22.91s-13.74,17.46-20.39,26.37c-5,6.64-9.6,13.18-11,21.5-1.89.32-4.21,1.52-5.64,0.85-9.19-4.34-18.86-7.82-27-14.19-1.74-1.36-2.83-3.51-1.44-5.22,5.1-6.31,5.92-14.56,10.37-21.28C353.46,294,362.41,287,367.32,276.95Z"/><path class="cls-13" d="M544.33,232.9c29.79-1.18,59,8.16,86.45,24,2.73,1.58,8.33,2.38,4.56,7.83-3.05,4.41-4.77,10.64-13,6.54-28.55-14.28-59-20.67-90.79-17.87-29.31,2.59-57.84,9.06-83.3,25.15-2.72,1.72-5.9,5.14-9.36,2.34a13.6,13.6,0,0,1-5.07-12.61,5.92,5.92,0,0,1,3.67-5.21c17-6.8,32.45-17,50.27-22.25A183.88,183.88,0,0,1,544.33,232.9Z"/><path class="cls-13" d="M505.9,654.1l-8.14-1.18c-0.28-.86-0.71-0.94-1.29-0.24a177.07,177.07,0,0,1-42.15-11.27c-14.25-5.58-25.82-15.65-39.81-21.44-3-1.25-2-4.18-.72-6.44q5.58-9.66,11.33-19.22c2.24-3.72,4.63-3.91,8.52-1.44,24,15.22,48.78,28.53,78.22,29.19,5.81,2.45,12,2.54,18.12,2.25s8.33,2.35,8.93,8.09c0.39,3.75-.63,8,2.35,11.24,0.43,13.44.43,13.44-18.11,12.19-1.59-1.58-3.31-1.58-5.11-.36l-9.9-1C507.6,653.12,506.85,653,505.9,654.1Z"/><path class="cls-13" d="M584.48,592.55c23.3-3.54,42.18-16.3,61.39-28.75,24.31-15.76,39.81-38.68,53.48-63.22,2.66-4.77,4.57-5.76,9.52-2.56,9.16,5.93,9.23,5.46,4.66,15.2-6.88,14.65-15,28.52-26,40.44-14.22,15.46-28.82,30.58-48.15,39.88-2.9,0-5,2-7.34,3.2-15.84,7.89-32.11,14.49-49.6,17.81-5.26,1-8.94,1.13-9.92-5.9-1.52-10.91-2-10.83,8.9-14.36C582.54,593.94,584,594,584.48,592.55Z"/><path class="cls-13" d="M440.37,374.49c0,9.93-.22,19.87.09,29.79,0.17,5.42-1.61,7.46-7.21,7.46-12.06,0-12.05.28-12.09-11.5,0-4.47-.24-8.94-0.06-13.4,0.19-4.73-2.35-5.91-6.46-5.95s-5.84,1.61-5.73,5.78c0.17,6.2-.14,12.42,0,18.62,0.11,4.29-1.27,6.65-6,6.23a39.88,39.88,0,0,0-6.7.05c-4.72.38-6.72-1.51-6.69-6.41,0.14-20.85.18-41.71,0-62.56-0.08-8.14,5.57-6.58,10.31-6.75,5-.18,9.72-0.09,9.1,7.19-0.36,4.19,0,8.44-.11,12.66-0.17,4.62.84,7.64,6.47,7.56,5.34-.08,6-3,5.89-7.28-0.16-4.71,0-9.43-.08-14.15-0.08-4.07,1.84-5.59,5.85-5.88,12.69-.93,13.35-0.44,13.37,12.49Q440.39,361.45,440.37,374.49Z"/><path class="cls-13" d="M701,303.16c7,7.06,11.61,15.89,17,24,10.91,16.45,18.6,34.47,20.74,54.45a13.21,13.21,0,0,1-.37,5.86c-7.72,1.46-16.62.52-20.32,10.2-0.31.8-2.12,1-3.24,1.52-5.88.27-6.92-3.75-7.14-8.27-1-21.52-9.84-40.21-21.08-58a50.88,50.88,0,0,0-8.72-11c-4.87-4.4-5.78-9.61-.48-14.57,3.8-3.55,7.8-6.88,11.69-10.31,3.68,1.29,4.52,6.81,9.4,6.33l2.61-.3Z"/><path class="cls-13" d="M679.84,229.11l3.14,2.18c0,0.94.49,1.08,1.26,0.74l4.78,2.35A105.16,105.16,0,0,0,705,248.48l2.06,3.65c2.81,3.75,5.42,7.74,9.88,9.86l8.09,7.84c-0.23,1.64.59,2.5,2.14,2.81l3.67,4.72c-0.36.9-.11,1.37,0.92,1.26l2.34,3.05c-0.55.89-.21,1.26,0.75,1.27,2.27,8.65,9.69,14.09,13.49,21.91,6,12.46,13.66,24.12,18,37.43,2,6.17.89,9.51-6,10a26.51,26.51,0,0,0-6.45,1.66c-10.52,3.63-10.62,3.7-14.46-6.51-1.91-5.08-3.33-10.34-5-15.5a9.32,9.32,0,0,0-3.63-8.07l-2-2.3c-2.78-8.58-8.5-15.5-13.29-22.94-1.74-2.69-3.23-5,.67-7.31,5.67-3.37,5.12-7.79,1.5-12.46-5.6-7.2-10.55-14.91-17.75-20.8-11.79-9.65-21.83-21.43-36-28.23-6.65-3.2-12.71-7.62-19-11.47-3.26-2-3.35-4.61-1.56-7.6,1.94-3.24,4.3-1.39,6.41-.37,5.52,2.67,11,5.48,16.44,8.24l3.45,2.28c1.44,1.79,3,3.37,5.53,3.56l3.38,3.62C678.4,229.22,678.86,229.49,679.84,229.11Z"/><path class="cls-13" d="M347.38,440c6.53-.74,9.19,2,10.31,8.55,4.68,27.33,12.58,53.78,28.38,76.85,11.8,17.22,24,34.48,42.08,46.2,3.05,2,5.59,4.87,8,7.64,2.74,3.1.9,9.44-2.87,9.16-4.46-.33-9.37,1.29-13.54-2.14-6.87-5.65-13.89-10.88-19.84-17.79-7.37-8.55-16.87-15.23-23-25-14.38-23-27.53-46.55-33.53-73.26-1.89-8.41-2.08-17.22-2.71-25.87C340.31,439.18,344.37,440.07,347.38,440Z"/><path class="cls-14" d="M580.52,461.84c0-9.68.18-19.36-.07-29-0.16-6.24,1.45-9.84,8.68-9.75,6.54,0.08,10.27,1.64,10.3,9.13,0,9.22.42,9.22,10,8.17,10.39-1.14,15.69,2.47,18.49,12.75,3.28,12,3.23,24-.94,35.85-3.42,9.72-12,14.29-21.67,10.77-4.63-1.69-8.58-.67-12.94.59-8.54,2.45-11.54.17-11.7-8.69-0.17-9.92,0-19.85,0-29.78h-0.08Zm18.41,7.09c0.4,4,.55,7.46,1.17,10.83,0.41,2.23,1.71,4.2,4.35,4.4s4-1.65,4.63-3.93a45,45,0,0,0-.09-21.94,4.48,4.48,0,0,0-4.85-3.72c-2.39.13-3.46,1.9-3.81,3.91C599.68,462.11,599.34,465.79,598.93,468.94Z"/><path class="cls-13" d="M766.22,390.19c3.32,16.89,2.08,33.92,1.58,50.93q-0.26,8.87-.51,17.73c-2.63,4.52-6.41,5.22-11.31,4.07-9.79-2.31-19.67-4.2-29.52-6.27l-2.06-2.07c1-4,2.33-8,2.83-12.16,1.29-10.65,3-21.36-.49-32L726,405c1.55-3.5-2.55-9.57,3.57-10.74C741.63,391.91,753.75,389.18,766.22,390.19Z"/><path class="cls-13" d="M544.12,646.13l-0.75-6.31c1.54-3.15-.12-6.28,0-9.42,0.17-7-2.53-10.73-10.16-9.52-4.53.72-6.79-1.05-6.72-6.1s2.07-6.92,7.09-7c3.11-.07,6.89,2.08,9.46-1.62l13.93-.67c6.68,0.11,12,1.19,12.06,10,0,4.78,4.61,5.39,8.5,4.56,8.45-1.81,17-3.49,25.18-6.12,6.24-2,9.74-.62,11.41,5.61l1.27,8.88c1.12,7.08-2.26,10.31-8.95,12.31-8.13,2.44-16.7,3.61-24.36,7.56l-5.59,1c-1.7-.65-3.37-0.79-4.85.58-8.81.77-17.62,1.7-26.42,0C546,648.29,545.77,647,544.12,646.13Z"/><path class="cls-13" d="M573.81,369c2.93-2.11,3.94-5.22,5.37-7.94,4-7.53,10.75-10.31,19-7.81,3.5,1.07,2.57,3.1,1.32,5.09-3,4.83-6.11,9.65-9.39,14.32-2.51,3.57-3.22,6.33-.3,10.59,4.74,6.93,8.2,14.73,12.23,22.14,2.4,4.4,1.15,5.6-3.83,6.44-10.72,1.81-16-3.28-19-12.55-0.65-2-1.29-5-4-4.62-3.22.46-2.68,3.67-2.84,6.07-0.69,10.36-4.86,13.26-15.11,10.79-2.88-.7-3.41-2.48-3.41-4.87q0-32.77,0-65.55c0-3.32,1.4-4.8,4.82-5.2,12.08-1.44,13.73,0,13.75,12.21,0,6.2.2,12.4,0.39,18.6A7.68,7.68,0,0,0,573.81,369Z"/><path class="cls-14" d="M681.1,465.59c0.61,9.58-2.47,18.24-4.82,27a8.43,8.43,0,0,1-3.56,4.63,25.26,25.26,0,0,1-39.52-16.19c-1.7-9.51-.71-18.67,1.13-28,1.17-6,4.22-8.88,9.64-10.81,9.11-3.26,18.09-2.33,27.16-.33,2.92,0.65,4.63,2.54,5.8,5.25C679.52,453.12,681.61,459.19,681.1,465.59Zm-28.79,2.58c0.22,4.92.26,8.63,0.59,12.32,0.21,2.29,1.17,4.61,3.71,5,3.06,0.43,4.53-2.06,5-4.47a56.13,56.13,0,0,0-.41-24.26c-0.47-2.06-1.62-3.7-4-3.68s-3.61,1.78-3.89,3.79C652.77,461,652.56,465.19,652.31,468.17Z"/><path class="cls-14" d="M481.56,469.72c0,5.71,0,11.42,0,17.13-0.11,11.14-6.78,15.81-16.71,10.89-3.26-1.61-5-1.24-7.89,0-13.09,5.69-22.88-.72-23-14.94-0.09-11.42,0-22.84,0-34.25,0-4,.28-8,5.78-7.25,5.18,0.71,12.68-3.33,13.84,6.49,1,8.18.45,16.36,0.6,24.54,0,2.48,0,5,.28,7.43s1.25,4.49,4.05,4.46,3.75-2.36,3.87-4.62c0.28-5.45.25-10.91,0.31-16.37,0-4,0-7.94,0-11.91,0.1-9.91.49-10,10.73-10.07,6.14-.05,8.64,2.34,8.24,8.37-0.23,3.46,0,6.95,0,10.42q0,4.84,0,9.68h-0.06Z"/><path class="cls-14" d="M571.24,474.66c0,5.7-.43,11.45.12,17.1,0.52,5.4-1.59,7.6-6.61,7-8.37-1-16.39-1.27-24.9,1-7.55,2-14.15-3.92-15.07-11.85-1.75-15,1.28-19.9,14.33-23.05,3.37-.81,6.77-1.6,10-2.74a5.61,5.61,0,0,0,4-6.34c-0.2-1.79-.67-3.51-2.69-4-2.86-.75-4.76.71-6.17,3-3.75,6.07-9.48,4.07-14.73,3.48-2.35-.26-2.89-2.43-2.92-4.56-0.11-6,3.08-10,8.53-11.67a46.4,46.4,0,0,1,27.15-.08c5.75,1.7,8.19,6.3,8.42,11.91,0.28,6.93.07,13.89,0.07,20.83h0.38Zm-17.7,3.56c-0.32-2.76.36-6.16-3.91-5.76-3.75.36-5.6,2.84-5.67,6.51-0.06,3.13.66,6.5,4.33,6.56C553,485.62,552.88,481.36,553.54,478.23Z"/><path class="cls-13" d="M493.58,386.66c0,6.45-.23,12.91.08,19.35,0.21,4.2-1.18,6.09-5.42,5.6-3.86-.44-8,0.89-11.52-1.78-2.35-1.78-4.09.13-6.11,0.92-7.29,2.86-16.51,1.31-20-3.21-3.85-5-4.67-17.73-1.07-22.77,2.89-4.05,8-4.68,12.21-6.5,3.4-1.46,7.09-2.23,10.53-3.62,2.61-1.05,3.54-3.37,3.11-6.11a4.31,4.31,0,0,0-3.8-4c-2.5-.39-4.57.4-5.45,2.81-2.47,6.74-8.09,4.31-12.69,4.31-2.71,0-3.67-2.18-3.24-4.79a17.13,17.13,0,0,1,3.52-8.1c6.54-8.12,28-9.36,35.65-2.26,3,2.82,3.88,6.28,4,10.05,0.12,6.7,0,13.4,0,20.09h0.23Zm-17.85,3.91c0-2.94.26-6-3.32-5.83-4.74.2-7,3.48-7.23,7.94-0.17,3.43.78,7,5.1,6.63C475.75,398.84,475.12,394,475.72,390.57Z"/><path class="cls-13" d="M520.76,383c0.25,3.49.36,7.47,0.87,11.4,0.32,2.52,1.32,5.15,4.51,4.95,2.76-.18,3.32-2.77,3.71-5,0.71-3.94.7-8.68,6.52-7.86,4.17,0.59,10.2-3,12,3.84,1.91,7.07-4.08,18.26-10.86,20.23a47.65,47.65,0,0,1-24.35.26c-5.11-1.21-8.43-5.32-10-10.29-4-12.47-4.29-25,1-37.16,4.39-10,13.91-13.27,28.95-10.91,8,1.26,13.44,7.21,14.91,16.42,0.51,3.2,1.42,7.42-3.28,7.45-4.91,0-11.13,3.54-14.51-3.4a16,16,0,0,1-.57-2.92c-0.58-2.23-1.31-4.59-4.23-4.27-2.62.29-3.68,2.49-3.92,4.8C521.15,374.58,521,378.56,520.76,383Z"/><path class="cls-14" d="M402.76,468.54c0-7-.1-13.91,0-20.86,0.09-4.46-1.29-7.23-6.28-7-6.89.26-7.16-4.36-7.21-9.5,0-5.74,2.59-7.81,8.19-7.94,10.91-.25,21.76-1.25,32.72-0.17,6.63,0.66,7.43,4.55,7.61,9.62,0.19,5.34-1.61,8.67-7.72,8.07-5.44-.53-6.66,2.65-6.62,7.39q0.16,20.86-.12,41.73c-0.12,8.26-1.35,8.86-10.69,9.1-6.91.18-10.18-2.4-9.91-9.54,0.27-6.94.06-13.91,0.06-20.86h-0.05Z"/><path class="cls-14" d="M500.24,441.35c5.19,0.56,11.19,1.6,17.34-.74,3.42-1.3,6.5.66,6.61,4.84s2.3,9.17-3.82,11.39C508,461.32,508,461.35,508,474.55c0,6,0,11.92-.05,17.88-0.09,7.3-5.45,6.24-10.14,6.38s-8.49-.13-8.43-6.38q0.2-22.35,0-44.7C489.31,440,494.84,441.67,500.24,441.35Z"/><path class="cls-13" d="M380.27,599.76l-4.59-3.93a2.22,2.22,0,0,0-2.5-2.39l-3.64-3.53c-2.66-4.75-7.26-7.8-10.61-12-6.11-7.57-13-14.62-16.26-24.11-2.12-6.14,2.39-7.45,6.57-9.35,4.33-2,6.95-.82,8.9,3.33,3,6.46,6.62,12.58,12.43,17.06l2.12,5.22a30.76,30.76,0,0,0,11.69,12.37l6.23,5.34c-0.18,1,.26,1.29,1.19.93a31.73,31.73,0,0,0,4.33,2.4c5.39,2,6.68,5.07,2.81,9.68-5.42,5.46-10.75,5.14-16.09-.21C382.27,600,381.14,600,380.27,599.76Z"/><path class="cls-12" d="M578.21,201.93c-9.19.71-18.09-2-27.21-2.27-11.5-.35-11.9-0.08-11.31,11.15a3.7,3.7,0,0,1,0,.74c-1.22,7.91,3.14,10.9,10.14,11.53a5.78,5.78,0,0,1-5,.58c-18.14-4.79-34.94,2.1-52.1,5.82-3.58.78-6.89,2.8-10.72,2.28,14.59-6.68,30.29-8.88,45.91-11.12,5.21-.75,7.29-2.47,7.24-7.91-0.15-18.86,0-18.93,19.42-17.4,5.27,0.41,10,1.1,10.53-6.48,0.37-5.75-1.22-8.68-7.49-9.28-41.2-4-80.63,2.13-118.08,20.09-1.71.82-3.2,2.46-5.39,2,1.79-3.93,6-4.08,9.17-5.56,36.27-17,74.48-22.49,114.14-18.42,9.51,1,11.15,2.32,9.07,11.81-2,9.14,2,10.87,9.2,11.28C576.61,200.82,577.81,200.65,578.21,201.93Z"/><path class="cls-12" d="M666.26,218.66c-5.48-2.76-10.92-5.57-16.44-8.24-2.11-1-4.48-2.87-6.41.37-1.79,3-1.71,5.62,1.56,7.6,6.33,3.85,12.39,8.27,19,11.47,14.13,6.8,24.17,18.57,36,28.23,7.2,5.89,12.15,13.6,17.75,20.8,3.63,4.67,4.18,9.08-1.5,12.46-3.9,2.32-2.41,4.62-.67,7.31,4.8,7.44,10.51,14.35,13.29,22.94-7-9.48-13.5-19.19-18.71-29.74,5.63-4.92,4.26-9.23.3-15-11.87-17.3-27.77-30.85-44.78-41.68-20.32-12.93-42.5-23.56-66.37-29.43-1.32-.32-3.07,0-3.82-1.66,9-.83,16.58,3.93,24.67,6.58a65.69,65.69,0,0,1,9.68,3.71C635.5,217.31,640,218,641.69,210c0.41-2,2.07-4.17,4.21-3.24C653.13,209.93,661,212.06,666.26,218.66Z"/><path class="cls-12" d="M367.32,276.95c-4.91,10.07-13.86,17.08-20,26.32-4.45,6.72-5.27,15-10.37,21.28-1.38,1.71-.3,3.86,1.44,5.22,8.12,6.36,17.79,9.85,27,14.19,1.43,0.67,3.74-.53,5.64-0.85,0.58,2.48-1.25,3.06-2.93,3.31a7.2,7.2,0,0,1-3.53-.71c-4.32-1.77-8.63-5.2-12.88-5.1-5.2.12-2.8,8.23-7.3,10.42,2.29-10.91,2.42-11.15-8.27-17-6.18-3.37-6.58-6.9-2.7-12.41a70.78,70.78,0,0,0,8.86-17,33.9,33.9,0,0,1,8.94-13.42,39.14,39.14,0,0,0,8.63-12.71C362.78,280,365,278.27,367.32,276.95Z"/><path class="cls-12" d="M614.09,619.56c-1.67-6.23-5.16-7.62-11.41-5.61-8.21,2.63-16.73,4.32-25.18,6.12-3.89.83-8.49,0.22-8.5-4.56,0-8.86-5.39-9.93-12.06-10,2.31-1.72,5.09-1.33,7.68-1.71,1.68-.24,4-0.07,4.24-2.08,1.35-9.88,9.49-7.75,15.64-9.13-0.52,1.48-2,1.39-3.07,1.75-10.86,3.53-10.41,3.45-8.9,14.36,1,7,4.66,6.9,9.92,5.9,17.49-3.32,33.76-9.92,49.6-17.81,2.38-1.18,4.44-3.23,7.34-3.2-5,5.38-11.82,7.57-18.25,10.06-6.76,2.61-10.9,5.43-6.82,13.2C614.69,617.5,614.19,618.63,614.09,619.56Z"/><path class="cls-12" d="M370.56,564.89c-5.81-4.47-9.39-10.59-12.43-17.06-2-4.16-4.57-5.3-8.9-3.33-4.18,1.9-8.69,3.2-6.57,9.35,3.27,9.49,10.15,16.54,16.26,24.11,3.36,4.15,8,7.21,10.61,12-2.46.31-3.3-1.91-4.67-3.12-4.61-4.08-8.13-11.7-15.87-4.37a0.76,0.76,0,0,1-.63-0.26,6.56,6.56,0,0,1-.33-1.31c3.84-2.48,3.9-5.37.93-8.58-5-5.4-7-12.37-10-18.83-2.36-5.09-.64-8.6,4-11,2.42-1.24,5-2.21,7.46-3.32,4.66-2.09,7.81-1,10.19,3.82,3,6.19,6.75,12,10.16,18C370.69,562.28,370.62,563.59,370.56,564.89Z"/><path class="cls-12" d="M726.47,456.64c9.85,2.06,19.73,4,29.52,6.27,4.89,1.16,8.67.45,11.31-4.07,0.67-.49,1-0.25,1.19.5-1,10.6-1,10.6-11.5,8.66-10.86-2-10.83-2-13.15,8.65-1.57,7.19-2.56,14.56-6.21,21.13,2-9.84,3.7-19.75,6.26-29.42,1.15-4.35,1-6-3.82-7C735.42,460.4,730.57,459.44,726.47,456.64Z"/><path class="cls-12" d="M543,606.13c-2.57,3.7-6.34,1.55-9.46,1.62-5,.11-7,1.95-7.09,7s2.19,6.82,6.72,6.1c7.62-1.21,10.33,2.52,10.16,9.52-0.08,3.14,1.59,6.28,0,9.42-0.7,1.28-1.39,2.56-2.09,3.83-3-3.28-2-7.5-2.36-11.25-0.6-5.74-2.73-8.39-8.93-8.09s-12.31.21-18.12-2.25a19.31,19.31,0,0,1,4.31-.36c6.12,0.86,9.47-1.06,8.76-7.84-0.59-5.68,2.07-8.11,7.79-7.66C536.14,606.46,539.58,606.17,543,606.13Z"/><path class="cls-12" d="M766.22,390.19c-12.47-1-24.58,1.72-36.66,4-6.11,1.17-2,7.24-3.57,10.74-2.91-3.64-6.83-4.7-11.26-4.49a1,1,0,0,1-.18-0.61,2,2,0,0,1,.31-0.65c1.13-.49,2.95-0.72,3.25-1.52,3.7-9.68,12.6-8.73,20.32-10.2,6.82,4.71,13.83.69,20.77,0.52C761.65,388,765.22,385.23,766.22,390.19Z"/><path class="cls-12" d="M726.74,410.45c3.49,10.6,1.78,21.31.49,32-0.5,4.11-1.86,8.12-2.83,12.16a6,6,0,0,1-1-6.25C728.68,436,725.36,423,726.74,410.45Z"/><path class="cls-12" d="M582,648.31c7.67-3.94,16.23-5.12,24.36-7.56,6.69-2,10.07-5.23,8.95-12.31,2.83,8.22,2.13,10.44-5.45,12.82C600.77,644.13,591.72,647.51,582,648.31Z"/><path class="cls-12" d="M610.19,234.46c12.12,3.89,23.62,9,33.65,17C632.44,246.15,621,240.93,610.19,234.46Z"/><path class="cls-12" d="M701,303.16l0.1-.06-2.29-1.58-0.51-.19,0.44,0.27-0.24,1.8c-4.88.48-5.72-5-9.4-6.33,1-1.17,2.06-2.33,3.1-3.48,4,3.31,8.14,6,13.17,1.8C704.93,298.53,701,299.74,701,303.16Z"/><path class="cls-12" d="M327.3,295a162.54,162.54,0,0,1-13.82,25C316.73,310.9,320.17,301.95,327.3,295Z"/><path class="cls-12" d="M380.27,599.76c0.87,0.27,2,.28,2.57.85,5.34,5.35,10.67,5.67,16.09.21C393.76,609.57,388.28,609.25,380.27,599.76Z"/><path class="cls-12" d="M705,248.48A105.16,105.16,0,0,1,689,234.38C695.82,237.41,701.35,241.86,705,248.48Z"/><path class="cls-12" d="M384.36,582.48a30.76,30.76,0,0,1-11.69-12.37C377.94,573,381.17,577.7,384.36,582.48Z"/><path class="cls-12" d="M716.9,262c-4.47-2.12-7.07-6.11-9.88-9.86C711.84,253.91,714.86,257.46,716.9,262Z"/><path class="cls-12" d="M677.33,278.93a14.42,14.42,0,0,1,8.22,8.49A19.56,19.56,0,0,1,677.33,278.93Z"/><path class="cls-12" d="M730.8,323.9a9.32,9.32,0,0,1,3.63,8.07C732.37,329.65,730.68,327.18,730.8,323.9Z"/><path class="cls-12" d="M662.56,264a8.11,8.11,0,0,1,6.78,5.28A10.6,10.6,0,0,1,662.56,264Z"/><path class="cls-12" d="M556.92,223.9a5.16,5.16,0,0,1,6.35.7C561,225.37,558.87,225.53,556.92,223.9Z"/><path class="cls-12" d="M354.48,272.08l-5.66-3.52C352.57,266.77,353.5,269.46,354.48,272.08Z"/><path class="cls-12" d="M590.77,230.11a7.52,7.52,0,0,1,7,1.69A7,7,0,0,1,590.77,230.11Z"/><path class="cls-12" d="M675.25,224.5c-2.5-.19-4.09-1.77-5.53-3.56C672.53,220.65,674.41,221.76,675.25,224.5Z"/><path class="cls-12" d="M518.05,655.48c1.81-1.22,3.52-1.22,5.11.36C521.37,656.85,519.65,657,518.05,655.48Z"/><path class="cls-12" d="M376.34,265a3.72,3.72,0,0,1-3.62,3.94A4.36,4.36,0,0,1,376.34,265Z"/><path class="cls-12" d="M773.56,464.34a5.83,5.83,0,0,1-.58-5C775.56,460.75,774.78,462.52,773.56,464.34Z"/><path class="cls-12" d="M571.6,649.85c1.48-1.37,3.15-1.23,4.85-.58A4,4,0,0,1,571.6,649.85Z"/><path class="cls-12" d="M373.18,593.44a2.22,2.22,0,0,1,2.5,2.39C373.78,596.13,372.86,595.43,373.18,593.44Z"/><path class="cls-12" d="M339.54,280.05c0.39,1.74-.47,2.61-2.06,2.93C336.84,281.06,337.7,280.21,339.54,280.05Z"/><path class="cls-12" d="M727.13,272.64c-1.54-.31-2.37-1.16-2.14-2.81C727.08,269.74,727.65,270.77,727.13,272.64Z"/><path class="cls-12" d="M654.88,259.71c1.67-.43,2.46.37,2.71,1.92C655.91,262.07,655.06,261.37,654.88,259.71Z"/><path class="cls-12" d="M544.12,646.13c1.65,0.88,1.91,2.16,1.06,3.74C543.44,649,542.94,647.81,544.12,646.13Z"/><path class="cls-12" d="M571.64,225.64c0.89-.91,1.62-0.81,2.18.34C572.91,227,572.19,226.86,571.64,225.64Z"/><path class="cls-12" d="M505.9,654.1c0.95-1.12,1.7-1,2.26.35C507.23,655.41,506.46,655.39,505.9,654.1Z"/><path class="cls-12" d="M590.1,203.15a1.12,1.12,0,0,1-1.91-.16A1,1,0,0,1,590.1,203.15Z"/><path class="cls-12" d="M391.78,588.75c-0.92.36-1.37,0.11-1.19-.93C391.57,587.4,392,587.64,391.78,588.75Z"/><path class="cls-12" d="M679.84,229.11c-1,.37-1.44.11-1.21-1C679.68,227.67,680.13,227.93,679.84,229.11Z"/><path class="cls-12" d="M333.8,287.6c0.56,0.94.3,1.43-.8,1.45C332.35,288.06,332.68,287.61,333.8,287.6Z"/><path class="cls-12" d="M578.61,226.93c0.55-.69.95-0.53,1.22,0.22C579.24,228.09,578.85,227.91,578.61,226.93Z"/><path class="cls-12" d="M584.64,228.37c0.67-.62,1.08-0.45,1.24.42C585.11,229.67,584.74,229.41,584.64,228.37Z"/><path class="cls-12" d="M769.07,485.92c-0.8-.71-0.68-1.21.34-1.49C770.24,485.15,769.94,485.6,769.07,485.92Z"/><path class="cls-12" d="M650.34,256.67c0.93-.59,1.37-0.37,1.26.75C650.71,257.94,650.29,257.7,650.34,256.67Z"/><path class="cls-12" d="M684.24,232c-0.77.34-1.26,0.2-1.26-.74C683.88,230.73,684.34,230.91,684.24,232Z"/><path class="cls-12" d="M496.47,652.68c0.58-.7,1-0.62,1.29.24C497.13,653.9,496.74,653.59,496.47,652.68Z"/><path class="cls-12" d="M734.81,283c-1,0-1.3-.39-0.75-1.27C735.18,281.6,735.36,282.06,734.81,283Z"/><path class="cls-12" d="M731.72,278.62c-1,.11-1.28-0.36-0.92-1.26C732,277.11,732.24,277.6,731.72,278.62Z"/><path class="cls-12" d="M771.86,473.64c-0.9-.65-0.77-1.09.27-1.34a8.32,8.32,0,0,1,.26,1.09A1.68,1.68,0,0,1,771.86,473.64Z"/><path class="cls-12" d="M698.86,301.51l2.29,1.58-2.61.3q0.12-.9.24-1.8Z"/><path class="cls-12" d="M598.93,468.94c0.4-3.15.75-6.82,1.38-10.44,0.35-2,1.42-3.77,3.81-3.91a4.48,4.48,0,0,1,4.85,3.72,45,45,0,0,1,.09,21.94c-0.58,2.28-1.89,4.14-4.63,3.93s-3.94-2.18-4.35-4.4C599.48,476.39,599.34,472.93,598.93,468.94Z"/><path class="cls-12" d="M652.31,468.17c0.25-3,.46-7.18,1-11.33,0.28-2,1.47-3.77,3.89-3.79s3.54,1.62,4,3.68a56.13,56.13,0,0,1,.41,24.26c-0.51,2.41-2,4.91-5,4.47-2.53-.36-3.5-2.68-3.71-5C652.57,476.8,652.53,473.09,652.31,468.17Z"/><path class="cls-12" d="M553.54,478.23c-0.66,3.13-.56,7.39-5.24,7.32-3.67-.06-4.39-3.43-4.33-6.56,0.07-3.67,1.91-6.16,5.67-6.51C553.9,472.06,553.22,475.47,553.54,478.23Z"/><path class="cls-12" d="M475.72,390.57c-0.6,3.39,0,8.27-5.45,8.74-4.32.37-5.27-3.2-5.1-6.63,0.22-4.45,2.49-7.73,7.23-7.94C476,384.59,475.75,387.63,475.72,390.57Z"/><path class="cls-12" d="M698.78,301.59l-0.43-.27,0.51,0.19Z"/></svg>